<svg width="1587" height="795" viewBox="0 0 1587 795" fill="none" xmlns="http://www.w3.org/2000/svg">
<path d="M1518.72 536.125C1541.02 566.004 1548.15 601.124 1540.12 641.484C1528.75 701.466 1504.56 747.177 1467.54 778.618C1452.83 790.882 1438.11 795.899 1423.39 793.669C1410.91 791.885 1401.54 787.76 1395.3 781.293C1389.05 774.604 1385.49 765.016 1384.59 752.529C1383.7 740.934 1383.7 719.973 1384.59 689.648C1385.49 659.322 1384.82 638.362 1382.59 626.767C1379.24 602.016 1370.99 584.735 1357.84 574.924C1355.83 575.816 1354.16 577.042 1352.82 578.603C1351.48 579.941 1350.48 581.167 1349.81 582.282C1349.36 583.174 1348.92 584.735 1348.47 586.965C1348.25 589.195 1348.14 590.644 1348.14 591.313C1348.14 591.759 1348.14 593.32 1348.14 595.995C1348.36 609.151 1350.59 627.993 1354.83 652.521C1359.29 676.826 1361.74 690.763 1362.19 694.33C1363.52 706.594 1363.19 717.743 1361.18 727.778C1358.73 739.15 1353.71 748.403 1346.13 755.539C1338.77 762.674 1330.3 766.131 1320.71 765.908C1308.67 765.462 1298.64 761.782 1290.61 754.87C1282.8 747.958 1279.01 738.592 1279.24 726.774C1280.13 700.462 1280.24 676.603 1279.57 655.197C1279.12 633.568 1279.57 609.597 1280.91 583.285C1282.47 556.974 1285.48 533.226 1289.94 512.043C1293.51 494.65 1299.97 481.494 1309.34 472.575C1318.7 463.656 1330.19 459.308 1343.79 459.531C1357.39 459.754 1368.87 463.879 1378.24 471.906C1387.6 479.71 1396.08 490.525 1403.66 504.35C1425.29 544.041 1434.65 585.961 1431.76 630.112C1430.86 642.599 1434.1 653.636 1441.46 663.224C1442.57 640.257 1443.13 628.551 1443.13 628.105C1443.13 623.868 1443.13 617.736 1443.13 609.709C1443.13 601.459 1443.13 594.769 1443.13 589.64C1443.13 584.512 1443.35 578.491 1443.8 571.579C1444.24 564.444 1445.02 557.977 1446.14 552.18C1449.26 534.118 1458.29 523.526 1473.23 520.405C1492.41 516.168 1507.57 521.408 1518.72 536.125Z" fill="#DAFF70" fill-opacity="0.15"/>
<path d="M1045.52 572.583C1048.64 584.847 1050.2 600.678 1050.2 620.078C1049.76 633.68 1049.2 644.494 1048.53 652.521C1048.08 660.549 1046.52 670.249 1043.85 681.621C1041.39 692.993 1037.94 703.25 1033.48 712.392C1025.9 728.224 1015.19 735.582 1001.37 734.467C998.47 734.244 995.794 733.464 993.341 732.126C991.111 730.788 989.327 729.562 987.99 728.447C986.875 727.109 985.648 724.879 984.31 721.757C982.973 718.636 982.081 716.517 981.635 715.402C981.189 714.287 980.408 711.723 979.293 707.709C977.955 703.25 976.841 699.905 975.949 697.675C973.05 690.986 970.151 686.972 967.252 685.634C966.36 685.188 965.357 684.965 964.242 684.965C961.343 684.742 958.89 685.411 956.884 686.972C955.1 688.533 953.093 691.097 950.863 694.665C939.714 711.166 925.555 719.75 908.385 720.419C891.439 721.088 876.722 713.618 864.235 698.01C849.518 679.279 838.369 665.343 830.787 656.201C824.99 649.065 819.192 646.501 813.395 648.508C808.266 650.292 805.702 655.866 805.702 665.231C805.702 667.907 805.925 674.262 806.371 684.296C806.817 694.331 807.04 701.689 807.04 706.372C807.04 710.831 806.594 716.852 805.702 724.433C804.81 732.014 803.361 738.815 801.354 744.836C797.563 756.431 792.546 765.127 786.303 770.925C780.282 776.722 774.15 778.506 767.907 776.276C751.852 770.256 746.612 756.208 752.186 734.133C767.572 672.367 767.795 599.786 752.855 516.391C750.18 501.451 752.186 488.407 758.876 477.258C765.565 466.109 776.38 457.524 791.32 451.503C803.138 446.598 815.513 446.598 828.446 451.503C841.602 456.409 853.197 465.328 863.231 478.261C879.509 499.222 891.216 520.516 898.351 542.146C900.581 548.835 902.476 553.852 904.037 557.197C908.72 567.231 914.294 572.806 920.761 573.92C927.45 575.035 934.585 571.468 942.167 563.217C950.194 554.298 955.657 548.5 958.556 545.825C975.28 531.331 992.561 526.871 1010.4 532.446C1028.24 537.797 1039.94 551.176 1045.52 572.583ZM1263.6 665.9C1264.49 668.353 1265.04 671.14 1265.27 674.262C1265.71 677.161 1265.94 679.948 1265.94 682.624C1266.16 685.3 1266.38 686.972 1266.61 687.641C1266.38 724.879 1254.68 747.512 1231.49 755.539C1219.44 759.776 1207.85 758.772 1196.7 752.529C1185.77 746.285 1179.42 736.92 1177.64 724.433C1176.3 716.183 1174.96 704.03 1173.62 687.976C1172.51 671.698 1171.39 659.88 1170.28 652.521C1168.05 636.913 1160.24 622.976 1146.86 610.712C1140.17 604.915 1133.93 603.577 1128.13 606.699C1123.01 609.82 1122 615.618 1125.12 624.091C1135.6 652.856 1141.18 675.6 1141.85 692.324C1142.74 712.615 1140.62 730.342 1135.49 745.505C1130.36 760.668 1120.22 773.266 1105.06 783.3C1095.91 789.321 1086.21 792.22 1075.96 791.997C1065.92 791.774 1057.23 788.652 1049.87 782.631C1034.93 770.367 1030.24 753.198 1035.82 731.123C1038.05 722.426 1042.84 707.598 1050.2 686.638C1057.78 665.677 1062.58 649.288 1064.58 637.47C1065.7 629.666 1066.26 621.639 1066.26 613.388C1066.26 604.915 1065.81 597.333 1064.92 590.644C1064.25 583.732 1062.8 575.704 1060.57 566.562C1058.56 557.42 1056.78 550.061 1055.22 544.487C1053.66 538.689 1051.43 530.996 1048.53 521.408C1046.75 515.388 1045.52 511.04 1044.85 508.364C1044.18 505.688 1043.62 502.009 1043.18 497.326C1042.95 492.421 1043.74 488.184 1045.52 484.616C1047.53 481.049 1050.54 477.704 1054.55 474.582C1069.27 462.987 1086.1 462.318 1105.06 472.575C1178.64 512.935 1231.49 577.377 1263.6 665.9ZM1106.06 557.531C1111.41 555.301 1113.53 552.291 1112.41 548.5C1108.62 535.568 1102.38 525.868 1093.68 519.401C1090.78 524.753 1090.78 531.888 1093.68 540.808C1096.8 549.727 1100.93 555.301 1106.06 557.531Z" fill="white" fill-opacity="0.15"/>
<path d="M733.203 535.456C740.115 547.497 744.575 560.207 746.582 573.586C748.588 586.965 749.815 604.357 750.261 625.764C750.707 684.854 728.632 732.014 684.035 767.246C664.859 782.631 642.784 790.659 617.81 791.328C592.836 791.996 570.649 785.419 551.25 771.594C534.303 759.776 526.722 741.38 528.505 716.406C530.066 694.107 529.62 662.556 527.168 621.75C524.715 580.721 523.6 551.734 523.823 534.787C524.269 507.137 535.418 487.849 557.27 476.923C571.541 469.788 584.808 470.345 597.072 478.596C609.336 486.623 616.249 499.556 617.81 517.394C618.702 520.962 618.702 525.979 617.81 532.446C617.141 538.912 616.583 543.929 616.137 547.497C615.914 550.842 614.911 555.636 613.127 561.879C611.566 568.123 610.228 572.917 609.113 576.262C608.221 579.383 606.772 584.066 604.765 590.309C602.758 596.33 601.197 601.013 600.083 604.357C599.414 606.81 595.846 617.736 589.379 637.136C583.136 656.312 578.899 671.029 576.669 681.286C570.649 708.49 578.119 726.886 599.079 736.474C608.221 740.488 617.921 740.822 628.178 737.477C638.658 734.133 648.358 727.666 657.277 718.078C663.521 711.389 667.869 703.696 670.322 694.999C672.775 686.08 673.89 678.276 673.667 671.586C673.444 664.897 672.552 656.312 670.991 645.832C664.97 603.019 662.406 571.579 663.298 551.511C664.413 528.544 671.771 515.276 685.373 511.708C693.846 509.479 702.654 510.705 711.796 515.388C720.939 519.847 728.074 526.537 733.203 535.456Z" fill="white" fill-opacity="0.15"/>
<path d="M518.216 514.384C522.676 524.418 524.683 534.341 524.237 544.152C524.237 557.308 520.892 576.596 514.203 602.016C507.513 627.213 504.837 646.724 506.175 660.549C507.736 677.049 504.168 696.449 495.472 718.747C489.898 733.018 480.755 744.055 468.045 751.86C455.335 759.441 441.511 762.34 426.571 760.556C414.53 758.995 405.499 754.313 399.479 746.508C393.681 738.481 391.34 728.224 392.455 715.737C392.678 714.399 393.235 709.493 394.127 701.02C395.242 692.324 395.799 686.638 395.799 683.962C395.799 681.063 395.799 676.38 395.799 669.914C396.022 663.447 395.576 657.761 394.461 652.856C393.347 647.95 391.786 643.045 389.779 638.139C385.319 627.659 379.522 620.969 372.386 618.071C359.899 613.165 349.865 613.834 342.284 620.077C334.702 626.098 332.027 635.686 334.256 648.842C335.371 655.532 337.378 665.343 340.277 678.276C343.399 691.209 345.517 700.685 346.632 706.706C351.983 736.139 346.855 760.445 331.246 779.621C321.435 791.439 307.833 795.23 290.44 790.993C275.947 787.425 266.916 777.614 263.348 761.559C262.01 755.316 261.007 749.072 260.338 742.829C259.892 736.585 260.003 729.562 260.672 721.757C261.341 713.73 261.899 707.821 262.345 704.03C262.791 700.239 263.906 693.216 265.689 682.958C267.473 672.701 268.477 666.681 268.7 664.897C273.605 635.24 274.051 598.671 270.038 555.19C268.254 535.121 268.811 518.175 271.71 504.35C274.609 490.525 282.748 477.927 296.126 466.555C305.492 459.642 314.968 456.743 324.557 457.858C334.145 458.75 342.73 462.875 350.311 470.234C358.115 477.592 362.464 486.065 363.355 495.654C363.801 498.775 364.136 503.458 364.359 509.702C364.805 515.945 365.139 520.962 365.362 524.753C365.808 528.543 366.589 533.115 367.704 538.466C369.042 543.595 370.825 548.277 373.055 552.514C380.191 565.67 389.11 575.704 399.813 582.617C404.273 585.961 408.844 587.188 413.526 586.296C418.432 585.404 421.777 581.725 423.561 575.258C426.682 564.555 431.588 546.048 438.277 519.736C441.176 508.587 445.078 499.556 449.984 492.643C454.889 485.508 462.248 481.048 472.059 479.264C479.863 477.704 488.448 480.602 497.813 487.961C507.179 495.319 513.98 504.127 518.216 514.384Z" fill="#DAFF70" fill-opacity="0.15"/>
<path d="M1562.92 135.293C1570.28 139.306 1576.19 145.104 1580.65 152.685C1585.11 160.044 1586.89 167.402 1586 174.761C1585.33 179.889 1583.32 184.237 1579.98 187.805C1576.86 191.15 1573.62 193.602 1570.28 195.163C1567.16 196.501 1562.81 197.951 1557.23 199.512C1540.96 204.194 1528.58 205.978 1520.11 204.863C1489.11 203.302 1465.48 200.292 1449.2 195.832C1442.06 193.825 1434.37 192.711 1426.12 192.488C1417.87 192.042 1410.62 192.153 1404.38 192.822C1398.36 193.491 1390.67 194.494 1381.3 195.832C1371.94 196.947 1364.69 197.728 1359.56 198.174C1335.48 200.18 1321.21 194.383 1316.75 180.781C1312.96 169.409 1313.74 159.709 1319.09 151.682C1324.44 143.655 1333.58 138.414 1346.52 135.962C1350.53 135.293 1354.77 134.958 1359.23 134.958C1363.69 134.958 1368.7 135.181 1374.28 135.627C1379.85 135.85 1384.09 135.962 1386.99 135.962C1430.91 135.962 1472.06 133.62 1510.41 128.938C1532.26 126.039 1549.76 128.157 1562.92 135.293Z" fill="white" fill-opacity="0.15"/>
<path d="M1271.68 101.845C1300.22 122.583 1314.49 152.128 1314.49 190.481C1312.7 228.611 1290.63 265.403 1248.26 300.857C1224.4 320.925 1199.76 334.192 1174.34 340.659C1147.14 347.348 1125.62 343.781 1109.79 329.956C1093.96 316.131 1087.16 295.171 1089.39 267.075C1090.06 259.494 1092.62 242.324 1097.08 215.566C1101.76 188.585 1103.55 167.514 1102.43 152.351C1101.54 138.749 1097.41 105.971 1090.06 54.0159C1088.27 41.7519 1089.05 32.7211 1092.4 26.9236C1095.97 20.9031 1103.21 13.9906 1114.14 6.18627C1126.85 -2.733 1141.68 -0.39169 1158.62 13.2102C1215.48 58.9215 1253.17 88.4665 1271.68 101.845ZM1200.77 224.262C1206.56 217.796 1207.46 210.661 1203.44 202.856C1202.1 200.403 1198.65 194.16 1193.07 184.126C1187.72 173.869 1183.6 165.507 1180.7 159.04C1177.8 152.351 1175.35 145.438 1173.34 138.303C1175.35 144.769 1175.57 156.922 1174.01 174.76C1172.45 192.376 1171.89 204.306 1172.34 210.549C1173.01 219.468 1177.24 225.154 1185.05 227.607C1191.74 229.837 1196.98 228.722 1200.77 224.262Z" fill="#DAFF70" fill-opacity="0.15"/>
<path d="M1067.39 237.976C1083.67 258.936 1091.03 277.555 1089.47 293.833C1087.91 311.448 1080.55 322.932 1067.39 328.283C1050.67 335.419 1034.28 333.077 1018.23 321.259C1015.55 319.252 1012.99 317.134 1010.53 314.904C1008.3 312.674 1006.3 310.11 1004.51 307.211C1002.73 304.313 1001.17 301.86 999.83 299.853C998.492 297.846 997.154 294.947 995.816 291.157C994.701 287.366 993.809 284.69 993.14 283.129C992.471 281.346 991.691 278.112 990.799 273.43C990.13 268.747 989.684 265.848 989.461 264.733C989.238 263.618 988.681 260.385 987.789 255.034C987.12 249.682 986.785 246.672 986.785 246.003C983.218 220.36 977.977 202.299 971.065 191.818C965.045 182.23 957.017 178.662 946.983 181.115C943.415 182.007 940.74 183.568 938.956 185.798C937.395 188.028 936.614 190.592 936.614 193.491C936.614 196.167 936.726 199.065 936.949 202.187C937.618 210.66 940.182 223.147 944.642 239.648C949.324 256.149 952 268.747 952.669 277.443C953.784 291.268 953.561 303.309 952 313.566C950.662 323.824 946.872 333.412 940.628 342.331C935.499 349.912 929.033 355.153 921.229 358.051C913.647 360.95 905.731 361.285 897.481 359.055C883.879 355.487 875.629 344.003 872.73 324.604C872.061 319.698 871.615 314.793 871.392 309.887C871.169 304.982 871.281 299.63 871.727 293.833C872.396 287.812 872.842 283.129 873.065 279.785C873.511 276.44 874.291 271.088 875.406 263.73C876.521 256.149 877.19 251.243 877.413 249.013C883.21 204.64 877.19 155.807 859.351 102.514C847.979 68.8439 853.442 40.7482 875.74 18.2271C878.639 15.1053 882.095 12.764 886.109 11.2031C890.346 9.41927 893.69 8.30436 896.143 7.8584C898.819 7.41243 902.721 7.07796 907.85 6.85498C913.201 6.632 916.323 6.52051 917.215 6.52051C940.182 6.74349 959.581 8.52734 975.413 11.8721C991.468 14.9938 1006.18 21.6833 1019.56 31.9404C1032.05 41.3057 1041.42 54.4616 1047.66 71.4082C1053.9 88.1318 1055.13 103.295 1051.34 116.896C1048.66 126.931 1041.19 135.961 1028.93 143.989C1021.79 148.671 1017.45 153.577 1015.88 158.706C1014.55 163.611 1016.22 169.632 1020.9 176.767C1026.48 185.017 1035.17 196.835 1046.99 212.221C1059.03 227.384 1065.83 235.969 1067.39 237.976ZM943.638 116.896C950.997 119.349 956.237 116.674 959.359 108.869C962.48 101.065 958.913 92.1455 948.655 82.1113C938.621 72.0771 928.476 67.1715 918.218 67.3945C915.097 67.3945 912.755 68.175 911.194 69.7358C909.634 71.0737 908.965 73.1921 909.188 76.0908C909.188 84.7871 912.532 93.0374 919.222 100.842C925.911 108.646 934.05 113.998 943.638 116.896Z" fill="white" fill-opacity="0.15"/>
<path d="M687.512 54.6847C685.951 63.381 682.941 72.6347 678.481 82.4459C674.244 92.0342 670.454 99.5041 667.109 104.856C663.764 109.984 658.524 117.9 651.389 128.603C607.684 193.491 585.832 257.598 585.832 320.925C585.832 332.074 582.041 338.986 574.46 341.662C566.433 344.561 557.959 341.997 549.04 333.969C544.803 330.179 541.459 325.608 539.006 320.256C536.553 314.681 534.992 309.999 534.323 306.208C533.877 302.194 533.431 296.62 532.985 289.485C532.539 282.126 532.093 276.998 531.647 274.099C529.641 258.936 525.515 247.007 519.272 238.31C512.359 228.945 505.001 228.722 497.197 237.641C493.852 241.432 491.399 245.78 489.838 250.686C488.5 255.591 487.72 259.493 487.497 262.392C487.497 265.068 487.831 270.085 488.5 277.444C489.169 284.579 489.504 288.816 489.504 290.153C490.173 307.992 490.396 318.026 490.173 320.256C489.281 332.297 485.379 340.436 478.466 344.673C471.554 348.909 462.189 349.132 450.371 345.341C446.58 344.227 442.901 342.777 439.333 340.993C435.988 339.209 432.866 337.537 429.968 335.976C427.292 334.415 424.393 332.186 421.271 329.287C418.15 326.388 415.585 324.158 413.579 322.597C411.795 321.036 409.342 318.361 406.22 314.57C403.321 310.556 401.203 307.881 399.865 306.543C398.75 304.982 396.743 301.86 393.845 297.177C390.946 292.495 389.051 289.596 388.159 288.481C387.49 287.366 385.594 284.244 382.473 279.116C379.351 273.764 377.567 270.754 377.121 270.085C368.202 255.145 361.958 239.648 358.391 223.593C355.046 207.539 353.262 186.578 353.039 160.713C351.924 133.732 357.833 107.866 370.766 83.1149C374.334 76.2025 378.793 70.2934 384.145 65.3878C389.942 59.8133 395.851 56.5801 401.872 55.6881C408.115 54.7962 413.69 56.2456 418.596 60.0363C423.501 63.604 427.18 69.1785 429.633 76.7599C436.992 100.396 433.87 128.938 420.268 162.385C413.133 179.777 409.23 192.376 408.561 200.18C408.115 205.532 408.45 210.772 409.565 215.901C410.234 219.468 410.791 222.256 411.237 224.262C411.906 226.046 413.133 228.053 414.916 230.283C416.7 232.29 419.042 233.628 421.94 234.297C423.055 235.188 424.393 235.3 425.954 234.631C427.515 233.739 428.63 233.293 429.299 233.293C429.968 233.293 430.86 232.624 431.975 231.286C433.089 229.725 433.758 228.722 433.981 228.276C434.427 227.83 435.096 226.827 435.988 225.266C437.103 223.482 437.772 222.367 437.995 221.921C442.009 215.455 444.907 210.883 446.691 208.208C448.475 205.309 451.262 201.518 455.053 196.836C459.067 192.153 463.192 188.474 467.429 185.798C471.665 183.122 476.459 181.004 481.811 179.443C494.298 175.875 505.224 176.544 514.589 181.45C523.955 186.578 531.87 184.349 538.337 174.76C562.419 138.637 579.254 108.2 588.842 83.4494C601.552 50.2251 621.063 29.1533 647.375 20.234C660.085 15.7744 670.454 17.1123 678.481 24.2477C686.731 31.1601 689.741 41.3058 687.512 54.6847ZM839.362 221.252C852.072 244.219 856.643 269.974 853.076 298.515C851.961 307.658 847.724 315.685 840.366 322.597C833.23 329.51 825.314 333.412 816.618 334.304C807.699 335.196 799.56 333.077 792.202 327.949C785.066 322.82 779.938 315.573 776.816 306.208C770.349 287.255 767.562 263.507 768.454 234.965C768.231 228.945 768.12 223.593 768.12 218.911C768.343 214.228 768.231 209.323 767.785 204.194C767.562 198.842 766.893 194.048 765.778 189.812C761.765 173.311 752.176 163.834 737.014 161.382C724.304 159.375 714.492 165.061 707.58 178.44C700.668 192.041 702.34 204.974 712.597 217.238C714.381 219.468 717.28 222.813 721.293 227.273C725.307 231.509 728.763 235.411 731.662 238.979C734.561 242.547 737.125 246.003 739.355 249.348C752.065 267.632 752.845 286.92 741.696 307.212C730.993 326.834 715.607 336.199 695.539 335.307C674.802 334.192 659.639 322.374 650.051 299.853C634.219 263.73 639.905 224.931 667.109 183.457C694.09 142.651 712.932 98.7236 723.635 51.6745C729.432 26.4775 743.815 12.4297 766.782 9.53091C778.377 7.97004 789.749 12.3182 800.898 22.5753C812.047 32.6095 819.74 45.431 823.977 61.0397C825.314 65.7223 826.318 70.5164 826.987 75.422C827.656 80.1046 827.99 85.3447 827.99 91.1422C827.99 96.7168 827.879 101.288 827.656 104.856C827.656 108.2 827.433 113.44 826.987 120.576C826.541 127.711 826.206 132.505 825.983 134.958C824.868 153.02 825.091 168.851 826.652 182.453C828.213 195.832 832.45 208.765 839.362 221.252ZM759.423 105.525C767.897 105.079 775.812 100.507 783.171 91.8112C790.752 83.1149 794.431 74.4186 794.208 65.7223C794.208 56.3571 790.195 50.0021 782.167 46.6574C776.147 43.9816 770.015 46.2114 763.771 53.3468C753.514 64.4959 748.609 76.9829 749.055 90.8078C749.055 91.2537 749.166 92.5916 749.389 94.8214C749.835 97.0513 750.17 98.8351 750.393 100.173C750.838 101.511 751.842 102.849 753.403 104.187C754.964 105.302 756.97 105.748 759.423 105.525Z" fill="#DAFF70" fill-opacity="0.15"/>
<path d="M352.451 263.73C354.235 278.001 352.116 290.042 346.096 299.853C340.298 309.665 331.602 315.685 320.007 317.915C311.088 319.699 302.503 318.138 294.253 313.232C286.225 308.104 280.762 300.968 277.863 291.826C275.634 285.359 273.961 277.221 272.846 267.409C272.623 265.626 272.512 257.264 272.512 242.324C272.289 234.966 272.623 224.931 273.515 212.221C274.63 199.512 275.299 189.477 275.522 182.119C275.745 174.761 275.076 164.726 273.515 152.016C270.617 136.631 263.704 127.042 252.778 123.252C241.629 119.461 234.605 122.694 231.706 132.951C230.591 136.519 229.253 141.871 227.693 149.006C226.355 155.919 225.128 161.605 224.013 166.064C222.898 170.301 221.003 175.207 218.327 180.781C215.652 186.133 212.53 190.927 208.962 195.163C203.165 201.63 197.813 209.88 192.907 219.914C190.455 224.82 189.228 229.949 189.228 235.3C189.228 240.652 189.786 245.111 190.901 248.679C192.238 252.024 194.245 256.706 196.921 262.727C199.597 268.524 201.381 272.761 202.273 275.437C209.185 295.059 207.401 309.887 196.921 319.922C183.988 332.186 168.937 334.861 151.767 327.949C134.375 321.037 125.009 307.435 123.672 287.143C122.334 264.622 128.912 244.554 143.405 226.938C161.467 205.086 174.846 180.893 183.542 154.358C192.461 127.6 198.816 97.3859 202.607 63.7156C203.053 58.587 205.06 51.5631 208.628 42.6438C215.317 24.8053 226.132 15.1056 241.071 13.5447C257.795 11.9838 270.951 19.7882 280.539 36.9578C291.465 56.5802 304.175 88.9126 318.669 133.955C337.4 190.369 348.66 233.628 352.451 263.73ZM242.075 72.4119C242.744 68.1753 243.301 58.9215 243.747 44.6507C241.294 45.0966 239.288 45.9886 237.727 47.3265C236.166 48.6643 235.162 49.7793 234.716 50.6712C234.271 51.5631 233.713 53.2355 233.044 55.6883C232.375 58.1411 231.929 59.5905 231.706 60.0364C231.706 60.2594 231.483 60.9283 231.037 62.0433C230.814 62.9352 230.591 63.6041 230.368 64.0501C230.145 64.4961 229.922 65.165 229.699 66.0569C229.476 66.9489 229.365 67.6178 229.365 68.0638C229.365 68.5097 229.365 69.1787 229.365 70.0706C229.588 70.7395 229.811 71.297 230.034 71.743C230.48 72.1889 230.926 72.7464 231.372 73.4153C232.041 74.0843 232.71 74.6417 233.379 75.0877C234.939 76.4256 236.723 76.8715 238.73 76.4256C240.737 75.9796 241.852 74.6417 242.075 72.4119Z" fill="white" fill-opacity="0.15"/>
<path d="M1460.66 445.877C1471.59 465.053 1474.82 485.679 1470.36 507.754C1466.12 529.607 1455.31 546.776 1437.92 559.263C1423.42 569.52 1406.81 572.531 1388.08 568.294C1378.27 566.064 1371.69 560.601 1368.35 551.905C1365.22 542.985 1366.45 534.401 1372.02 526.15C1378.27 516.339 1387.74 507.866 1400.45 500.73C1412.5 494.041 1418.52 483.338 1418.52 468.621C1418.52 468.175 1418.52 467.395 1418.52 466.28C1418.52 465.165 1418.52 464.384 1418.52 463.938C1418.52 463.269 1418.4 462.378 1418.18 461.263C1418.18 460.148 1418.07 459.367 1417.85 458.921C1417.62 458.252 1417.29 457.583 1416.84 456.914C1416.62 456.246 1416.17 455.688 1415.51 455.242C1414.84 454.796 1414.06 454.462 1413.16 454.239C1407.37 452.455 1402.13 455.131 1397.44 462.266C1385.63 481.665 1367.12 490.25 1341.92 488.02C1328.99 486.906 1317.84 481.554 1308.47 471.966C1299.33 462.155 1293.65 449.779 1291.42 434.839C1288.07 412.541 1289.19 389.574 1294.76 365.938C1308.81 325.801 1328.21 293.915 1352.96 270.279C1366.12 258.015 1382.17 254.224 1401.12 258.907C1420.3 263.589 1434.68 274.627 1444.27 292.019C1454.3 310.081 1457.43 329.369 1453.64 349.883C1449.4 372.627 1448.62 395.817 1451.29 419.454C1452.19 427.481 1455.31 436.289 1460.66 445.877ZM1362.32 390.689C1365.67 388.459 1371.8 376.975 1380.72 356.238C1389.86 335.501 1393.43 323.571 1391.42 320.45C1388.75 322.679 1386.85 324.463 1385.74 325.801C1377.49 335.389 1368.01 351.556 1357.31 374.3C1353.52 382.327 1355.19 387.79 1362.32 390.689Z" fill="white" fill-opacity="0.15"/>
<path d="M1254.7 323.125C1277 353.005 1284.14 388.125 1276.11 428.484C1264.74 488.466 1240.55 534.178 1203.53 565.618C1188.81 577.882 1174.1 582.899 1159.38 580.669C1146.89 578.885 1137.53 574.76 1131.28 568.294C1125.04 561.604 1121.47 552.016 1120.58 539.529C1119.69 527.934 1119.69 506.974 1120.58 476.648C1121.47 446.323 1120.8 425.362 1118.57 413.767C1115.23 389.016 1106.98 371.735 1093.82 361.924C1091.82 362.816 1090.14 364.042 1088.81 365.603C1087.47 366.941 1086.46 368.168 1085.8 369.283C1085.35 370.174 1084.9 371.735 1084.46 373.965C1084.24 376.195 1084.12 377.644 1084.12 378.313C1084.12 378.759 1084.12 380.32 1084.12 382.996C1084.35 396.152 1086.58 414.994 1090.81 439.522C1095.27 463.827 1097.73 477.763 1098.17 481.331C1099.51 493.595 1099.17 504.744 1097.17 514.778C1094.72 526.15 1089.7 535.404 1082.12 542.539C1074.76 549.675 1066.29 553.131 1056.7 552.908C1044.66 552.462 1034.62 548.783 1026.59 541.87C1018.79 534.958 1015 525.593 1015.22 513.775C1016.11 487.463 1016.23 463.604 1015.56 442.198C1015.11 420.568 1015.56 396.598 1016.89 370.286C1018.46 343.974 1021.47 320.227 1025.93 299.043C1029.49 281.651 1035.96 268.495 1045.32 259.576C1054.69 250.656 1066.17 246.308 1079.78 246.531C1093.38 246.754 1104.86 250.879 1114.23 258.907C1123.59 266.711 1132.06 277.526 1139.65 291.35C1161.28 331.041 1170.64 372.962 1167.74 417.112C1166.85 429.599 1170.08 440.637 1177.44 450.225C1178.56 427.258 1179.11 415.551 1179.11 415.105C1179.11 410.869 1179.11 404.737 1179.11 396.709C1179.11 388.459 1179.11 381.77 1179.11 376.641C1179.11 371.512 1179.34 365.492 1179.78 358.579C1180.23 351.444 1181.01 344.978 1182.12 339.18C1185.25 321.119 1194.28 310.527 1209.22 307.405C1228.39 303.168 1243.56 308.409 1254.7 323.125Z" fill="white" fill-opacity="0.15"/>
<path d="M906.598 391.023C897.679 421.795 899.686 460.148 912.619 506.082C916.855 520.799 915.183 532.951 907.602 542.54C900.243 551.905 889.206 556.141 874.489 555.25C861.779 554.581 853.306 547.557 849.069 534.178C846.839 527.042 845.167 519.795 844.052 512.437C843.16 504.856 842.379 495.602 841.711 484.676C841.042 473.75 840.484 466.391 840.038 462.601C838.923 450.337 836.582 440.414 833.014 432.833C826.548 417.67 817.74 411.092 806.591 413.099C803.023 413.768 800.236 415.217 798.229 417.447C796.445 419.454 795.33 421.461 794.884 423.467C794.661 425.251 794.438 428.15 794.215 432.164C794.215 435.954 794.104 438.519 793.881 439.857C794.55 449.222 795.553 462.824 796.891 480.662C798.452 498.501 799.567 511.657 800.236 520.13C801.797 540.421 798.452 557.925 790.202 572.642C783.289 585.352 772.363 592.822 757.423 595.052C742.707 597.505 730.554 593.825 720.966 584.014C712.493 575.318 710.486 563.723 714.945 549.229C726.317 509.538 730.777 475.199 728.324 446.211C726.986 430.157 724.088 406.298 719.628 374.634C717.621 359.695 718.848 344.866 723.307 330.149C726.206 320.115 731.446 313.649 739.027 310.75C746.832 307.851 755.751 308.855 765.785 313.76C770.691 316.213 775.485 319.335 780.168 323.126C785.073 326.916 788.975 330.372 791.874 333.494C794.773 336.393 798.675 340.741 803.581 346.539C808.486 352.113 812.054 356.015 814.284 358.245C825.879 370.509 832.903 377.756 835.356 379.986C843.606 388.013 851.299 386.341 858.434 374.969C859.549 373.185 860.441 371.067 861.11 368.614C861.779 366.161 862.225 364.154 862.448 362.593C862.894 360.809 863.228 358.468 863.451 355.569C863.897 352.671 864.232 350.552 864.455 349.214C864.901 345.424 865.235 342.748 865.458 341.187C865.904 339.403 866.684 337.173 867.799 334.498C868.914 331.822 870.587 329.926 872.816 328.812C875.046 327.474 877.834 326.805 881.178 326.805C894.111 326.582 902.585 333.383 906.598 347.208C910.612 362.147 910.612 376.753 906.598 391.023ZM995.568 469.29C1003.37 483.338 1005.16 497.386 1000.92 511.434C998.244 520.799 993.227 526.485 985.868 528.492C978.51 530.499 971.932 527.711 966.134 520.13C938.485 482.892 926.667 447.661 930.68 414.437C936.032 370.286 939.154 345.981 940.045 341.522C944.059 318.108 955.208 307.963 973.493 311.085C979.959 312.199 984.865 316.213 988.21 323.126C993.784 334.498 996.237 346.204 995.568 358.245C995.791 370.063 993.784 384 989.547 400.054C982.635 426.143 984.642 449.222 995.568 469.29ZM948.742 296.368C944.951 295.253 942.833 292.912 942.387 289.344C941.941 285.776 942.944 282.543 945.397 279.644C955.431 267.603 967.584 260.579 981.855 258.572C990.551 258.126 995.791 261.694 997.575 269.275C1000.92 281.093 997.129 289.901 986.203 295.699C977.283 300.604 964.796 300.827 948.742 296.368Z" fill="#DAFF70" fill-opacity="0.15"/>
<path d="M688.267 316.436C710.566 346.315 717.701 381.547 709.674 422.129C698.302 482.334 674.108 528.157 637.093 559.597C622.153 572.084 607.325 577.213 592.608 574.983C580.121 573.199 570.756 569.074 564.513 562.608C558.269 555.918 554.701 546.219 553.809 533.509C552.918 521.691 552.918 500.73 553.809 470.628C554.701 440.302 554.032 419.23 551.803 407.412C548.458 382.661 540.096 365.269 526.717 355.235C524.71 356.127 523.038 357.353 521.7 358.914C520.362 360.252 519.359 361.478 518.69 362.593C518.244 363.485 517.798 365.046 517.352 367.276C517.129 369.506 517.017 370.955 517.017 371.624C517.017 372.07 517.017 373.631 517.017 376.306C517.24 389.462 519.47 408.304 523.707 432.832C528.167 457.36 530.619 471.52 531.065 475.31C532.403 487.351 532.069 498.5 530.062 508.758C527.609 520.353 522.592 529.718 515.011 536.853C507.652 543.766 499.179 547.11 489.591 546.888C477.327 546.442 467.181 542.762 459.154 535.85C451.349 528.937 447.559 519.572 447.782 507.754C448.674 481.442 448.785 457.472 448.116 435.843C447.67 413.99 448.116 389.908 449.454 363.597C451.015 337.285 454.025 313.426 458.485 292.019C462.052 274.627 468.519 261.471 477.884 252.552C487.472 243.409 499.067 238.95 512.669 239.173C536.751 239.396 556.82 254.447 572.874 284.326C594.727 323.794 604.092 365.938 600.97 410.757C600.078 422.798 603.423 433.836 611.004 443.87C611.896 425.139 612.342 413.433 612.342 408.75C612.342 402.73 612.342 396.375 612.342 389.685C612.342 382.996 612.342 376.641 612.342 370.62C612.565 364.6 612.9 358.245 613.346 351.555C613.792 344.866 614.572 338.511 615.687 332.491C618.809 314.206 627.839 303.503 642.779 300.381C662.179 296.145 677.341 301.496 688.267 316.436ZM433.065 290.013C433.288 290.013 433.288 297.148 433.065 311.419V332.825C437.079 402.395 433.399 458.921 422.027 502.403C422.027 502.849 421.47 504.855 420.355 508.423C419.463 511.991 418.905 514.109 418.683 514.778C418.46 515.447 417.791 517.342 416.676 520.464C415.784 523.586 415.003 525.593 414.334 526.485C413.665 527.377 412.551 528.937 410.99 531.167C409.652 533.397 408.314 535.069 406.976 536.184C405.638 537.299 403.854 538.526 401.624 539.864C399.618 540.978 397.388 541.982 394.935 542.874C386.239 545.773 378.546 545.215 371.856 541.201C365.39 536.965 361.934 530.387 361.488 521.468C360.596 504.967 362.268 486.013 366.505 464.607C372.525 433.39 368.623 397.824 354.798 357.91C354.352 356.796 353.46 354.343 352.122 350.552C350.785 346.761 349.893 344.197 349.447 342.859C349.001 341.298 348.109 338.846 346.771 335.501C345.656 331.933 344.876 329.257 344.43 327.473C343.984 325.467 343.315 322.902 342.423 319.781C341.754 316.659 341.308 313.983 341.085 311.753C340.862 309.3 340.527 306.625 340.081 303.726C339.858 300.827 339.747 298.04 339.747 295.364C339.97 292.688 340.304 290.013 340.75 287.337C342.311 276.411 348.666 266.711 359.815 258.238C371.187 249.541 382.894 245.528 394.935 246.197C419.24 247.535 431.95 262.14 433.065 290.013ZM383.228 242.183C376.093 245.082 365.39 249.207 351.119 254.558C344.43 257.903 337.517 259.241 330.382 258.572C323.469 257.68 318.006 253.555 313.993 246.197C310.425 239.73 310.313 231.703 313.658 222.115C317.003 212.303 322.243 205.502 329.378 201.712C341.196 195.245 352.234 192.347 362.491 193.015C370.741 192.569 378.211 194.13 384.901 197.698C391.144 200.82 395.938 204.165 399.283 207.732C402.628 211.077 404.189 215.648 403.966 221.446C403.966 225.459 402.739 228.916 400.287 231.814C397.834 234.713 395.492 236.72 393.263 237.835C391.033 238.95 387.688 240.399 383.228 242.183Z" fill="white" fill-opacity="0.15"/>
<path d="M301.698 302.054C306.826 327.92 310.059 351.221 311.397 371.958C312.735 392.696 311.063 414.994 306.38 438.853C301.698 462.489 293.336 484.453 281.295 504.744C272.821 519.015 261.115 529.83 246.175 537.188C234.134 543.208 222.651 544.323 211.725 540.533C200.798 536.519 192.66 528.38 187.308 516.116C185.078 511.211 182.291 504.187 178.946 495.044C175.601 485.679 173.26 479.324 171.922 475.979C171.699 475.311 171.142 474.084 170.25 472.3C169.581 470.293 169.023 468.956 168.578 468.287C168.355 467.395 167.797 466.168 166.905 464.607C166.236 462.824 165.456 461.597 164.564 460.928C163.895 460.259 163.003 459.479 161.888 458.587C160.773 457.472 159.547 456.692 158.209 456.246C156.871 455.8 155.422 455.465 153.861 455.242C142.043 454.35 132.566 459.925 125.431 471.966C122.309 477.094 120.079 485.568 118.741 497.386C116.511 517.677 107.481 534.624 91.6488 548.226C79.1618 559.152 66.4519 562.608 53.5189 558.594C40.586 554.358 31.5552 544.1 26.4266 527.823C20.8521 510.653 19.9602 494.71 23.7509 479.993C26.8726 467.506 28.6565 454.908 29.1024 442.198C29.5484 429.488 28.4335 416.22 25.7577 402.395C23.0819 388.348 20.4061 376.641 17.7304 367.276C15.2776 357.688 11.5984 344.978 6.69276 329.146C0.895236 311.307 -0.888618 297.483 1.3412 287.671C3.794 277.86 11.5984 268.272 24.7543 258.907C42.3698 246.197 59.3165 244.301 75.5941 253.221C83.3985 257.68 88.5271 263.478 90.9799 270.613C93.6557 277.749 95.105 286.779 95.328 297.706C95.551 306.179 94.3246 321.788 91.6488 344.532C89.196 367.276 88.8615 384.891 90.6454 397.378C91.5373 403.845 94.6591 409.642 100.011 414.771C102.686 410.311 104.916 406.744 106.7 404.068C108.484 401.392 110.825 398.27 113.724 394.703C116.623 390.912 119.41 388.125 122.086 386.341C124.985 384.557 128.218 382.996 131.786 381.658C135.353 380.097 139.255 379.54 143.492 379.986C147.729 380.209 152.3 381.212 157.205 382.996C165.01 385.895 171.142 390.577 175.601 397.044C180.284 403.51 184.521 411.315 188.311 420.457C192.325 429.599 196.116 436.4 199.683 440.86C200.798 439.968 201.802 439.076 202.694 438.184C203.586 437.069 204.366 435.954 205.035 434.839C205.704 433.501 206.261 432.387 206.707 431.495C207.153 430.603 207.488 429.376 207.711 427.815C208.157 426.255 208.38 425.14 208.38 424.471C208.603 423.802 208.826 422.575 209.049 420.791C209.495 418.785 209.718 417.558 209.718 417.112C210.387 413.322 211.725 403.622 213.731 388.013C215.961 372.181 217.634 360.921 218.748 354.231C220.086 347.542 222.539 338.511 226.107 327.139C229.675 315.767 234.023 305.733 239.151 297.037C247.848 281.651 258.551 274.515 271.261 275.63C279.288 276.299 285.977 279.087 291.329 283.992C296.681 288.675 300.137 294.695 301.698 302.054Z" fill="#DAFF70" fill-opacity="0.15"/>
</svg>
