<svg width="1601" height="802" viewBox="0 0 1601 802" fill="none" xmlns="http://www.w3.org/2000/svg">
<mask id="path-1-outside-1_464_1591" maskUnits="userSpaceOnUse" x="258.07" y="448.824" width="1290" height="353" fill="black">
<rect fill="white" x="258.07" y="448.824" width="1290" height="353"/>
<path d="M519.216 518.384C523.676 528.418 525.683 538.341 525.237 548.152C525.237 561.308 521.892 580.596 515.203 606.016C508.513 631.213 505.837 650.724 507.175 664.549C508.736 681.049 505.168 700.449 496.472 722.747C490.898 737.018 481.755 748.056 469.045 755.86C456.335 763.441 442.511 766.34 427.571 764.556C415.53 762.995 406.499 758.313 400.479 750.508C394.681 742.481 392.34 732.224 393.455 719.737C393.678 718.399 394.235 713.493 395.127 705.02C396.242 696.324 396.799 690.638 396.799 687.962C396.799 685.063 396.799 680.381 396.799 673.914C397.022 667.448 396.576 661.762 395.461 656.856C394.347 651.95 392.786 647.045 390.779 642.139C386.319 631.659 380.522 624.97 373.386 622.071C360.899 617.165 350.865 617.834 343.284 624.078C335.702 630.098 333.027 639.686 335.256 652.842C336.371 659.532 338.378 669.343 341.277 682.276C344.399 695.209 346.517 704.686 347.632 710.706C352.983 740.14 347.855 764.445 332.246 783.621C322.435 795.439 308.833 799.23 291.44 794.993C276.947 791.425 267.916 781.614 264.348 765.56C263.01 759.316 262.007 753.073 261.338 746.829C260.892 740.586 261.003 733.562 261.672 725.757C262.341 717.73 262.899 711.821 263.345 708.03C263.791 704.24 264.906 697.216 266.689 686.958C268.473 676.701 269.477 670.681 269.7 668.897C274.605 639.24 275.051 602.671 271.038 559.19C269.254 539.122 269.811 522.175 272.71 508.35C275.609 494.525 283.748 481.927 297.126 470.555C306.492 463.642 315.968 460.743 325.557 461.858C335.145 462.75 343.73 466.875 351.311 474.234C359.115 481.592 363.464 490.066 364.355 499.654C364.801 502.776 365.136 507.458 365.359 513.702C365.805 519.945 366.139 524.962 366.362 528.753C366.808 532.544 367.589 537.115 368.704 542.466C370.042 547.595 371.825 552.278 374.055 556.514C381.191 569.67 390.11 579.704 400.813 586.617C405.273 589.961 409.844 591.188 414.526 590.296C419.432 589.404 422.777 585.725 424.561 579.258C427.682 568.555 432.588 550.048 439.277 523.736C442.176 512.587 446.078 503.556 450.984 496.644C455.889 489.508 463.248 485.049 473.059 483.265C480.863 481.704 489.448 484.603 498.813 491.961C508.179 499.319 514.98 508.127 519.216 518.384ZM734.202 539.456C741.114 551.497 745.574 564.207 747.581 577.586C749.588 590.965 750.814 608.357 751.26 629.764C751.706 688.854 729.631 736.014 685.034 771.246C665.858 786.631 643.783 794.659 618.809 795.328C593.835 795.997 571.648 789.419 552.249 775.594C535.302 763.776 527.721 745.38 529.505 720.406C531.066 698.108 530.62 666.556 528.167 625.75C525.714 584.721 524.599 555.734 524.822 538.787C525.268 511.137 536.417 491.849 558.269 480.923C572.54 473.788 585.808 474.345 598.072 482.596C610.336 490.623 617.248 503.556 618.809 521.395C619.701 524.962 619.701 529.979 618.809 536.446C618.14 542.912 617.582 547.929 617.137 551.497C616.914 554.842 615.91 559.636 614.126 565.879C612.565 572.123 611.228 576.917 610.113 580.262C609.221 583.383 607.771 588.066 605.764 594.31C603.758 600.33 602.197 605.013 601.082 608.357C600.413 610.81 596.845 621.736 590.379 641.136C584.135 660.312 579.899 675.029 577.669 685.286C571.648 712.49 579.118 730.886 600.078 740.474C609.221 744.488 618.92 744.822 629.178 741.478C639.658 738.133 649.357 731.666 658.277 722.078C664.52 715.389 668.868 707.696 671.321 699C673.774 690.08 674.889 682.276 674.666 675.586C674.443 668.897 673.551 660.312 671.99 649.832C665.97 607.02 663.405 575.579 664.297 555.511C665.412 532.544 672.77 519.276 686.372 515.708C694.846 513.479 703.653 514.705 712.796 519.388C721.938 523.847 729.073 530.537 734.202 539.456ZM1046.52 576.583C1049.64 588.847 1051.2 604.678 1051.2 624.078C1050.76 637.68 1050.2 648.494 1049.53 656.521C1049.08 664.549 1047.52 674.249 1044.85 685.621C1042.39 696.993 1038.94 707.25 1034.48 716.392C1026.9 732.224 1016.19 739.582 1002.37 738.467C999.47 738.244 996.794 737.464 994.341 736.126C992.112 734.788 990.328 733.562 988.99 732.447C987.875 731.109 986.648 728.879 985.311 725.757C983.973 722.636 983.081 720.517 982.635 719.402C982.189 718.287 981.408 715.723 980.294 711.709C978.956 707.25 977.841 703.905 976.949 701.675C974.05 694.986 971.151 690.972 968.253 689.634C967.361 689.188 966.357 688.965 965.242 688.965C962.343 688.742 959.891 689.411 957.884 690.972C956.1 692.533 954.093 695.097 951.863 698.665C940.714 715.166 926.555 723.75 909.385 724.419C892.439 725.088 877.722 717.618 865.235 702.01C850.518 683.279 839.369 669.343 831.788 660.201C825.99 653.065 820.193 650.501 814.395 652.508C809.266 654.292 806.702 659.866 806.702 669.231C806.702 671.907 806.925 678.262 807.371 688.296C807.817 698.331 808.04 705.689 808.04 710.372C808.04 714.831 807.594 720.852 806.702 728.433C805.81 736.014 804.361 742.815 802.354 748.836C798.563 760.431 793.546 769.127 787.303 774.925C781.282 780.722 775.15 782.506 768.907 780.276C752.852 774.256 747.612 760.208 753.187 738.133C768.572 676.367 768.795 603.786 753.856 520.391C751.18 505.451 753.187 492.407 759.876 481.258C766.566 470.109 777.38 461.524 792.32 455.503C804.138 450.598 816.513 450.598 829.446 455.503C842.602 460.409 854.197 469.328 864.232 482.261C880.509 503.222 892.216 524.516 899.351 546.146C901.581 552.835 903.476 557.852 905.037 561.197C909.72 571.231 915.294 576.806 921.761 577.92C928.45 579.035 935.586 575.468 943.167 567.217C951.194 558.298 956.657 552.5 959.556 549.825C976.28 535.331 993.561 530.871 1011.4 536.446C1029.24 541.797 1040.94 555.176 1046.52 576.583ZM1264.6 669.9C1265.49 672.353 1266.04 675.14 1266.27 678.262C1266.71 681.161 1266.94 683.948 1266.94 686.624C1267.16 689.3 1267.38 690.972 1267.61 691.641C1267.38 728.879 1255.68 751.512 1232.49 759.539C1220.44 763.776 1208.85 762.772 1197.7 756.529C1186.77 750.285 1180.42 740.92 1178.64 728.433C1177.3 720.183 1175.96 708.03 1174.62 691.976C1173.51 675.698 1172.39 663.88 1171.28 656.521C1169.05 640.913 1161.24 626.976 1147.86 614.712C1141.17 608.915 1134.93 607.577 1129.13 610.699C1124.01 613.82 1123 619.618 1126.12 628.091C1136.6 656.856 1142.18 679.6 1142.85 696.324C1143.74 716.615 1141.62 734.342 1136.49 749.505C1131.36 764.668 1121.22 777.266 1106.06 787.3C1096.91 793.321 1087.21 796.22 1076.96 795.997C1066.92 795.774 1058.23 792.652 1050.87 786.631C1035.93 774.367 1031.24 757.198 1036.82 735.123C1039.05 726.426 1043.84 711.598 1051.2 690.638C1058.78 669.677 1063.58 653.288 1065.58 641.47C1066.7 633.666 1067.26 625.639 1067.26 617.388C1067.26 608.915 1066.81 601.333 1065.92 594.644C1065.25 587.732 1063.8 579.704 1061.57 570.562C1059.56 561.42 1057.78 554.061 1056.22 548.487C1054.66 542.689 1052.43 534.996 1049.53 525.408C1047.75 519.388 1046.52 515.04 1045.85 512.364C1045.18 509.688 1044.62 506.009 1044.18 501.326C1043.95 496.421 1044.74 492.184 1046.52 488.616C1048.53 485.049 1051.54 481.704 1055.55 478.582C1070.27 466.987 1087.1 466.318 1106.06 476.575C1179.64 516.935 1232.49 581.377 1264.6 669.9ZM1107.06 561.531C1112.41 559.301 1114.53 556.291 1113.41 552.5C1109.62 539.568 1103.38 529.868 1094.68 523.401C1091.78 528.753 1091.78 535.888 1094.68 544.808C1097.8 553.727 1101.93 559.301 1107.06 561.531ZM1519.72 540.125C1542.02 570.005 1549.15 605.124 1541.12 645.484C1529.75 705.466 1505.56 751.177 1468.54 782.618C1453.83 794.882 1439.11 799.899 1424.39 797.669C1411.91 795.885 1402.54 791.76 1396.3 785.293C1390.05 778.604 1386.49 769.016 1385.59 756.529C1384.7 744.934 1384.7 723.973 1385.59 693.648C1386.49 663.322 1385.82 642.362 1383.59 630.767C1380.24 606.016 1371.99 588.735 1358.84 578.924C1356.83 579.816 1355.16 581.042 1353.82 582.603C1352.48 583.941 1351.48 585.167 1350.81 586.282C1350.36 587.174 1349.92 588.735 1349.47 590.965C1349.25 593.195 1349.14 594.644 1349.14 595.313C1349.14 595.759 1349.14 597.32 1349.14 599.996C1349.36 613.152 1351.59 631.993 1355.83 656.521C1360.29 680.826 1362.74 694.763 1363.18 698.331C1364.52 710.595 1364.19 721.744 1362.18 731.778C1359.73 743.15 1354.71 752.404 1347.13 759.539C1339.77 766.674 1331.3 770.131 1321.71 769.908C1309.67 769.462 1299.63 765.783 1291.61 758.87C1283.8 751.958 1280.01 742.592 1280.24 730.774C1281.13 704.463 1281.24 680.604 1280.57 659.197C1280.12 637.568 1280.57 613.597 1281.91 587.286C1283.47 560.974 1286.48 537.226 1290.94 516.043C1294.51 498.65 1300.97 485.494 1310.34 476.575C1319.7 467.656 1331.19 463.308 1344.79 463.531C1358.39 463.754 1369.87 467.879 1379.24 475.906C1388.6 483.711 1397.08 494.525 1404.66 508.35C1426.29 548.041 1435.65 589.961 1432.75 634.112C1431.86 646.599 1435.1 657.636 1442.45 667.225C1443.57 644.257 1444.13 632.551 1444.13 632.105C1444.13 627.868 1444.13 621.736 1444.13 613.709C1444.13 605.459 1444.13 598.769 1444.13 593.641C1444.13 588.512 1444.35 582.492 1444.8 575.579C1445.24 568.444 1446.02 561.977 1447.14 556.18C1450.26 538.118 1459.29 527.527 1474.23 524.405C1493.41 520.168 1508.57 525.408 1519.72 540.125Z"/>
</mask>
<path d="M519.216 518.384C523.676 528.418 525.683 538.341 525.237 548.152C525.237 561.308 521.892 580.596 515.203 606.016C508.513 631.213 505.837 650.724 507.175 664.549C508.736 681.049 505.168 700.449 496.472 722.747C490.898 737.018 481.755 748.056 469.045 755.86C456.335 763.441 442.511 766.34 427.571 764.556C415.53 762.995 406.499 758.313 400.479 750.508C394.681 742.481 392.34 732.224 393.455 719.737C393.678 718.399 394.235 713.493 395.127 705.02C396.242 696.324 396.799 690.638 396.799 687.962C396.799 685.063 396.799 680.381 396.799 673.914C397.022 667.448 396.576 661.762 395.461 656.856C394.347 651.95 392.786 647.045 390.779 642.139C386.319 631.659 380.522 624.97 373.386 622.071C360.899 617.165 350.865 617.834 343.284 624.078C335.702 630.098 333.027 639.686 335.256 652.842C336.371 659.532 338.378 669.343 341.277 682.276C344.399 695.209 346.517 704.686 347.632 710.706C352.983 740.14 347.855 764.445 332.246 783.621C322.435 795.439 308.833 799.23 291.44 794.993C276.947 791.425 267.916 781.614 264.348 765.56C263.01 759.316 262.007 753.073 261.338 746.829C260.892 740.586 261.003 733.562 261.672 725.757C262.341 717.73 262.899 711.821 263.345 708.03C263.791 704.24 264.906 697.216 266.689 686.958C268.473 676.701 269.477 670.681 269.7 668.897C274.605 639.24 275.051 602.671 271.038 559.19C269.254 539.122 269.811 522.175 272.71 508.35C275.609 494.525 283.748 481.927 297.126 470.555C306.492 463.642 315.968 460.743 325.557 461.858C335.145 462.75 343.73 466.875 351.311 474.234C359.115 481.592 363.464 490.066 364.355 499.654C364.801 502.776 365.136 507.458 365.359 513.702C365.805 519.945 366.139 524.962 366.362 528.753C366.808 532.544 367.589 537.115 368.704 542.466C370.042 547.595 371.825 552.278 374.055 556.514C381.191 569.67 390.11 579.704 400.813 586.617C405.273 589.961 409.844 591.188 414.526 590.296C419.432 589.404 422.777 585.725 424.561 579.258C427.682 568.555 432.588 550.048 439.277 523.736C442.176 512.587 446.078 503.556 450.984 496.644C455.889 489.508 463.248 485.049 473.059 483.265C480.863 481.704 489.448 484.603 498.813 491.961C508.179 499.319 514.98 508.127 519.216 518.384ZM734.202 539.456C741.114 551.497 745.574 564.207 747.581 577.586C749.588 590.965 750.814 608.357 751.26 629.764C751.706 688.854 729.631 736.014 685.034 771.246C665.858 786.631 643.783 794.659 618.809 795.328C593.835 795.997 571.648 789.419 552.249 775.594C535.302 763.776 527.721 745.38 529.505 720.406C531.066 698.108 530.62 666.556 528.167 625.75C525.714 584.721 524.599 555.734 524.822 538.787C525.268 511.137 536.417 491.849 558.269 480.923C572.54 473.788 585.808 474.345 598.072 482.596C610.336 490.623 617.248 503.556 618.809 521.395C619.701 524.962 619.701 529.979 618.809 536.446C618.14 542.912 617.582 547.929 617.137 551.497C616.914 554.842 615.91 559.636 614.126 565.879C612.565 572.123 611.228 576.917 610.113 580.262C609.221 583.383 607.771 588.066 605.764 594.31C603.758 600.33 602.197 605.013 601.082 608.357C600.413 610.81 596.845 621.736 590.379 641.136C584.135 660.312 579.899 675.029 577.669 685.286C571.648 712.49 579.118 730.886 600.078 740.474C609.221 744.488 618.92 744.822 629.178 741.478C639.658 738.133 649.357 731.666 658.277 722.078C664.52 715.389 668.868 707.696 671.321 699C673.774 690.08 674.889 682.276 674.666 675.586C674.443 668.897 673.551 660.312 671.99 649.832C665.97 607.02 663.405 575.579 664.297 555.511C665.412 532.544 672.77 519.276 686.372 515.708C694.846 513.479 703.653 514.705 712.796 519.388C721.938 523.847 729.073 530.537 734.202 539.456ZM1046.52 576.583C1049.64 588.847 1051.2 604.678 1051.2 624.078C1050.76 637.68 1050.2 648.494 1049.53 656.521C1049.08 664.549 1047.52 674.249 1044.85 685.621C1042.39 696.993 1038.94 707.25 1034.48 716.392C1026.9 732.224 1016.19 739.582 1002.37 738.467C999.47 738.244 996.794 737.464 994.341 736.126C992.112 734.788 990.328 733.562 988.99 732.447C987.875 731.109 986.648 728.879 985.311 725.757C983.973 722.636 983.081 720.517 982.635 719.402C982.189 718.287 981.408 715.723 980.294 711.709C978.956 707.25 977.841 703.905 976.949 701.675C974.05 694.986 971.151 690.972 968.253 689.634C967.361 689.188 966.357 688.965 965.242 688.965C962.343 688.742 959.891 689.411 957.884 690.972C956.1 692.533 954.093 695.097 951.863 698.665C940.714 715.166 926.555 723.75 909.385 724.419C892.439 725.088 877.722 717.618 865.235 702.01C850.518 683.279 839.369 669.343 831.788 660.201C825.99 653.065 820.193 650.501 814.395 652.508C809.266 654.292 806.702 659.866 806.702 669.231C806.702 671.907 806.925 678.262 807.371 688.296C807.817 698.331 808.04 705.689 808.04 710.372C808.04 714.831 807.594 720.852 806.702 728.433C805.81 736.014 804.361 742.815 802.354 748.836C798.563 760.431 793.546 769.127 787.303 774.925C781.282 780.722 775.15 782.506 768.907 780.276C752.852 774.256 747.612 760.208 753.187 738.133C768.572 676.367 768.795 603.786 753.856 520.391C751.18 505.451 753.187 492.407 759.876 481.258C766.566 470.109 777.38 461.524 792.32 455.503C804.138 450.598 816.513 450.598 829.446 455.503C842.602 460.409 854.197 469.328 864.232 482.261C880.509 503.222 892.216 524.516 899.351 546.146C901.581 552.835 903.476 557.852 905.037 561.197C909.72 571.231 915.294 576.806 921.761 577.92C928.45 579.035 935.586 575.468 943.167 567.217C951.194 558.298 956.657 552.5 959.556 549.825C976.28 535.331 993.561 530.871 1011.4 536.446C1029.24 541.797 1040.94 555.176 1046.52 576.583ZM1264.6 669.9C1265.49 672.353 1266.04 675.14 1266.27 678.262C1266.71 681.161 1266.94 683.948 1266.94 686.624C1267.16 689.3 1267.38 690.972 1267.61 691.641C1267.38 728.879 1255.68 751.512 1232.49 759.539C1220.44 763.776 1208.85 762.772 1197.7 756.529C1186.77 750.285 1180.42 740.92 1178.64 728.433C1177.3 720.183 1175.96 708.03 1174.62 691.976C1173.51 675.698 1172.39 663.88 1171.28 656.521C1169.05 640.913 1161.24 626.976 1147.86 614.712C1141.17 608.915 1134.93 607.577 1129.13 610.699C1124.01 613.82 1123 619.618 1126.12 628.091C1136.6 656.856 1142.18 679.6 1142.85 696.324C1143.74 716.615 1141.62 734.342 1136.49 749.505C1131.36 764.668 1121.22 777.266 1106.06 787.3C1096.91 793.321 1087.21 796.22 1076.96 795.997C1066.92 795.774 1058.23 792.652 1050.87 786.631C1035.93 774.367 1031.24 757.198 1036.82 735.123C1039.05 726.426 1043.84 711.598 1051.2 690.638C1058.78 669.677 1063.58 653.288 1065.58 641.47C1066.7 633.666 1067.26 625.639 1067.26 617.388C1067.26 608.915 1066.81 601.333 1065.92 594.644C1065.25 587.732 1063.8 579.704 1061.57 570.562C1059.56 561.42 1057.78 554.061 1056.22 548.487C1054.66 542.689 1052.43 534.996 1049.53 525.408C1047.75 519.388 1046.52 515.04 1045.85 512.364C1045.18 509.688 1044.62 506.009 1044.18 501.326C1043.95 496.421 1044.74 492.184 1046.52 488.616C1048.53 485.049 1051.54 481.704 1055.55 478.582C1070.27 466.987 1087.1 466.318 1106.06 476.575C1179.64 516.935 1232.49 581.377 1264.6 669.9ZM1107.06 561.531C1112.41 559.301 1114.53 556.291 1113.41 552.5C1109.62 539.568 1103.38 529.868 1094.68 523.401C1091.78 528.753 1091.78 535.888 1094.68 544.808C1097.8 553.727 1101.93 559.301 1107.06 561.531ZM1519.72 540.125C1542.02 570.005 1549.15 605.124 1541.12 645.484C1529.75 705.466 1505.56 751.177 1468.54 782.618C1453.83 794.882 1439.11 799.899 1424.39 797.669C1411.91 795.885 1402.54 791.76 1396.3 785.293C1390.05 778.604 1386.49 769.016 1385.59 756.529C1384.7 744.934 1384.7 723.973 1385.59 693.648C1386.49 663.322 1385.82 642.362 1383.59 630.767C1380.24 606.016 1371.99 588.735 1358.84 578.924C1356.83 579.816 1355.16 581.042 1353.82 582.603C1352.48 583.941 1351.48 585.167 1350.81 586.282C1350.36 587.174 1349.92 588.735 1349.47 590.965C1349.25 593.195 1349.14 594.644 1349.14 595.313C1349.14 595.759 1349.14 597.32 1349.14 599.996C1349.36 613.152 1351.59 631.993 1355.83 656.521C1360.29 680.826 1362.74 694.763 1363.18 698.331C1364.52 710.595 1364.19 721.744 1362.18 731.778C1359.73 743.15 1354.71 752.404 1347.13 759.539C1339.77 766.674 1331.3 770.131 1321.71 769.908C1309.67 769.462 1299.63 765.783 1291.61 758.87C1283.8 751.958 1280.01 742.592 1280.24 730.774C1281.13 704.463 1281.24 680.604 1280.57 659.197C1280.12 637.568 1280.57 613.597 1281.91 587.286C1283.47 560.974 1286.48 537.226 1290.94 516.043C1294.51 498.65 1300.97 485.494 1310.34 476.575C1319.7 467.656 1331.19 463.308 1344.79 463.531C1358.39 463.754 1369.87 467.879 1379.24 475.906C1388.6 483.711 1397.08 494.525 1404.66 508.35C1426.29 548.041 1435.65 589.961 1432.75 634.112C1431.86 646.599 1435.1 657.636 1442.45 667.225C1443.57 644.257 1444.13 632.551 1444.13 632.105C1444.13 627.868 1444.13 621.736 1444.13 613.709C1444.13 605.459 1444.13 598.769 1444.13 593.641C1444.13 588.512 1444.35 582.492 1444.8 575.579C1445.24 568.444 1446.02 561.977 1447.14 556.18C1450.26 538.118 1459.29 527.527 1474.23 524.405C1493.41 520.168 1508.57 525.408 1519.72 540.125Z" stroke="#DAFF70" stroke-width="4" mask="url(#path-1-outside-1_464_1591)"/>
<mask id="path-2-outside-2_464_1591" maskUnits="userSpaceOnUse" x="123.502" y="0.887695" width="1478" height="366" fill="black">
<rect fill="white" x="123.502" y="0.887695" width="1478" height="366"/>
<path d="M355.451 266.73C357.235 281.001 355.116 293.042 349.096 302.853C343.298 312.664 334.602 318.685 323.007 320.915C314.088 322.699 305.503 321.138 297.253 316.232C289.225 311.104 283.762 303.968 280.863 294.826C278.634 288.359 276.961 280.221 275.846 270.409C275.623 268.626 275.512 260.264 275.512 245.324C275.289 237.966 275.623 227.931 276.515 215.221C277.63 202.511 278.299 192.477 278.522 185.119C278.745 177.76 278.076 167.726 276.515 155.016C273.617 139.631 266.704 130.042 255.778 126.252C244.629 122.461 237.605 125.694 234.706 135.951C233.591 139.519 232.253 144.871 230.693 152.006C229.355 158.919 228.128 164.605 227.013 169.064C225.898 173.301 224.003 178.206 221.327 183.781C218.652 189.133 215.53 193.927 211.962 198.163C206.165 204.63 200.813 212.88 195.907 222.914C193.455 227.82 192.228 232.948 192.228 238.3C192.228 243.652 192.786 248.111 193.901 251.679C195.238 255.024 197.245 259.706 199.921 265.727C202.597 271.524 204.381 275.761 205.273 278.437C212.185 298.059 210.401 312.887 199.921 322.922C186.988 335.186 171.937 337.861 154.767 330.949C137.375 324.037 128.009 310.435 126.672 290.143C125.334 267.622 131.912 247.554 146.405 229.938C164.467 208.086 177.846 183.892 186.542 157.358C195.461 130.6 201.816 100.386 205.607 66.7156C206.053 61.587 208.06 54.5631 211.628 45.6438C218.317 27.8053 229.132 18.1055 244.071 16.5447C260.795 14.9838 273.951 22.7882 283.539 39.9578C294.465 59.5802 307.175 91.9125 321.669 136.955C340.4 193.369 351.66 236.628 355.451 266.73ZM245.075 75.4119C245.744 71.1752 246.301 61.9215 246.747 47.6506C244.294 48.0966 242.288 48.9885 240.727 50.3264C239.166 51.6643 238.162 52.7792 237.716 53.6711C237.271 54.5631 236.713 56.2354 236.044 58.6882C235.375 61.141 234.929 62.5904 234.706 63.0364C234.706 63.2594 234.483 63.9283 234.037 65.0432C233.814 65.9351 233.591 66.6041 233.368 67.05C233.145 67.496 232.922 68.165 232.699 69.0569C232.476 69.9488 232.365 70.6177 232.365 71.0637C232.365 71.5097 232.365 72.1786 232.365 73.0705C232.588 73.7395 232.811 74.2969 233.034 74.7429C233.48 75.1889 233.926 75.7463 234.372 76.4153C235.041 77.0842 235.71 77.6417 236.379 78.0876C237.939 79.4255 239.723 79.8715 241.73 79.4255C243.737 78.9796 244.852 77.6417 245.075 75.4119ZM690.512 57.6848C688.951 66.3811 685.941 75.6348 681.481 85.446C677.245 95.0343 673.454 102.504 670.109 107.856C666.765 112.984 661.525 120.9 654.389 131.603C610.685 196.491 588.832 260.598 588.832 323.925C588.832 335.074 585.042 341.987 577.46 344.662C569.433 347.561 560.96 344.997 552.04 336.969C547.804 333.179 544.459 328.608 542.006 323.256C539.554 317.682 537.993 312.999 537.324 309.208C536.878 305.195 536.432 299.62 535.986 292.485C535.54 285.126 535.094 279.998 534.648 277.099C532.641 261.936 528.516 250.007 522.272 241.31C515.36 231.945 508.002 231.722 500.197 240.641C496.853 244.432 494.4 248.78 492.839 253.686C491.501 258.591 490.721 262.494 490.498 265.392C490.498 268.068 490.832 273.085 491.501 280.444C492.17 287.579 492.504 291.816 492.504 293.154C493.173 310.992 493.396 321.026 493.173 323.256C492.281 335.297 488.379 343.436 481.467 347.673C474.554 351.909 465.189 352.132 453.371 348.342C449.58 347.227 445.901 345.777 442.333 343.993C438.989 342.21 435.867 340.537 432.968 338.976C430.292 337.415 427.394 335.186 424.272 332.287C421.15 329.388 418.586 327.158 416.579 325.597C414.795 324.037 412.342 321.361 409.221 317.57C406.322 313.556 404.204 310.881 402.866 309.543C401.751 307.982 399.744 304.86 396.845 300.177C393.946 295.495 392.051 292.596 391.159 291.481C390.49 290.366 388.595 287.245 385.473 282.116C382.351 276.764 380.567 273.754 380.122 273.085C371.202 258.145 364.959 242.648 361.391 226.594C358.046 210.539 356.262 189.579 356.04 163.713C354.925 136.732 360.834 110.866 373.767 86.115C377.334 79.2025 381.794 73.2935 387.145 68.3879C392.943 62.8134 398.852 59.5802 404.873 58.6882C411.116 57.7963 416.691 59.2457 421.596 63.0364C426.502 66.6041 430.181 72.1786 432.634 79.76C439.992 103.396 436.87 131.938 423.269 165.385C416.133 182.778 412.231 195.376 411.562 203.18C411.116 208.532 411.45 213.772 412.565 218.901C413.234 222.468 413.792 225.256 414.238 227.262C414.907 229.046 416.133 231.053 417.917 233.283C419.701 235.29 422.042 236.628 424.941 237.297C426.056 238.189 427.394 238.3 428.955 237.631C430.515 236.739 431.63 236.293 432.299 236.293C432.968 236.293 433.86 235.624 434.975 234.286C436.09 232.726 436.759 231.722 436.982 231.276C437.428 230.83 438.097 229.827 438.989 228.266C440.104 226.482 440.773 225.367 440.996 224.921C445.009 218.455 447.908 213.884 449.692 211.208C451.476 208.309 454.263 204.518 458.054 199.836C462.067 195.153 466.193 191.474 470.429 188.798C474.666 186.122 479.46 184.004 484.811 182.443C497.298 178.875 508.225 179.544 517.59 184.45C526.955 189.579 534.871 187.349 541.337 177.76C565.419 141.637 582.255 111.2 591.843 86.4495C604.553 53.2252 624.064 32.1534 650.375 23.2341C663.085 18.7745 673.454 20.1124 681.481 27.2478C689.732 34.1602 692.742 44.3059 690.512 57.6848ZM842.363 224.252C855.073 247.219 859.644 272.974 856.076 301.515C854.961 310.658 850.725 318.685 843.366 325.597C836.231 332.51 828.315 336.412 819.619 337.304C810.699 338.196 802.56 336.078 795.202 330.949C788.067 325.82 782.938 318.573 779.816 309.208C773.35 290.255 770.563 266.507 771.455 237.966C771.232 231.945 771.12 226.594 771.12 221.911C771.343 217.228 771.232 212.323 770.786 207.194C770.563 201.843 769.894 197.048 768.779 192.812C764.765 176.311 755.177 166.834 740.014 164.382C727.304 162.375 717.493 168.061 710.581 181.44C703.668 195.042 705.34 207.975 715.598 220.239C717.381 222.468 720.28 225.813 724.294 230.273C728.308 234.509 731.764 238.412 734.663 241.979C737.561 245.547 740.126 249.003 742.355 252.348C755.065 270.632 755.846 289.92 744.697 310.212C733.994 329.834 718.608 339.199 698.539 338.307C677.802 337.192 662.639 325.374 653.051 302.853C637.22 266.73 642.906 227.931 670.109 186.457C697.09 145.651 715.932 101.724 726.635 54.6746C732.433 29.4776 746.815 15.4298 769.782 12.531C781.377 10.9701 792.749 15.3183 803.898 25.5754C815.047 35.6096 822.74 48.4311 826.977 64.0398C828.315 68.7224 829.318 73.5165 829.987 78.4221C830.656 83.1047 830.991 88.3448 830.991 94.1423C830.991 99.7169 830.879 104.288 830.656 107.856C830.656 111.2 830.433 116.441 829.987 123.576C829.541 130.711 829.207 135.505 828.984 137.958C827.869 156.02 828.092 171.851 829.653 185.453C831.214 198.832 835.45 211.765 842.363 224.252ZM762.424 108.525C770.897 108.079 778.813 103.508 786.171 94.8113C793.753 86.115 797.432 77.4187 797.209 68.7224C797.209 59.3572 793.195 53.0022 785.168 49.6575C779.147 46.9817 773.015 49.2115 766.772 56.3469C756.515 67.496 751.609 79.983 752.055 93.8079C752.055 94.2538 752.167 95.5917 752.39 97.8215C752.836 100.051 753.17 101.835 753.393 103.173C753.839 104.511 754.842 105.849 756.403 107.187C757.964 108.302 759.971 108.748 762.424 108.525ZM1070.39 240.976C1086.67 261.936 1094.03 280.555 1092.47 296.833C1090.91 314.448 1083.55 325.932 1070.39 331.283C1053.67 338.419 1037.28 336.078 1021.23 324.26C1018.55 322.253 1015.99 320.134 1013.53 317.905C1011.3 315.675 1009.3 313.11 1007.51 310.212C1005.73 307.313 1004.17 304.86 1002.83 302.853C1001.49 300.846 1000.15 297.948 998.816 294.157C997.701 290.366 996.809 287.691 996.14 286.13C995.471 284.346 994.691 281.113 993.799 276.43C993.13 271.747 992.684 268.849 992.461 267.734C992.238 266.619 991.68 263.385 990.788 258.034C990.119 252.682 989.785 249.672 989.785 249.003C986.217 223.36 980.977 205.299 974.065 194.819C968.044 185.23 960.017 181.663 949.983 184.115C946.415 185.007 943.739 186.568 941.955 188.798C940.395 191.028 939.614 193.592 939.614 196.491C939.614 199.167 939.726 202.066 939.949 205.187C940.617 213.661 943.182 226.148 947.641 242.648C952.324 259.149 955 271.747 955.669 280.444C956.784 294.268 956.561 306.309 955 316.567C953.662 326.824 949.871 336.412 943.628 345.331C938.499 352.913 932.033 358.153 924.228 361.052C916.647 363.95 908.731 364.285 900.481 362.055C886.879 358.487 878.629 347.004 875.73 327.604C875.061 322.699 874.615 317.793 874.392 312.887C874.169 307.982 874.28 302.63 874.726 296.833C875.395 290.812 875.841 286.13 876.064 282.785C876.51 279.44 877.291 274.089 878.406 266.73C879.52 259.149 880.189 254.243 880.412 252.013C886.21 207.64 880.189 158.807 862.351 105.514C850.979 71.8442 856.442 43.7484 878.74 21.2273C881.639 18.1055 885.095 15.7642 889.109 14.2034C893.345 12.4195 896.69 11.3046 899.143 10.8586C901.819 10.4127 905.721 10.0782 910.849 9.85522C916.201 9.63224 919.323 9.52074 920.215 9.52074C943.182 9.74373 962.581 11.5276 978.413 14.8723C994.468 17.9941 1009.18 24.6835 1022.56 34.9407C1035.05 44.3059 1044.42 57.4618 1050.66 74.4084C1056.9 91.1321 1058.13 106.295 1054.34 119.897C1051.66 129.931 1044.19 138.962 1031.93 146.989C1024.79 151.672 1020.44 156.577 1018.88 161.706C1017.55 166.611 1019.22 172.632 1023.9 179.767C1029.48 188.018 1038.17 199.836 1049.99 215.221C1062.03 230.384 1068.83 238.969 1070.39 240.976ZM946.638 119.897C953.996 122.35 959.236 119.674 962.358 111.869C965.48 104.065 961.912 95.1457 951.655 85.1116C941.621 75.0774 931.475 70.1718 921.218 70.3948C918.096 70.3948 915.755 71.1752 914.194 72.7361C912.633 74.074 911.964 76.1923 912.187 79.0911C912.187 87.7873 915.532 96.0377 922.221 103.842C928.911 111.646 937.05 116.998 946.638 119.897ZM1283.37 104.845C1311.91 125.583 1326.18 155.128 1326.18 193.481C1324.4 231.611 1302.33 268.403 1259.96 303.857C1236.1 323.925 1211.46 337.192 1186.04 343.659C1158.84 350.348 1137.32 346.781 1121.49 332.956C1105.66 319.131 1098.85 298.171 1101.08 270.075C1101.75 262.494 1104.32 245.324 1108.78 218.566C1113.46 191.585 1115.24 170.514 1114.13 155.351C1113.24 141.749 1109.11 108.971 1101.75 57.0159C1099.97 44.7519 1100.75 35.7211 1104.09 29.9236C1107.66 23.9031 1114.91 16.9906 1125.84 9.18627C1138.54 0.267002 1153.37 2.60831 1170.32 16.2102C1227.18 61.9215 1264.86 91.4665 1283.37 104.845ZM1212.46 227.262C1218.26 220.796 1219.15 213.661 1215.14 205.856C1213.8 203.403 1210.35 197.16 1204.77 187.126C1199.42 176.869 1195.29 168.507 1192.4 162.04C1189.5 155.351 1187.04 148.438 1185.04 141.303C1187.04 147.769 1187.27 159.922 1185.71 177.76C1184.14 195.376 1183.59 207.306 1184.03 213.549C1184.7 222.468 1188.94 228.154 1196.74 230.607C1203.43 232.837 1208.67 231.722 1212.46 227.262ZM1574.62 138.293C1581.98 142.306 1587.88 148.104 1592.34 155.685C1596.8 163.044 1598.59 170.402 1597.7 177.76C1597.03 182.889 1595.02 187.237 1591.68 190.805C1588.55 194.15 1585.32 196.602 1581.98 198.163C1578.85 199.501 1574.51 200.951 1568.93 202.511C1552.65 207.194 1540.28 208.978 1531.8 207.863C1500.81 206.302 1477.17 203.292 1460.9 198.832C1453.76 196.825 1446.07 195.711 1437.82 195.488C1429.57 195.042 1422.32 195.153 1416.08 195.822C1410.06 196.491 1402.36 197.494 1393 198.832C1383.63 199.947 1376.39 200.728 1371.26 201.174C1347.18 203.18 1332.9 197.383 1328.45 183.781C1324.65 172.409 1325.43 162.709 1330.79 154.682C1336.14 146.655 1345.28 141.414 1358.21 138.962C1362.23 138.293 1366.46 137.958 1370.92 137.958C1375.38 137.958 1380.4 138.181 1385.97 138.627C1391.55 138.85 1395.79 138.962 1398.68 138.962C1442.61 138.962 1483.75 136.62 1522.1 131.938C1543.96 129.039 1561.46 131.157 1574.62 138.293Z"/>
</mask>
<path d="M355.451 266.73C357.235 281.001 355.116 293.042 349.096 302.853C343.298 312.664 334.602 318.685 323.007 320.915C314.088 322.699 305.503 321.138 297.253 316.232C289.225 311.104 283.762 303.968 280.863 294.826C278.634 288.359 276.961 280.221 275.846 270.409C275.623 268.626 275.512 260.264 275.512 245.324C275.289 237.966 275.623 227.931 276.515 215.221C277.63 202.511 278.299 192.477 278.522 185.119C278.745 177.76 278.076 167.726 276.515 155.016C273.617 139.631 266.704 130.042 255.778 126.252C244.629 122.461 237.605 125.694 234.706 135.951C233.591 139.519 232.253 144.871 230.693 152.006C229.355 158.919 228.128 164.605 227.013 169.064C225.898 173.301 224.003 178.206 221.327 183.781C218.652 189.133 215.53 193.927 211.962 198.163C206.165 204.63 200.813 212.88 195.907 222.914C193.455 227.82 192.228 232.948 192.228 238.3C192.228 243.652 192.786 248.111 193.901 251.679C195.238 255.024 197.245 259.706 199.921 265.727C202.597 271.524 204.381 275.761 205.273 278.437C212.185 298.059 210.401 312.887 199.921 322.922C186.988 335.186 171.937 337.861 154.767 330.949C137.375 324.037 128.009 310.435 126.672 290.143C125.334 267.622 131.912 247.554 146.405 229.938C164.467 208.086 177.846 183.892 186.542 157.358C195.461 130.6 201.816 100.386 205.607 66.7156C206.053 61.587 208.06 54.5631 211.628 45.6438C218.317 27.8053 229.132 18.1055 244.071 16.5447C260.795 14.9838 273.951 22.7882 283.539 39.9578C294.465 59.5802 307.175 91.9125 321.669 136.955C340.4 193.369 351.66 236.628 355.451 266.73ZM245.075 75.4119C245.744 71.1752 246.301 61.9215 246.747 47.6506C244.294 48.0966 242.288 48.9885 240.727 50.3264C239.166 51.6643 238.162 52.7792 237.716 53.6711C237.271 54.5631 236.713 56.2354 236.044 58.6882C235.375 61.141 234.929 62.5904 234.706 63.0364C234.706 63.2594 234.483 63.9283 234.037 65.0432C233.814 65.9351 233.591 66.6041 233.368 67.05C233.145 67.496 232.922 68.165 232.699 69.0569C232.476 69.9488 232.365 70.6177 232.365 71.0637C232.365 71.5097 232.365 72.1786 232.365 73.0705C232.588 73.7395 232.811 74.2969 233.034 74.7429C233.48 75.1889 233.926 75.7463 234.372 76.4153C235.041 77.0842 235.71 77.6417 236.379 78.0876C237.939 79.4255 239.723 79.8715 241.73 79.4255C243.737 78.9796 244.852 77.6417 245.075 75.4119ZM690.512 57.6848C688.951 66.3811 685.941 75.6348 681.481 85.446C677.245 95.0343 673.454 102.504 670.109 107.856C666.765 112.984 661.525 120.9 654.389 131.603C610.685 196.491 588.832 260.598 588.832 323.925C588.832 335.074 585.042 341.987 577.46 344.662C569.433 347.561 560.96 344.997 552.04 336.969C547.804 333.179 544.459 328.608 542.006 323.256C539.554 317.682 537.993 312.999 537.324 309.208C536.878 305.195 536.432 299.62 535.986 292.485C535.54 285.126 535.094 279.998 534.648 277.099C532.641 261.936 528.516 250.007 522.272 241.31C515.36 231.945 508.002 231.722 500.197 240.641C496.853 244.432 494.4 248.78 492.839 253.686C491.501 258.591 490.721 262.494 490.498 265.392C490.498 268.068 490.832 273.085 491.501 280.444C492.17 287.579 492.504 291.816 492.504 293.154C493.173 310.992 493.396 321.026 493.173 323.256C492.281 335.297 488.379 343.436 481.467 347.673C474.554 351.909 465.189 352.132 453.371 348.342C449.58 347.227 445.901 345.777 442.333 343.993C438.989 342.21 435.867 340.537 432.968 338.976C430.292 337.415 427.394 335.186 424.272 332.287C421.15 329.388 418.586 327.158 416.579 325.597C414.795 324.037 412.342 321.361 409.221 317.57C406.322 313.556 404.204 310.881 402.866 309.543C401.751 307.982 399.744 304.86 396.845 300.177C393.946 295.495 392.051 292.596 391.159 291.481C390.49 290.366 388.595 287.245 385.473 282.116C382.351 276.764 380.567 273.754 380.122 273.085C371.202 258.145 364.959 242.648 361.391 226.594C358.046 210.539 356.262 189.579 356.04 163.713C354.925 136.732 360.834 110.866 373.767 86.115C377.334 79.2025 381.794 73.2935 387.145 68.3879C392.943 62.8134 398.852 59.5802 404.873 58.6882C411.116 57.7963 416.691 59.2457 421.596 63.0364C426.502 66.6041 430.181 72.1786 432.634 79.76C439.992 103.396 436.87 131.938 423.269 165.385C416.133 182.778 412.231 195.376 411.562 203.18C411.116 208.532 411.45 213.772 412.565 218.901C413.234 222.468 413.792 225.256 414.238 227.262C414.907 229.046 416.133 231.053 417.917 233.283C419.701 235.29 422.042 236.628 424.941 237.297C426.056 238.189 427.394 238.3 428.955 237.631C430.515 236.739 431.63 236.293 432.299 236.293C432.968 236.293 433.86 235.624 434.975 234.286C436.09 232.726 436.759 231.722 436.982 231.276C437.428 230.83 438.097 229.827 438.989 228.266C440.104 226.482 440.773 225.367 440.996 224.921C445.009 218.455 447.908 213.884 449.692 211.208C451.476 208.309 454.263 204.518 458.054 199.836C462.067 195.153 466.193 191.474 470.429 188.798C474.666 186.122 479.46 184.004 484.811 182.443C497.298 178.875 508.225 179.544 517.59 184.45C526.955 189.579 534.871 187.349 541.337 177.76C565.419 141.637 582.255 111.2 591.843 86.4495C604.553 53.2252 624.064 32.1534 650.375 23.2341C663.085 18.7745 673.454 20.1124 681.481 27.2478C689.732 34.1602 692.742 44.3059 690.512 57.6848ZM842.363 224.252C855.073 247.219 859.644 272.974 856.076 301.515C854.961 310.658 850.725 318.685 843.366 325.597C836.231 332.51 828.315 336.412 819.619 337.304C810.699 338.196 802.56 336.078 795.202 330.949C788.067 325.82 782.938 318.573 779.816 309.208C773.35 290.255 770.563 266.507 771.455 237.966C771.232 231.945 771.12 226.594 771.12 221.911C771.343 217.228 771.232 212.323 770.786 207.194C770.563 201.843 769.894 197.048 768.779 192.812C764.765 176.311 755.177 166.834 740.014 164.382C727.304 162.375 717.493 168.061 710.581 181.44C703.668 195.042 705.34 207.975 715.598 220.239C717.381 222.468 720.28 225.813 724.294 230.273C728.308 234.509 731.764 238.412 734.663 241.979C737.561 245.547 740.126 249.003 742.355 252.348C755.065 270.632 755.846 289.92 744.697 310.212C733.994 329.834 718.608 339.199 698.539 338.307C677.802 337.192 662.639 325.374 653.051 302.853C637.22 266.73 642.906 227.931 670.109 186.457C697.09 145.651 715.932 101.724 726.635 54.6746C732.433 29.4776 746.815 15.4298 769.782 12.531C781.377 10.9701 792.749 15.3183 803.898 25.5754C815.047 35.6096 822.74 48.4311 826.977 64.0398C828.315 68.7224 829.318 73.5165 829.987 78.4221C830.656 83.1047 830.991 88.3448 830.991 94.1423C830.991 99.7169 830.879 104.288 830.656 107.856C830.656 111.2 830.433 116.441 829.987 123.576C829.541 130.711 829.207 135.505 828.984 137.958C827.869 156.02 828.092 171.851 829.653 185.453C831.214 198.832 835.45 211.765 842.363 224.252ZM762.424 108.525C770.897 108.079 778.813 103.508 786.171 94.8113C793.753 86.115 797.432 77.4187 797.209 68.7224C797.209 59.3572 793.195 53.0022 785.168 49.6575C779.147 46.9817 773.015 49.2115 766.772 56.3469C756.515 67.496 751.609 79.983 752.055 93.8079C752.055 94.2538 752.167 95.5917 752.39 97.8215C752.836 100.051 753.17 101.835 753.393 103.173C753.839 104.511 754.842 105.849 756.403 107.187C757.964 108.302 759.971 108.748 762.424 108.525ZM1070.39 240.976C1086.67 261.936 1094.03 280.555 1092.47 296.833C1090.91 314.448 1083.55 325.932 1070.39 331.283C1053.67 338.419 1037.28 336.078 1021.23 324.26C1018.55 322.253 1015.99 320.134 1013.53 317.905C1011.3 315.675 1009.3 313.11 1007.51 310.212C1005.73 307.313 1004.17 304.86 1002.83 302.853C1001.49 300.846 1000.15 297.948 998.816 294.157C997.701 290.366 996.809 287.691 996.14 286.13C995.471 284.346 994.691 281.113 993.799 276.43C993.13 271.747 992.684 268.849 992.461 267.734C992.238 266.619 991.68 263.385 990.788 258.034C990.119 252.682 989.785 249.672 989.785 249.003C986.217 223.36 980.977 205.299 974.065 194.819C968.044 185.23 960.017 181.663 949.983 184.115C946.415 185.007 943.739 186.568 941.955 188.798C940.395 191.028 939.614 193.592 939.614 196.491C939.614 199.167 939.726 202.066 939.949 205.187C940.617 213.661 943.182 226.148 947.641 242.648C952.324 259.149 955 271.747 955.669 280.444C956.784 294.268 956.561 306.309 955 316.567C953.662 326.824 949.871 336.412 943.628 345.331C938.499 352.913 932.033 358.153 924.228 361.052C916.647 363.95 908.731 364.285 900.481 362.055C886.879 358.487 878.629 347.004 875.73 327.604C875.061 322.699 874.615 317.793 874.392 312.887C874.169 307.982 874.28 302.63 874.726 296.833C875.395 290.812 875.841 286.13 876.064 282.785C876.51 279.44 877.291 274.089 878.406 266.73C879.52 259.149 880.189 254.243 880.412 252.013C886.21 207.64 880.189 158.807 862.351 105.514C850.979 71.8442 856.442 43.7484 878.74 21.2273C881.639 18.1055 885.095 15.7642 889.109 14.2034C893.345 12.4195 896.69 11.3046 899.143 10.8586C901.819 10.4127 905.721 10.0782 910.849 9.85522C916.201 9.63224 919.323 9.52074 920.215 9.52074C943.182 9.74373 962.581 11.5276 978.413 14.8723C994.468 17.9941 1009.18 24.6835 1022.56 34.9407C1035.05 44.3059 1044.42 57.4618 1050.66 74.4084C1056.9 91.1321 1058.13 106.295 1054.34 119.897C1051.66 129.931 1044.19 138.962 1031.93 146.989C1024.79 151.672 1020.44 156.577 1018.88 161.706C1017.55 166.611 1019.22 172.632 1023.9 179.767C1029.48 188.018 1038.17 199.836 1049.99 215.221C1062.03 230.384 1068.83 238.969 1070.39 240.976ZM946.638 119.897C953.996 122.35 959.236 119.674 962.358 111.869C965.48 104.065 961.912 95.1457 951.655 85.1116C941.621 75.0774 931.475 70.1718 921.218 70.3948C918.096 70.3948 915.755 71.1752 914.194 72.7361C912.633 74.074 911.964 76.1923 912.187 79.0911C912.187 87.7873 915.532 96.0377 922.221 103.842C928.911 111.646 937.05 116.998 946.638 119.897ZM1283.37 104.845C1311.91 125.583 1326.18 155.128 1326.18 193.481C1324.4 231.611 1302.33 268.403 1259.96 303.857C1236.1 323.925 1211.46 337.192 1186.04 343.659C1158.84 350.348 1137.32 346.781 1121.49 332.956C1105.66 319.131 1098.85 298.171 1101.08 270.075C1101.75 262.494 1104.32 245.324 1108.78 218.566C1113.46 191.585 1115.24 170.514 1114.13 155.351C1113.24 141.749 1109.11 108.971 1101.75 57.0159C1099.97 44.7519 1100.75 35.7211 1104.09 29.9236C1107.66 23.9031 1114.91 16.9906 1125.84 9.18627C1138.54 0.267002 1153.37 2.60831 1170.32 16.2102C1227.18 61.9215 1264.86 91.4665 1283.37 104.845ZM1212.46 227.262C1218.26 220.796 1219.15 213.661 1215.14 205.856C1213.8 203.403 1210.35 197.16 1204.77 187.126C1199.42 176.869 1195.29 168.507 1192.4 162.04C1189.5 155.351 1187.04 148.438 1185.04 141.303C1187.04 147.769 1187.27 159.922 1185.71 177.76C1184.14 195.376 1183.59 207.306 1184.03 213.549C1184.7 222.468 1188.94 228.154 1196.74 230.607C1203.43 232.837 1208.67 231.722 1212.46 227.262ZM1574.62 138.293C1581.98 142.306 1587.88 148.104 1592.34 155.685C1596.8 163.044 1598.59 170.402 1597.7 177.76C1597.03 182.889 1595.02 187.237 1591.68 190.805C1588.55 194.15 1585.32 196.602 1581.98 198.163C1578.85 199.501 1574.51 200.951 1568.93 202.511C1552.65 207.194 1540.28 208.978 1531.8 207.863C1500.81 206.302 1477.17 203.292 1460.9 198.832C1453.76 196.825 1446.07 195.711 1437.82 195.488C1429.57 195.042 1422.32 195.153 1416.08 195.822C1410.06 196.491 1402.36 197.494 1393 198.832C1383.63 199.947 1376.39 200.728 1371.26 201.174C1347.18 203.18 1332.9 197.383 1328.45 183.781C1324.65 172.409 1325.43 162.709 1330.79 154.682C1336.14 146.655 1345.28 141.414 1358.21 138.962C1362.23 138.293 1366.46 137.958 1370.92 137.958C1375.38 137.958 1380.4 138.181 1385.97 138.627C1391.55 138.85 1395.79 138.962 1398.68 138.962C1442.61 138.962 1483.75 136.62 1522.1 131.938C1543.96 129.039 1561.46 131.157 1574.62 138.293Z" stroke="#DAFF70" stroke-width="4" mask="url(#path-2-outside-2_464_1591)"/>
<mask id="path-3-outside-3_464_1591" maskUnits="userSpaceOnUse" x="0.412109" y="192.921" width="1478" height="409" fill="black">
<rect fill="white" x="0.412109" y="192.921" width="1478" height="409"/>
<path d="M304.698 305.054C309.826 330.919 313.059 354.221 314.397 374.958C315.735 395.696 314.063 417.994 309.38 441.853C304.698 465.489 296.336 487.453 284.295 507.744C275.821 522.015 264.115 532.829 249.175 540.188C237.134 546.208 225.651 547.323 214.725 543.533C203.798 539.519 195.66 531.38 190.308 519.116C188.078 514.21 185.291 507.187 181.946 498.044C178.601 488.679 176.26 482.324 174.922 478.979C174.699 478.31 174.142 477.084 173.25 475.3C172.581 473.293 172.023 471.955 171.578 471.286C171.355 470.395 170.797 469.168 169.905 467.607C169.236 465.823 168.456 464.597 167.564 463.928C166.895 463.259 166.003 462.479 164.888 461.587C163.773 460.472 162.547 459.691 161.209 459.245C159.871 458.799 158.422 458.465 156.861 458.242C145.043 457.35 135.566 462.925 128.431 474.966C125.309 480.094 123.079 488.568 121.741 500.386C119.511 520.677 110.481 537.624 94.6488 551.225C82.1618 562.152 69.4519 565.608 56.5189 561.594C43.586 557.357 34.5552 547.1 29.4266 530.823C23.8521 513.653 22.9602 497.71 26.7509 482.993C29.8726 470.506 31.6565 457.908 32.1024 445.198C32.5484 432.488 31.4335 419.22 28.7577 405.395C26.0819 391.347 23.4061 379.641 20.7304 370.276C18.2776 360.687 14.5984 347.978 9.69276 332.146C3.89524 314.307 2.11138 300.482 4.3412 290.671C6.794 280.86 14.5984 271.272 27.7543 261.907C45.3698 249.197 62.3165 247.301 78.5941 256.221C86.3985 260.68 91.5271 266.478 93.9799 273.613C96.6557 280.749 98.105 289.779 98.328 300.705C98.551 309.179 97.3246 324.787 94.6488 347.532C92.196 370.276 91.8615 387.891 93.6454 400.378C94.5373 406.845 97.6591 412.642 103.011 417.771C105.686 413.311 107.916 409.743 109.7 407.068C111.484 404.392 113.825 401.27 116.724 397.702C119.623 393.912 122.41 391.125 125.086 389.341C127.985 387.557 131.218 385.996 134.786 384.658C138.353 383.097 142.255 382.54 146.492 382.986C150.729 383.209 155.3 384.212 160.205 385.996C168.01 388.895 174.142 393.577 178.601 400.044C183.284 406.51 187.521 414.315 191.311 423.457C195.325 432.599 199.116 439.4 202.683 443.86C203.798 442.968 204.802 442.076 205.694 441.184C206.586 440.069 207.366 438.954 208.035 437.839C208.704 436.501 209.261 435.386 209.707 434.494C210.153 433.603 210.488 432.376 210.711 430.815C211.157 429.254 211.38 428.139 211.38 427.471C211.603 426.802 211.826 425.575 212.049 423.791C212.495 421.785 212.718 420.558 212.718 420.112C213.387 416.321 214.725 406.622 216.731 391.013C218.961 375.181 220.634 363.921 221.748 357.231C223.086 350.542 225.539 341.511 229.107 330.139C232.675 318.767 237.023 308.733 242.151 300.036C250.848 284.651 261.551 277.515 274.261 278.63C282.288 279.299 288.977 282.086 294.329 286.992C299.681 291.675 303.137 297.695 304.698 305.054ZM691.268 319.436C713.566 349.315 720.701 384.547 712.674 425.129C701.302 485.334 677.108 531.157 640.093 562.598C625.154 575.084 610.325 580.213 595.609 577.983C583.122 576.199 573.756 572.074 567.513 565.608C561.269 558.918 557.702 549.219 556.81 536.509C555.918 524.691 555.918 503.73 556.81 473.628C557.702 443.302 557.033 422.23 554.803 410.412C551.458 385.661 543.096 368.269 529.717 358.235C527.711 359.127 526.038 360.353 524.7 361.914C523.362 363.252 522.359 364.478 521.69 365.593C521.244 366.485 520.798 368.046 520.352 370.276C520.129 372.506 520.018 373.955 520.018 374.624C520.018 375.07 520.018 376.631 520.018 379.306C520.241 392.462 522.471 411.304 526.707 435.832C531.167 460.36 533.62 474.52 534.066 478.31C535.404 490.351 535.069 501.5 533.062 511.758C530.609 523.353 525.592 532.718 518.011 539.853C510.653 546.766 502.179 550.111 492.591 549.888C480.327 549.442 470.181 545.762 462.154 538.85C454.35 531.938 450.559 522.572 450.782 510.754C451.674 484.442 451.785 460.472 451.116 438.843C450.67 416.99 451.116 392.908 452.454 366.597C454.015 340.285 457.025 316.426 461.485 295.019C465.053 277.627 471.519 264.471 480.884 255.552C490.473 246.409 502.068 241.95 515.67 242.173C539.752 242.396 559.82 257.447 575.875 287.326C597.727 326.794 607.092 368.938 603.97 413.757C603.078 425.798 606.423 436.836 614.005 446.87C614.897 428.139 615.342 416.433 615.342 411.75C615.342 405.73 615.342 399.375 615.342 392.685C615.342 385.996 615.342 379.641 615.342 373.62C615.565 367.6 615.9 361.245 616.346 354.555C616.792 347.866 617.572 341.511 618.687 335.491C621.809 317.206 630.84 306.503 645.779 303.381C665.179 299.145 680.342 304.496 691.268 319.436ZM436.065 293.013C436.288 293.013 436.288 300.148 436.065 314.419V335.825C440.079 405.395 436.4 461.921 425.028 505.403C425.028 505.849 424.47 507.855 423.355 511.423C422.463 514.991 421.906 517.109 421.683 517.778C421.46 518.447 420.791 520.342 419.676 523.464C418.784 526.586 418.004 528.593 417.335 529.485C416.666 530.377 415.551 531.938 413.99 534.167C412.652 536.397 411.314 538.07 409.976 539.184C408.638 540.299 406.855 541.526 404.625 542.864C402.618 543.979 400.388 544.982 397.935 545.874C389.239 548.773 381.546 548.215 374.857 544.202C368.39 539.965 364.934 533.387 364.488 524.468C363.596 507.967 365.268 489.014 369.505 467.607C375.526 436.39 371.623 400.824 357.799 360.91C357.353 359.796 356.461 357.343 355.123 353.552C353.785 349.761 352.893 347.197 352.447 345.859C352.001 344.298 351.109 341.846 349.771 338.501C348.656 334.933 347.876 332.257 347.43 330.473C346.984 328.467 346.315 325.902 345.423 322.781C344.754 319.659 344.308 316.983 344.085 314.753C343.862 312.3 343.528 309.625 343.082 306.726C342.859 303.827 342.747 301.04 342.747 298.364C342.97 295.688 343.305 293.013 343.751 290.337C345.312 279.411 351.667 269.711 362.816 261.238C374.188 252.541 385.894 248.528 397.935 249.197C422.24 250.535 434.95 265.14 436.065 293.013ZM386.229 245.183C379.093 248.082 368.39 252.207 354.119 257.558C347.43 260.903 340.517 262.241 333.382 261.572C326.47 260.68 321.007 256.555 316.993 249.197C313.425 242.73 313.314 234.703 316.658 225.115C320.003 215.303 325.243 208.502 332.379 204.712C344.197 198.245 355.234 195.347 365.491 196.015C373.742 195.569 381.212 197.13 387.901 200.698C394.145 203.82 398.939 207.165 402.283 210.732C405.628 214.077 407.189 218.648 406.966 224.446C406.966 228.459 405.74 231.916 403.287 234.814C400.834 237.713 398.493 239.72 396.263 240.835C394.033 241.95 390.688 243.399 386.229 245.183ZM909.598 394.023C900.679 424.795 902.686 463.148 915.619 509.082C919.855 523.799 918.183 535.951 910.602 545.539C903.243 554.905 892.206 559.141 877.489 558.249C864.779 557.58 856.306 550.556 852.069 537.178C849.839 530.042 848.167 522.795 847.052 515.437C846.16 507.855 845.379 498.602 844.71 487.676C844.042 476.75 843.484 469.391 843.038 465.6C841.923 453.336 839.582 443.414 836.014 435.832C829.548 420.67 820.74 414.092 809.591 416.098C806.023 416.767 803.236 418.217 801.229 420.447C799.445 422.453 798.33 424.46 797.884 426.467C797.661 428.251 797.438 431.15 797.215 435.163C797.215 438.954 797.104 441.518 796.881 442.856C797.55 452.222 798.553 465.823 799.891 483.662C801.452 501.5 802.567 514.656 803.236 523.13C804.797 543.421 801.452 560.925 793.202 575.642C786.289 588.352 775.363 595.822 760.423 598.052C745.707 600.504 733.554 596.825 723.966 587.014C715.493 578.318 713.486 566.723 717.945 552.229C729.317 512.538 733.777 478.199 731.324 449.211C729.986 433.157 727.088 409.298 722.628 377.634C720.621 362.694 721.847 347.866 726.307 333.149C729.206 323.115 734.446 316.649 742.027 313.75C749.832 310.851 758.751 311.854 768.785 316.76C773.691 319.213 778.485 322.335 783.167 326.125C788.073 329.916 791.975 333.372 794.874 336.494C797.773 339.393 801.675 343.741 806.581 349.538C811.486 355.113 815.054 359.015 817.284 361.245C828.879 373.509 835.903 380.756 838.355 382.986C846.606 391.013 854.299 389.341 861.434 377.969C862.549 376.185 863.441 374.066 864.11 371.614C864.779 369.161 865.225 367.154 865.448 365.593C865.894 363.809 866.228 361.468 866.451 358.569C866.897 355.67 867.232 353.552 867.455 352.214C867.901 348.423 868.235 345.748 868.458 344.187C868.904 342.403 869.684 340.173 870.799 337.497C871.914 334.822 873.587 332.926 875.816 331.811C878.046 330.473 880.833 329.805 884.178 329.805C897.111 329.582 905.584 336.382 909.598 350.207C913.612 365.147 913.612 379.752 909.598 394.023ZM998.568 472.29C1006.37 486.338 1008.16 500.386 1003.92 514.433C1001.24 523.799 996.227 529.485 988.868 531.492C981.51 533.498 974.932 530.711 969.134 523.13C941.485 485.892 929.667 450.661 933.68 417.436C939.032 373.286 942.153 348.981 943.045 344.521C947.059 321.108 958.208 310.963 976.493 314.084C982.959 315.199 987.865 319.213 991.209 326.125C996.784 337.497 999.237 349.204 998.568 361.245C998.791 373.063 996.784 386.999 992.547 403.054C985.635 429.143 987.642 452.222 998.568 472.29ZM951.742 299.368C947.951 298.253 945.833 295.911 945.387 292.344C944.941 288.776 945.944 285.543 948.397 282.644C958.431 270.603 970.584 263.579 984.854 261.572C993.551 261.126 998.791 264.694 1000.57 272.275C1003.92 284.093 1000.13 292.901 989.203 298.699C980.283 303.604 967.796 303.827 951.742 299.368ZM1257.7 326.125C1280 356.005 1287.14 391.125 1279.11 431.484C1267.74 491.466 1243.54 537.178 1206.53 568.618C1191.81 580.882 1177.1 585.899 1162.38 583.669C1149.89 581.885 1140.53 577.76 1134.28 571.294C1128.04 564.604 1124.47 555.016 1123.58 542.529C1122.69 530.934 1122.69 509.974 1123.58 479.648C1124.47 449.323 1123.8 428.362 1121.57 416.767C1118.23 392.016 1109.98 374.735 1096.82 364.924C1094.82 365.816 1093.14 367.042 1091.81 368.603C1090.47 369.941 1089.46 371.168 1088.8 372.283C1088.35 373.174 1087.9 374.735 1087.46 376.965C1087.23 379.195 1087.12 380.644 1087.12 381.313C1087.12 381.759 1087.12 383.32 1087.12 385.996C1087.35 399.152 1089.58 417.994 1093.81 442.522C1098.27 466.827 1100.72 480.763 1101.17 484.331C1102.51 496.595 1102.17 507.744 1100.17 517.778C1097.71 529.15 1092.7 538.404 1085.12 545.539C1077.76 552.675 1069.28 556.131 1059.7 555.908C1047.66 555.462 1037.62 551.783 1029.59 544.87C1021.79 537.958 1018 528.593 1018.22 516.775C1019.11 490.463 1019.22 466.604 1018.56 445.198C1018.11 423.568 1018.56 399.598 1019.89 373.286C1021.45 346.974 1024.46 323.227 1028.92 302.043C1032.49 284.651 1038.96 271.495 1048.32 262.576C1057.69 253.656 1069.17 249.308 1082.77 249.531C1096.38 249.754 1107.86 253.879 1117.23 261.907C1126.59 269.711 1135.06 280.526 1142.65 294.35C1164.27 334.041 1173.64 375.962 1170.74 420.112C1169.85 432.599 1173.08 443.637 1180.44 453.225C1181.56 430.258 1182.11 418.551 1182.11 418.105C1182.11 413.869 1182.11 407.737 1182.11 399.709C1182.11 391.459 1182.11 384.77 1182.11 379.641C1182.11 374.512 1182.34 368.492 1182.78 361.579C1183.23 354.444 1184.01 347.978 1185.12 342.18C1188.25 324.118 1197.28 313.527 1212.22 310.405C1231.39 306.168 1246.55 311.409 1257.7 326.125ZM1463.66 448.877C1474.58 468.053 1477.82 488.679 1473.36 510.754C1469.12 532.606 1458.31 549.776 1440.91 562.263C1426.42 572.52 1409.81 575.53 1391.08 571.294C1381.27 569.064 1374.69 563.601 1371.34 554.905C1368.22 545.985 1369.45 537.401 1375.02 529.15C1381.27 519.339 1390.74 510.866 1403.45 503.73C1415.49 497.041 1421.52 486.338 1421.52 471.621C1421.52 471.175 1421.52 470.395 1421.52 469.28C1421.52 468.165 1421.52 467.384 1421.52 466.938C1421.52 466.269 1421.4 465.377 1421.18 464.263C1421.18 463.148 1421.07 462.367 1420.85 461.921C1420.62 461.252 1420.29 460.583 1419.84 459.914C1419.62 459.245 1419.17 458.688 1418.51 458.242C1417.84 457.796 1417.06 457.462 1416.16 457.239C1410.37 455.455 1405.13 458.131 1400.44 465.266C1388.63 484.665 1370.12 493.25 1344.92 491.02C1331.99 489.905 1320.84 484.554 1311.47 474.966C1302.33 465.154 1296.65 452.779 1294.42 437.839C1291.07 415.541 1292.19 392.574 1297.76 368.938C1311.81 328.801 1331.21 296.915 1355.96 273.279C1369.11 261.015 1385.17 257.224 1404.12 261.907C1423.3 266.589 1437.68 277.627 1447.27 295.019C1457.3 313.081 1460.43 332.369 1456.63 352.883C1452.4 375.627 1451.62 398.817 1454.29 422.453C1455.19 430.481 1458.31 439.289 1463.66 448.877ZM1365.32 393.689C1368.67 391.459 1374.8 379.975 1383.72 359.238C1392.86 338.501 1396.43 326.571 1394.42 323.45C1391.75 325.679 1389.85 327.463 1388.74 328.801C1380.49 338.389 1371.01 354.555 1360.31 377.3C1356.52 385.327 1358.19 390.79 1365.32 393.689Z"/>
</mask>
<path d="M304.698 305.054C309.826 330.919 313.059 354.221 314.397 374.958C315.735 395.696 314.063 417.994 309.38 441.853C304.698 465.489 296.336 487.453 284.295 507.744C275.821 522.015 264.115 532.829 249.175 540.188C237.134 546.208 225.651 547.323 214.725 543.533C203.798 539.519 195.66 531.38 190.308 519.116C188.078 514.21 185.291 507.187 181.946 498.044C178.601 488.679 176.26 482.324 174.922 478.979C174.699 478.31 174.142 477.084 173.25 475.3C172.581 473.293 172.023 471.955 171.578 471.286C171.355 470.395 170.797 469.168 169.905 467.607C169.236 465.823 168.456 464.597 167.564 463.928C166.895 463.259 166.003 462.479 164.888 461.587C163.773 460.472 162.547 459.691 161.209 459.245C159.871 458.799 158.422 458.465 156.861 458.242C145.043 457.35 135.566 462.925 128.431 474.966C125.309 480.094 123.079 488.568 121.741 500.386C119.511 520.677 110.481 537.624 94.6488 551.225C82.1618 562.152 69.4519 565.608 56.5189 561.594C43.586 557.357 34.5552 547.1 29.4266 530.823C23.8521 513.653 22.9602 497.71 26.7509 482.993C29.8726 470.506 31.6565 457.908 32.1024 445.198C32.5484 432.488 31.4335 419.22 28.7577 405.395C26.0819 391.347 23.4061 379.641 20.7304 370.276C18.2776 360.687 14.5984 347.978 9.69276 332.146C3.89524 314.307 2.11138 300.482 4.3412 290.671C6.794 280.86 14.5984 271.272 27.7543 261.907C45.3698 249.197 62.3165 247.301 78.5941 256.221C86.3985 260.68 91.5271 266.478 93.9799 273.613C96.6557 280.749 98.105 289.779 98.328 300.705C98.551 309.179 97.3246 324.787 94.6488 347.532C92.196 370.276 91.8615 387.891 93.6454 400.378C94.5373 406.845 97.6591 412.642 103.011 417.771C105.686 413.311 107.916 409.743 109.7 407.068C111.484 404.392 113.825 401.27 116.724 397.702C119.623 393.912 122.41 391.125 125.086 389.341C127.985 387.557 131.218 385.996 134.786 384.658C138.353 383.097 142.255 382.54 146.492 382.986C150.729 383.209 155.3 384.212 160.205 385.996C168.01 388.895 174.142 393.577 178.601 400.044C183.284 406.51 187.521 414.315 191.311 423.457C195.325 432.599 199.116 439.4 202.683 443.86C203.798 442.968 204.802 442.076 205.694 441.184C206.586 440.069 207.366 438.954 208.035 437.839C208.704 436.501 209.261 435.386 209.707 434.494C210.153 433.603 210.488 432.376 210.711 430.815C211.157 429.254 211.38 428.139 211.38 427.471C211.603 426.802 211.826 425.575 212.049 423.791C212.495 421.785 212.718 420.558 212.718 420.112C213.387 416.321 214.725 406.622 216.731 391.013C218.961 375.181 220.634 363.921 221.748 357.231C223.086 350.542 225.539 341.511 229.107 330.139C232.675 318.767 237.023 308.733 242.151 300.036C250.848 284.651 261.551 277.515 274.261 278.63C282.288 279.299 288.977 282.086 294.329 286.992C299.681 291.675 303.137 297.695 304.698 305.054ZM691.268 319.436C713.566 349.315 720.701 384.547 712.674 425.129C701.302 485.334 677.108 531.157 640.093 562.598C625.154 575.084 610.325 580.213 595.609 577.983C583.122 576.199 573.756 572.074 567.513 565.608C561.269 558.918 557.702 549.219 556.81 536.509C555.918 524.691 555.918 503.73 556.81 473.628C557.702 443.302 557.033 422.23 554.803 410.412C551.458 385.661 543.096 368.269 529.717 358.235C527.711 359.127 526.038 360.353 524.7 361.914C523.362 363.252 522.359 364.478 521.69 365.593C521.244 366.485 520.798 368.046 520.352 370.276C520.129 372.506 520.018 373.955 520.018 374.624C520.018 375.07 520.018 376.631 520.018 379.306C520.241 392.462 522.471 411.304 526.707 435.832C531.167 460.36 533.62 474.52 534.066 478.31C535.404 490.351 535.069 501.5 533.062 511.758C530.609 523.353 525.592 532.718 518.011 539.853C510.653 546.766 502.179 550.111 492.591 549.888C480.327 549.442 470.181 545.762 462.154 538.85C454.35 531.938 450.559 522.572 450.782 510.754C451.674 484.442 451.785 460.472 451.116 438.843C450.67 416.99 451.116 392.908 452.454 366.597C454.015 340.285 457.025 316.426 461.485 295.019C465.053 277.627 471.519 264.471 480.884 255.552C490.473 246.409 502.068 241.95 515.67 242.173C539.752 242.396 559.82 257.447 575.875 287.326C597.727 326.794 607.092 368.938 603.97 413.757C603.078 425.798 606.423 436.836 614.005 446.87C614.897 428.139 615.342 416.433 615.342 411.75C615.342 405.73 615.342 399.375 615.342 392.685C615.342 385.996 615.342 379.641 615.342 373.62C615.565 367.6 615.9 361.245 616.346 354.555C616.792 347.866 617.572 341.511 618.687 335.491C621.809 317.206 630.84 306.503 645.779 303.381C665.179 299.145 680.342 304.496 691.268 319.436ZM436.065 293.013C436.288 293.013 436.288 300.148 436.065 314.419V335.825C440.079 405.395 436.4 461.921 425.028 505.403C425.028 505.849 424.47 507.855 423.355 511.423C422.463 514.991 421.906 517.109 421.683 517.778C421.46 518.447 420.791 520.342 419.676 523.464C418.784 526.586 418.004 528.593 417.335 529.485C416.666 530.377 415.551 531.938 413.99 534.167C412.652 536.397 411.314 538.07 409.976 539.184C408.638 540.299 406.855 541.526 404.625 542.864C402.618 543.979 400.388 544.982 397.935 545.874C389.239 548.773 381.546 548.215 374.857 544.202C368.39 539.965 364.934 533.387 364.488 524.468C363.596 507.967 365.268 489.014 369.505 467.607C375.526 436.39 371.623 400.824 357.799 360.91C357.353 359.796 356.461 357.343 355.123 353.552C353.785 349.761 352.893 347.197 352.447 345.859C352.001 344.298 351.109 341.846 349.771 338.501C348.656 334.933 347.876 332.257 347.43 330.473C346.984 328.467 346.315 325.902 345.423 322.781C344.754 319.659 344.308 316.983 344.085 314.753C343.862 312.3 343.528 309.625 343.082 306.726C342.859 303.827 342.747 301.04 342.747 298.364C342.97 295.688 343.305 293.013 343.751 290.337C345.312 279.411 351.667 269.711 362.816 261.238C374.188 252.541 385.894 248.528 397.935 249.197C422.24 250.535 434.95 265.14 436.065 293.013ZM386.229 245.183C379.093 248.082 368.39 252.207 354.119 257.558C347.43 260.903 340.517 262.241 333.382 261.572C326.47 260.68 321.007 256.555 316.993 249.197C313.425 242.73 313.314 234.703 316.658 225.115C320.003 215.303 325.243 208.502 332.379 204.712C344.197 198.245 355.234 195.347 365.491 196.015C373.742 195.569 381.212 197.13 387.901 200.698C394.145 203.82 398.939 207.165 402.283 210.732C405.628 214.077 407.189 218.648 406.966 224.446C406.966 228.459 405.74 231.916 403.287 234.814C400.834 237.713 398.493 239.72 396.263 240.835C394.033 241.95 390.688 243.399 386.229 245.183ZM909.598 394.023C900.679 424.795 902.686 463.148 915.619 509.082C919.855 523.799 918.183 535.951 910.602 545.539C903.243 554.905 892.206 559.141 877.489 558.249C864.779 557.58 856.306 550.556 852.069 537.178C849.839 530.042 848.167 522.795 847.052 515.437C846.16 507.855 845.379 498.602 844.71 487.676C844.042 476.75 843.484 469.391 843.038 465.6C841.923 453.336 839.582 443.414 836.014 435.832C829.548 420.67 820.74 414.092 809.591 416.098C806.023 416.767 803.236 418.217 801.229 420.447C799.445 422.453 798.33 424.46 797.884 426.467C797.661 428.251 797.438 431.15 797.215 435.163C797.215 438.954 797.104 441.518 796.881 442.856C797.55 452.222 798.553 465.823 799.891 483.662C801.452 501.5 802.567 514.656 803.236 523.13C804.797 543.421 801.452 560.925 793.202 575.642C786.289 588.352 775.363 595.822 760.423 598.052C745.707 600.504 733.554 596.825 723.966 587.014C715.493 578.318 713.486 566.723 717.945 552.229C729.317 512.538 733.777 478.199 731.324 449.211C729.986 433.157 727.088 409.298 722.628 377.634C720.621 362.694 721.847 347.866 726.307 333.149C729.206 323.115 734.446 316.649 742.027 313.75C749.832 310.851 758.751 311.854 768.785 316.76C773.691 319.213 778.485 322.335 783.167 326.125C788.073 329.916 791.975 333.372 794.874 336.494C797.773 339.393 801.675 343.741 806.581 349.538C811.486 355.113 815.054 359.015 817.284 361.245C828.879 373.509 835.903 380.756 838.355 382.986C846.606 391.013 854.299 389.341 861.434 377.969C862.549 376.185 863.441 374.066 864.11 371.614C864.779 369.161 865.225 367.154 865.448 365.593C865.894 363.809 866.228 361.468 866.451 358.569C866.897 355.67 867.232 353.552 867.455 352.214C867.901 348.423 868.235 345.748 868.458 344.187C868.904 342.403 869.684 340.173 870.799 337.497C871.914 334.822 873.587 332.926 875.816 331.811C878.046 330.473 880.833 329.805 884.178 329.805C897.111 329.582 905.584 336.382 909.598 350.207C913.612 365.147 913.612 379.752 909.598 394.023ZM998.568 472.29C1006.37 486.338 1008.16 500.386 1003.92 514.433C1001.24 523.799 996.227 529.485 988.868 531.492C981.51 533.498 974.932 530.711 969.134 523.13C941.485 485.892 929.667 450.661 933.68 417.436C939.032 373.286 942.153 348.981 943.045 344.521C947.059 321.108 958.208 310.963 976.493 314.084C982.959 315.199 987.865 319.213 991.209 326.125C996.784 337.497 999.237 349.204 998.568 361.245C998.791 373.063 996.784 386.999 992.547 403.054C985.635 429.143 987.642 452.222 998.568 472.29ZM951.742 299.368C947.951 298.253 945.833 295.911 945.387 292.344C944.941 288.776 945.944 285.543 948.397 282.644C958.431 270.603 970.584 263.579 984.854 261.572C993.551 261.126 998.791 264.694 1000.57 272.275C1003.92 284.093 1000.13 292.901 989.203 298.699C980.283 303.604 967.796 303.827 951.742 299.368ZM1257.7 326.125C1280 356.005 1287.14 391.125 1279.11 431.484C1267.74 491.466 1243.54 537.178 1206.53 568.618C1191.81 580.882 1177.1 585.899 1162.38 583.669C1149.89 581.885 1140.53 577.76 1134.28 571.294C1128.04 564.604 1124.47 555.016 1123.58 542.529C1122.69 530.934 1122.69 509.974 1123.58 479.648C1124.47 449.323 1123.8 428.362 1121.57 416.767C1118.23 392.016 1109.98 374.735 1096.82 364.924C1094.82 365.816 1093.14 367.042 1091.81 368.603C1090.47 369.941 1089.46 371.168 1088.8 372.283C1088.35 373.174 1087.9 374.735 1087.46 376.965C1087.23 379.195 1087.12 380.644 1087.12 381.313C1087.12 381.759 1087.12 383.32 1087.12 385.996C1087.35 399.152 1089.58 417.994 1093.81 442.522C1098.27 466.827 1100.72 480.763 1101.17 484.331C1102.51 496.595 1102.17 507.744 1100.17 517.778C1097.71 529.15 1092.7 538.404 1085.12 545.539C1077.76 552.675 1069.28 556.131 1059.7 555.908C1047.66 555.462 1037.62 551.783 1029.59 544.87C1021.79 537.958 1018 528.593 1018.22 516.775C1019.11 490.463 1019.22 466.604 1018.56 445.198C1018.11 423.568 1018.56 399.598 1019.89 373.286C1021.45 346.974 1024.46 323.227 1028.92 302.043C1032.49 284.651 1038.96 271.495 1048.32 262.576C1057.69 253.656 1069.17 249.308 1082.77 249.531C1096.38 249.754 1107.86 253.879 1117.23 261.907C1126.59 269.711 1135.06 280.526 1142.65 294.35C1164.27 334.041 1173.64 375.962 1170.74 420.112C1169.85 432.599 1173.08 443.637 1180.44 453.225C1181.56 430.258 1182.11 418.551 1182.11 418.105C1182.11 413.869 1182.11 407.737 1182.11 399.709C1182.11 391.459 1182.11 384.77 1182.11 379.641C1182.11 374.512 1182.34 368.492 1182.78 361.579C1183.23 354.444 1184.01 347.978 1185.12 342.18C1188.25 324.118 1197.28 313.527 1212.22 310.405C1231.39 306.168 1246.55 311.409 1257.7 326.125ZM1463.66 448.877C1474.58 468.053 1477.82 488.679 1473.36 510.754C1469.12 532.606 1458.31 549.776 1440.91 562.263C1426.42 572.52 1409.81 575.53 1391.08 571.294C1381.27 569.064 1374.69 563.601 1371.34 554.905C1368.22 545.985 1369.45 537.401 1375.02 529.15C1381.27 519.339 1390.74 510.866 1403.45 503.73C1415.49 497.041 1421.52 486.338 1421.52 471.621C1421.52 471.175 1421.52 470.395 1421.52 469.28C1421.52 468.165 1421.52 467.384 1421.52 466.938C1421.52 466.269 1421.4 465.377 1421.18 464.263C1421.18 463.148 1421.07 462.367 1420.85 461.921C1420.62 461.252 1420.29 460.583 1419.84 459.914C1419.62 459.245 1419.17 458.688 1418.51 458.242C1417.84 457.796 1417.06 457.462 1416.16 457.239C1410.37 455.455 1405.13 458.131 1400.44 465.266C1388.63 484.665 1370.12 493.25 1344.92 491.02C1331.99 489.905 1320.84 484.554 1311.47 474.966C1302.33 465.154 1296.65 452.779 1294.42 437.839C1291.07 415.541 1292.19 392.574 1297.76 368.938C1311.81 328.801 1331.21 296.915 1355.96 273.279C1369.11 261.015 1385.17 257.224 1404.12 261.907C1423.3 266.589 1437.68 277.627 1447.27 295.019C1457.3 313.081 1460.43 332.369 1456.63 352.883C1452.4 375.627 1451.62 398.817 1454.29 422.453C1455.19 430.481 1458.31 439.289 1463.66 448.877ZM1365.32 393.689C1368.67 391.459 1374.8 379.975 1383.72 359.238C1392.86 338.501 1396.43 326.571 1394.42 323.45C1391.75 325.679 1389.85 327.463 1388.74 328.801C1380.49 338.389 1371.01 354.555 1360.31 377.3C1356.52 385.327 1358.19 390.79 1365.32 393.689Z" stroke="#DAFF70" stroke-width="4" mask="url(#path-3-outside-3_464_1591)"/>
</svg>
