<svg width="341" height="550" viewBox="0 0 341 550" fill="none" xmlns="http://www.w3.org/2000/svg">
<path d="M262.521 397.708C263.474 401.443 263.95 406.24 263.95 412.1C263.803 416.201 263.62 419.461 263.4 421.878C263.254 424.295 262.778 427.261 261.972 430.777C261.24 434.219 260.214 437.295 258.896 440.005C256.479 444.912 253.256 447.183 249.228 446.817C247.836 446.67 246.665 446.121 245.712 445.169C244.76 444.217 244.101 443.338 243.735 442.532C243.442 441.653 243.039 440.371 242.526 438.687C242.453 438.54 242.307 438.101 242.087 437.368C241.867 436.563 241.684 435.977 241.538 435.611C241.464 435.537 241.354 435.354 241.208 435.061C241.062 434.695 240.952 434.475 240.878 434.402C240.878 434.256 240.805 434.036 240.659 433.743C240.512 433.45 240.366 433.267 240.219 433.194C240.146 433.047 240 432.864 239.78 432.644C239.633 432.425 239.45 432.278 239.23 432.205C239.084 432.132 238.901 432.058 238.681 431.985C238.461 431.839 238.205 431.765 237.912 431.765C237.253 431.692 236.63 431.839 236.044 432.205C235.532 432.498 235.129 432.827 234.836 433.194C234.616 433.487 234.287 433.999 233.847 434.732C230.478 439.712 226.193 442.312 220.993 442.532C215.866 442.752 211.398 440.481 207.59 435.72C206.491 434.329 204.807 432.241 202.536 429.458C200.266 426.602 198.544 424.478 197.373 423.086C195.615 420.889 193.82 420.083 191.989 420.669C190.524 421.182 189.792 422.866 189.792 425.723C189.792 426.455 189.865 428.396 190.012 431.546C190.158 434.622 190.231 436.819 190.231 438.137C190.231 439.456 190.085 441.287 189.792 443.631C189.499 445.974 189.06 448.062 188.474 449.893C187.302 453.408 185.764 456.082 183.859 457.913C182.028 459.671 180.161 460.183 178.256 459.451C173.349 457.62 171.738 453.372 173.422 446.707C178.11 427.884 178.183 405.838 173.642 380.569C172.836 376.028 173.459 372.073 175.51 368.704C177.561 365.335 180.856 362.735 185.397 360.904C188.986 359.439 192.758 359.439 196.713 360.904C200.668 362.295 204.147 364.968 207.15 368.924C212.204 375.589 215.756 382.071 217.807 388.369C218.32 389.688 218.942 391.189 219.675 392.874C221.066 395.95 222.751 397.671 224.729 398.037C226.779 398.33 228.94 397.232 231.21 394.741C231.577 394.375 232.053 393.826 232.639 393.093C233.298 392.288 233.884 391.592 234.396 391.006C234.982 390.42 235.568 389.907 236.154 389.468C241.208 385 246.445 383.645 251.865 385.403C257.285 387.088 260.837 391.189 262.521 397.708Z" stroke="#DAFF70" stroke-width="1.5"/>
<path d="M166.171 375.405C168.442 379.361 169.907 383.535 170.566 387.93C171.225 392.324 171.628 398.037 171.774 405.069C171.921 424.478 164.67 439.968 150.021 451.541C143.723 456.594 136.472 459.231 128.269 459.451C120.065 459.671 112.778 457.51 106.406 452.969C100.839 449.087 98.3491 443.045 98.9351 434.842C99.4478 427.517 99.3013 417.154 98.4956 403.75C97.6899 390.274 97.3237 380.752 97.397 375.186C97.5435 366.104 101.206 359.768 108.383 356.179C113.071 353.836 117.429 354.019 121.457 356.729C125.485 359.365 127.756 363.613 128.269 369.473C128.562 370.645 128.562 372.293 128.269 374.417C128.049 376.541 127.866 378.189 127.719 379.361C127.646 380.459 127.316 382.034 126.73 384.085C126.218 386.135 125.778 387.71 125.412 388.809C125.119 389.834 124.643 391.372 123.984 393.423C123.325 395.401 122.812 396.939 122.446 398.037C122.226 398.843 121.054 402.432 118.93 408.804C116.879 415.103 115.488 419.937 114.755 423.306C112.778 432.241 115.231 438.284 122.116 441.433C125.119 442.752 128.305 442.862 131.674 441.763C135.117 440.664 138.303 438.54 141.232 435.391C143.283 433.194 144.711 430.667 145.517 427.81C146.323 424.881 146.689 422.317 146.616 420.12C146.542 417.923 146.25 415.103 145.737 411.66C143.759 397.598 142.917 387.271 143.21 380.679C143.576 373.135 145.993 368.777 150.461 367.605C153.244 366.873 156.137 367.276 159.14 368.814C162.143 370.279 164.487 372.476 166.171 375.405Z" stroke="#DAFF70" stroke-width="1.5"/>
<path d="M89.8164 363.65C97.2139 386.428 98.3857 408.108 93.332 428.689C92.2334 433.303 89.9263 436.929 86.4106 439.566C82.895 442.202 78.9033 443.557 74.4355 443.631C71.3594 443.631 67.9902 442.056 64.3281 438.906C60.7393 435.757 58.3223 432.278 57.0771 428.469C56.2715 426.052 55.0996 422.464 53.5615 417.703C52.0234 412.942 50.8516 409.39 50.0459 407.046C48.9473 403.823 47.2627 401.809 44.9922 401.004C41.8428 399.832 39.3892 399.942 37.6313 401.333C35.9468 402.652 35.4707 404.959 36.2031 408.255C36.7891 411.111 37.7412 415.176 39.0596 420.449C40.4512 425.65 41.4033 429.385 41.916 431.655C44.04 440.884 41.7329 448.648 34.9946 454.946C32.2847 457.437 29.4282 458.389 26.4253 457.803C23.4224 457.217 21.1152 455.239 19.5039 451.87C17.9658 448.574 17.0503 445.315 16.7573 442.092C16.4644 436.087 16.4277 431.509 16.6475 428.36C16.8672 425.21 17.3066 420.669 17.9658 414.737C18.6982 408.731 19.1377 404.153 19.2842 401.004C19.7969 392.068 18.918 382.473 16.6475 372.219C15.6221 367.678 15.2559 363.65 15.5488 360.134C15.7686 356.399 17.4165 353.946 20.4927 352.774C24.0815 351.309 27.3042 351.748 30.1606 354.092C34.3354 357.388 36.4229 362.259 36.4229 368.704C36.4229 372.366 37.6313 374.453 40.0483 374.966C43.7837 375.772 46.7134 374.929 48.8374 372.439C50.5952 370.315 51.9502 367.642 52.9023 364.419C54.2207 360.244 56.6743 356.729 60.2632 353.872C63.8521 351.016 67.6606 349.551 71.689 349.478C75.937 349.405 79.6357 350.613 82.7852 353.103C86.0078 355.593 88.3516 359.109 89.8164 363.65Z" stroke="#DAFF70" stroke-width="1.5"/>
<path d="M168.766 475.369C173.307 480.862 175.395 488.553 175.028 498.44C174.735 508.328 172.135 516.128 167.228 521.841C163.419 526.236 159.684 528.872 156.022 529.751C152.36 530.63 147.819 529.934 142.399 527.664C137.565 525.613 132.951 522.207 128.556 517.447C122.624 510.855 116.398 502.102 109.879 491.189C108.927 489.578 107.792 488.26 106.474 487.234C106.4 487.161 106.217 487.051 105.924 486.905C105.705 486.685 105.521 486.538 105.375 486.465C105.229 486.319 105.009 486.172 104.716 486.026C104.496 485.806 104.313 485.66 104.167 485.586C104.02 485.513 103.8 485.44 103.507 485.367C103.288 485.22 103.104 485.147 102.958 485.147C102.812 485.074 102.592 485.037 102.299 485.037C102.079 484.964 101.859 484.964 101.64 485.037C101.493 485.037 101.31 485.11 101.09 485.257C100.871 485.33 100.651 485.44 100.431 485.586C98.6733 486.905 98.4536 489.065 99.772 492.068C105.045 504.446 108.524 513.638 110.209 519.644C112.919 529.312 112.699 537.222 109.55 543.374C107.719 547.256 105.155 548.868 101.859 548.208C98.0508 547.476 95.8901 544.986 95.3774 540.738V532.937C95.4507 530.74 95.3774 528.433 95.1577 526.016C94.938 523.526 94.7183 521.438 94.4985 519.754C94.2788 518.069 93.8394 515.762 93.1802 512.832C92.521 509.903 92.0449 507.889 91.752 506.79C91.459 505.691 90.8364 503.421 89.8843 499.978C88.9321 496.463 88.3462 494.375 88.1265 493.716C85.3433 483.389 83.6221 473.172 82.9629 463.064C82.6699 458.45 83.2925 454.532 84.8306 451.309C86.4419 448.086 88.6025 445.779 91.3125 444.388C94.0225 442.996 97.0986 442.41 100.541 442.63C104.057 442.776 107.609 443.802 111.198 445.706C121.085 450.979 127.604 457.022 130.753 463.833C133.976 470.572 134.635 479.69 132.731 491.189C131.486 499.173 133.683 503.567 139.323 504.373C142.033 504.739 144.303 503.714 146.134 501.297C148.771 497.781 151.298 492.215 153.715 484.598C154.96 480.789 156.498 477.749 158.329 475.479C161.698 471.158 165.177 471.121 168.766 475.369ZM77.4697 481.192C77.1035 486.758 77.1401 491.629 77.5796 495.804C78.0923 499.978 79.4106 503.97 81.5347 507.779C85.3433 514.81 86.7349 522.72 85.7095 531.509C85.4165 534.292 84.1714 536.783 81.9741 538.98C79.7769 541.104 77.3232 542.312 74.6133 542.605C71.9033 542.898 69.4131 542.276 67.1426 540.738C64.8721 539.126 63.2607 536.856 62.3086 533.926C60.3311 527.994 59.4888 520.706 59.7817 512.063C59.7817 511.258 59.7817 510.049 59.7817 508.438C59.7817 506.827 59.7451 505.581 59.6719 504.703C59.6719 503.824 59.5986 502.762 59.4521 501.516C59.3789 500.271 59.1958 499.136 58.9028 498.111C57.5845 492.911 54.6548 489.981 50.1138 489.322C46.2319 488.662 43.229 490.42 41.105 494.595C38.981 498.77 39.457 502.762 42.5332 506.57C42.9727 507.083 44.2178 508.511 46.2686 510.855C48.3926 513.125 49.9307 514.956 50.8828 516.348C54.6914 521.988 54.8745 527.957 51.4321 534.256C47.9897 540.335 43.3022 543.228 37.3696 542.935C31.0708 542.642 26.3833 538.98 23.3071 531.949C18.4731 520.669 20.231 508.731 28.5806 496.133C36.8569 483.755 42.6431 470.242 45.939 455.594C47.6968 447.903 52.1279 443.582 59.2324 442.63C62.8213 442.19 66.3003 443.509 69.6694 446.585C73.1118 449.661 75.4922 453.616 76.8105 458.45C77.1768 459.915 77.4697 461.38 77.6895 462.845C77.9092 464.236 78.019 465.884 78.019 467.788C78.019 469.62 78.019 471.011 78.019 471.963C78.019 472.842 77.9092 474.49 77.6895 476.907C77.543 479.251 77.4697 480.679 77.4697 481.192ZM56.9253 472.183C59.562 472.036 62.0156 470.645 64.2861 468.008C66.5566 465.298 67.6553 462.625 67.582 459.988C67.582 457.058 66.3735 455.081 63.9565 454.056C62.1255 453.25 60.2578 453.946 58.3535 456.143C55.1309 459.659 53.5928 463.504 53.7393 467.679C53.8125 467.825 53.8491 468.265 53.8491 468.997C53.9224 469.656 53.9956 470.205 54.0688 470.645C54.2153 471.011 54.5083 471.377 54.9478 471.744C55.4604 472.11 56.1196 472.256 56.9253 472.183Z" stroke="#DAFF70" stroke-width="1.5"/>
<path d="M173.16 326.945C176.749 333.244 177.811 340.019 176.346 347.27C174.955 354.448 171.402 360.087 165.69 364.189C160.929 367.558 155.472 368.547 149.32 367.155C146.097 366.423 143.937 364.628 142.838 361.772C141.813 358.842 142.215 356.022 144.047 353.312C146.097 350.09 149.21 347.306 153.385 344.963C157.34 342.765 159.318 339.25 159.318 334.416C159.318 334.269 159.318 334.013 159.318 333.647C159.318 333.281 159.318 333.024 159.318 332.878C159.318 332.658 159.281 332.365 159.208 331.999C159.208 331.633 159.171 331.376 159.098 331.23C159.025 331.01 158.915 330.79 158.768 330.571C158.695 330.351 158.548 330.168 158.329 330.021C158.109 329.875 157.853 329.765 157.56 329.692C155.655 329.106 153.934 329.985 152.396 332.328C148.514 338.7 142.435 341.52 134.159 340.788C129.911 340.422 126.249 338.664 123.172 335.514C120.17 332.292 118.302 328.227 117.569 323.32C116.471 315.995 116.837 308.451 118.668 300.688C123.282 287.504 129.654 277.031 137.784 269.267C142.106 265.239 147.379 263.993 153.605 265.532C159.903 267.07 164.628 270.695 167.777 276.408C171.073 282.341 172.098 288.676 170.853 295.414C169.462 302.885 169.205 310.502 170.084 318.266C170.377 320.903 171.402 323.796 173.16 326.945ZM140.86 308.818C141.959 308.085 143.973 304.313 146.903 297.502C149.906 290.69 151.078 286.772 150.419 285.746C149.54 286.479 148.917 287.065 148.551 287.504C145.841 290.654 142.728 295.964 139.213 303.434C137.967 306.071 138.517 307.865 140.86 308.818Z" stroke="#DAFF70" stroke-width="1.5"/>
<path d="M104.386 286.625C111.71 296.44 114.054 307.975 111.417 321.232C107.682 340.934 99.735 355.949 87.5768 366.276C82.7428 370.304 77.9088 371.952 73.0748 371.22C68.9733 370.634 65.8971 369.279 63.8463 367.155C61.7955 364.958 60.6237 361.808 60.3307 357.707C60.0377 353.898 60.0377 347.013 60.3307 337.052C60.6237 327.092 60.4039 320.207 59.6715 316.398C58.5729 308.268 55.8629 302.592 51.5416 299.369C50.8824 299.662 50.3331 300.065 49.8937 300.578C49.4542 301.017 49.1246 301.42 48.9049 301.786C48.7584 302.079 48.6119 302.592 48.4655 303.324C48.3922 304.057 48.3556 304.533 48.3556 304.753C48.3556 304.899 48.3556 305.412 48.3556 306.291C48.4288 310.612 49.1613 316.801 50.5529 324.858C52.0177 332.841 52.8234 337.419 52.9698 338.591C53.4093 342.619 53.2994 346.281 52.6403 349.577C51.8346 353.312 50.1866 356.352 47.6964 358.696C45.2794 361.039 42.4962 362.175 39.3468 362.101C35.3917 361.955 32.0958 360.746 29.4591 358.476C26.8956 356.205 25.6505 353.129 25.7238 349.247C26.0167 340.605 26.0533 332.768 25.8336 325.737C25.6871 318.632 25.8336 310.759 26.2731 302.116C26.7858 293.473 27.7745 285.673 29.2394 278.715C30.4113 273.002 32.5353 268.681 35.6115 265.751C38.6876 262.822 42.4596 261.393 46.9274 261.467C51.3951 261.54 55.1671 262.895 58.2433 265.531C61.3195 268.095 64.1027 271.647 66.5929 276.188C73.6974 289.225 76.7736 302.995 75.8214 317.497C75.5284 321.598 76.5905 325.224 79.0074 328.373C79.3737 320.829 79.5568 316.984 79.5568 316.838C79.5568 315.446 79.5568 313.432 79.5568 310.795C79.5568 308.085 79.5568 305.888 79.5568 304.203C79.5568 302.519 79.63 300.541 79.7765 298.271C79.923 295.927 80.1793 293.803 80.5455 291.899C81.5709 285.966 84.5372 282.487 89.4445 281.462C95.7433 280.07 100.724 281.791 104.386 286.625Z" stroke="#DAFF70" stroke-width="1.5"/>
<path d="M307.366 218.927C304.437 229.034 305.096 241.632 309.344 256.72C310.735 261.554 310.186 265.546 307.696 268.695C305.279 271.771 301.653 273.163 296.819 272.87C292.645 272.65 289.861 270.343 288.47 265.948C287.737 263.605 287.188 261.224 286.822 258.807C286.529 256.317 286.272 253.277 286.053 249.689C285.833 246.1 285.65 243.683 285.503 242.438C285.137 238.409 284.368 235.15 283.196 232.66C281.072 227.679 278.179 225.519 274.517 226.178C273.345 226.398 272.43 226.874 271.771 227.606C271.185 228.265 270.818 228.924 270.672 229.584C270.599 230.17 270.525 231.122 270.452 232.44C270.452 233.685 270.416 234.527 270.342 234.967C270.562 238.043 270.892 242.511 271.331 248.37C271.844 254.23 272.21 258.551 272.43 261.334C272.942 267.999 271.844 273.749 269.134 278.583C266.863 282.757 263.274 285.211 258.367 285.943C253.533 286.749 249.542 285.541 246.392 282.318C243.609 279.462 242.95 275.653 244.415 270.892C248.15 257.855 249.615 246.576 248.809 237.054C248.37 231.781 247.417 223.944 245.953 213.544C245.293 208.636 245.696 203.766 247.161 198.932C248.113 195.636 249.834 193.512 252.325 192.56C254.888 191.608 257.818 191.937 261.114 193.548C262.725 194.354 264.3 195.38 265.838 196.625C267.449 197.87 268.731 199.005 269.683 200.03C270.635 200.983 271.917 202.411 273.528 204.315C275.14 206.146 276.312 207.428 277.044 208.16C280.853 212.189 283.16 214.569 283.965 215.301C286.675 217.938 289.202 217.389 291.546 213.653C291.912 213.068 292.205 212.372 292.425 211.566C292.645 210.76 292.791 210.101 292.864 209.589C293.011 209.003 293.121 208.234 293.194 207.281C293.34 206.329 293.45 205.633 293.523 205.194C293.67 203.949 293.78 203.07 293.853 202.557C294 201.971 294.256 201.239 294.622 200.36C294.988 199.481 295.538 198.859 296.27 198.492C297.002 198.053 297.918 197.833 299.017 197.833C303.265 197.76 306.048 199.994 307.366 204.535C308.685 209.442 308.685 214.239 307.366 218.927ZM336.59 244.635C339.153 249.249 339.739 253.863 338.348 258.478C337.469 261.554 335.821 263.422 333.404 264.081C330.987 264.74 328.826 263.824 326.922 261.334C317.84 249.103 313.958 237.53 315.276 226.617C317.034 212.115 318.06 204.132 318.353 202.667C319.671 194.977 323.333 191.644 329.339 192.67C331.463 193.036 333.074 194.354 334.173 196.625C336.004 200.36 336.81 204.205 336.59 208.16C336.663 212.042 336.004 216.62 334.612 221.893C332.342 230.463 333.001 238.043 336.59 244.635ZM321.209 187.836C319.964 187.469 319.268 186.7 319.122 185.528C318.975 184.357 319.305 183.295 320.11 182.342C323.406 178.387 327.398 176.08 332.085 175.421C334.942 175.275 336.663 176.446 337.249 178.937C338.348 182.818 337.103 185.712 333.514 187.616C330.584 189.227 326.482 189.3 321.209 187.836Z" stroke="#DAFF70" stroke-width="1.5"/>
<path d="M234.527 194.427C241.851 204.242 244.195 215.814 241.558 229.144C237.823 248.92 229.876 263.971 217.718 274.298C212.811 278.4 207.94 280.084 203.106 279.352C199.004 278.766 195.928 277.411 193.877 275.287C191.827 273.089 190.655 269.903 190.362 265.729C190.069 261.847 190.069 254.962 190.362 245.074C190.655 235.113 190.435 228.192 189.703 224.31C188.604 216.18 185.857 210.467 181.463 207.172C180.804 207.464 180.254 207.867 179.815 208.38C179.375 208.819 179.046 209.222 178.826 209.589C178.68 209.881 178.533 210.394 178.387 211.127C178.313 211.859 178.277 212.335 178.277 212.555C178.277 212.701 178.277 213.214 178.277 214.093C178.35 218.414 179.083 224.603 180.474 232.66C181.939 240.716 182.745 245.367 182.891 246.612C183.331 250.568 183.221 254.23 182.562 257.599C181.756 261.407 180.108 264.484 177.618 266.827C175.201 269.098 172.417 270.196 169.268 270.123C165.24 269.977 161.907 268.768 159.271 266.498C156.707 264.227 155.462 261.151 155.535 257.269C155.828 248.627 155.865 240.753 155.645 233.649C155.499 226.471 155.645 218.561 156.084 209.918C156.597 201.276 157.586 193.439 159.051 186.407C160.223 180.694 162.347 176.373 165.423 173.443C168.572 170.441 172.381 168.976 176.849 169.049C184.759 169.122 191.351 174.066 196.624 183.881C203.802 196.844 206.878 210.687 205.853 225.409C205.56 229.364 206.658 232.989 209.148 236.285C209.441 230.133 209.588 226.288 209.588 224.75C209.588 222.772 209.588 220.685 209.588 218.487C209.588 216.29 209.588 214.203 209.588 212.225C209.661 210.248 209.771 208.16 209.917 205.963C210.064 203.766 210.32 201.678 210.687 199.701C211.712 193.695 214.678 190.179 219.585 189.154C225.958 187.762 230.938 189.52 234.527 194.427ZM150.701 185.748C150.774 185.748 150.774 188.092 150.701 192.779V199.811C152.02 222.662 150.811 241.229 147.076 255.511C147.076 255.658 146.893 256.317 146.526 257.489C146.233 258.661 146.05 259.357 145.977 259.576C145.904 259.796 145.684 260.419 145.318 261.444C145.025 262.469 144.769 263.129 144.549 263.422C144.329 263.714 143.963 264.227 143.45 264.96C143.011 265.692 142.571 266.241 142.132 266.608C141.692 266.974 141.106 267.377 140.374 267.816C139.715 268.182 138.982 268.512 138.177 268.805C135.32 269.757 132.793 269.574 130.596 268.256C128.472 266.864 127.337 264.703 127.19 261.774C126.897 256.354 127.447 250.128 128.838 243.097C130.816 232.843 129.534 221.161 124.993 208.05C124.847 207.684 124.554 206.879 124.114 205.633C123.675 204.388 123.382 203.546 123.235 203.107C123.089 202.594 122.796 201.788 122.356 200.69C121.99 199.518 121.734 198.639 121.587 198.053C121.441 197.394 121.221 196.551 120.928 195.526C120.708 194.501 120.562 193.622 120.489 192.889C120.416 192.084 120.306 191.205 120.159 190.253C120.086 189.3 120.049 188.385 120.049 187.506C120.123 186.627 120.232 185.748 120.379 184.869C120.892 181.28 122.979 178.094 126.641 175.311C130.376 172.455 134.222 171.136 138.177 171.356C146.16 171.796 150.335 176.593 150.701 185.748ZM134.332 170.038C131.988 170.99 128.472 172.345 123.785 174.103C121.587 175.201 119.317 175.641 116.973 175.421C114.703 175.128 112.908 173.773 111.59 171.356C110.418 169.232 110.381 166.595 111.48 163.446C112.579 160.223 114.3 157.989 116.644 156.744C120.525 154.62 124.151 153.668 127.52 153.888C130.23 153.741 132.684 154.254 134.881 155.426C136.932 156.451 138.506 157.55 139.605 158.722C140.704 159.82 141.216 161.322 141.143 163.226C141.143 164.545 140.74 165.68 139.935 166.632C139.129 167.584 138.36 168.243 137.627 168.61C136.895 168.976 135.796 169.452 134.332 170.038Z" stroke="#DAFF70" stroke-width="1.5"/>
<path d="M106.426 189.703C108.111 198.199 109.173 205.853 109.612 212.665C110.052 219.476 109.502 226.8 107.964 234.637C106.426 242.401 103.68 249.615 99.7246 256.28C96.9414 260.968 93.0962 264.52 88.189 266.937C84.2339 268.915 80.4619 269.281 76.873 268.036C73.2842 266.717 70.6108 264.044 68.853 260.016C68.1206 258.404 67.2051 256.097 66.1064 253.094C65.0078 250.018 64.2388 247.931 63.7993 246.832C63.7261 246.612 63.543 246.21 63.25 245.624C63.0303 244.964 62.8472 244.525 62.7007 244.305C62.6274 244.012 62.4443 243.61 62.1514 243.097C61.9316 242.511 61.6753 242.108 61.3823 241.888C61.1626 241.669 60.8696 241.412 60.5034 241.119C60.1372 240.753 59.7344 240.497 59.2949 240.35C58.8555 240.204 58.3794 240.094 57.8667 240.021C53.9849 239.728 50.8721 241.559 48.5283 245.514C47.5029 247.198 46.7705 249.982 46.3311 253.863C45.5986 260.528 42.6323 266.095 37.4321 270.563C33.3306 274.152 29.1558 275.287 24.9077 273.968C20.6597 272.577 17.6934 269.208 16.0088 263.861C14.1777 258.221 13.8848 252.985 15.1299 248.151C16.1553 244.049 16.7412 239.911 16.8877 235.736C17.0342 231.561 16.668 227.203 15.7891 222.662C14.9102 218.048 14.0312 214.203 13.1523 211.127C12.3467 207.977 11.1382 203.802 9.52686 198.602C7.62256 192.743 7.03662 188.202 7.76904 184.979C8.57471 181.756 11.1382 178.607 15.4595 175.531C21.2456 171.356 26.812 170.734 32.1587 173.663C34.7222 175.128 36.4067 177.032 37.2124 179.376C38.0913 181.72 38.5674 184.686 38.6406 188.275C38.7139 191.058 38.311 196.185 37.4321 203.656C36.6265 211.127 36.5166 216.913 37.1025 221.014C37.3955 223.138 38.4209 225.043 40.1787 226.727C41.0576 225.262 41.79 224.09 42.376 223.212C42.9619 222.333 43.731 221.307 44.6831 220.135C45.6353 218.89 46.5508 217.975 47.4297 217.389C48.3818 216.803 49.4438 216.29 50.6157 215.851C51.7876 215.338 53.0693 215.155 54.4609 215.301C55.8525 215.375 57.354 215.704 58.9653 216.29C61.5288 217.242 63.543 218.78 65.0078 220.904C66.5459 223.028 67.9375 225.592 69.1826 228.595C70.501 231.598 71.7461 233.832 72.918 235.297C73.2842 235.004 73.6138 234.711 73.9067 234.418C74.1997 234.051 74.4561 233.685 74.6758 233.319C74.8955 232.88 75.0786 232.513 75.2251 232.22C75.3716 231.927 75.4814 231.525 75.5547 231.012C75.7012 230.499 75.7744 230.133 75.7744 229.913C75.8477 229.693 75.9209 229.291 75.9941 228.705C76.1406 228.046 76.2139 227.643 76.2139 227.496C76.4336 226.251 76.873 223.065 77.5322 217.938C78.2646 212.738 78.814 209.039 79.1802 206.842C79.6196 204.645 80.4253 201.678 81.5972 197.943C82.769 194.208 84.1973 190.912 85.8818 188.055C88.7383 183.002 92.2539 180.658 96.4287 181.024C99.0654 181.244 101.263 182.159 103.021 183.771C104.778 185.309 105.914 187.286 106.426 189.703Z" stroke="#DAFF70" stroke-width="1.5"/>
<path d="M178.214 127.775C180.631 129.093 182.572 130.998 184.037 133.488C185.502 135.905 186.088 138.322 185.795 140.739C185.575 142.423 184.916 143.852 183.817 145.023C182.792 146.122 181.73 146.928 180.631 147.44C179.606 147.88 178.178 148.356 176.347 148.869C171 150.407 166.935 150.993 164.152 150.626C153.971 150.114 146.208 149.125 140.861 147.66C138.517 147.001 135.99 146.635 133.28 146.562C130.57 146.415 128.19 146.452 126.139 146.671C124.162 146.891 121.635 147.221 118.559 147.66C115.482 148.026 113.102 148.283 111.417 148.429C103.507 149.088 98.8198 147.184 97.355 142.716C96.1099 138.981 96.3662 135.795 98.124 133.158C99.8818 130.521 102.885 128.8 107.133 127.995C108.451 127.775 109.843 127.665 111.308 127.665C112.772 127.665 114.42 127.738 116.251 127.885C118.083 127.958 119.474 127.995 120.426 127.995C134.855 127.995 148.368 127.226 160.966 125.688C168.144 124.735 173.893 125.431 178.214 127.775Z" stroke="#DAFF70" stroke-width="1.5"/>
<path d="M81.4242 116.788C90.7992 123.6 95.4867 133.304 95.4867 145.902C94.9008 158.426 87.6498 170.511 73.7338 182.157C65.8969 188.749 57.8036 193.107 49.454 195.231C40.5184 197.428 33.4506 196.256 28.2504 191.715C23.0502 187.174 20.8163 180.289 21.5487 171.061C21.7684 168.57 22.6107 162.931 24.0756 154.142C25.6137 145.279 26.1996 138.358 25.8334 133.378C25.5404 128.91 24.1854 118.143 21.7684 101.078C21.1825 97.0495 21.4389 94.0832 22.5375 92.1789C23.7094 90.2013 26.0897 87.9308 29.6786 85.3674C33.8534 82.4377 38.724 83.2067 44.2904 87.6745C62.9672 102.689 75.3451 112.394 81.4242 116.788ZM58.1332 156.998C60.0375 154.874 60.3305 152.53 59.0121 149.967C58.5726 149.161 57.4374 147.111 55.6063 143.815C53.8485 140.445 52.4935 137.699 51.5414 135.575C50.5892 133.378 49.7836 131.107 49.1244 128.763C49.7836 130.887 49.8568 134.879 49.3441 140.738C48.8314 146.525 48.6483 150.443 48.7948 152.494C49.0145 155.424 50.4061 157.291 52.9696 158.097C55.1669 158.829 56.8881 158.463 58.1332 156.998Z" stroke="#DAFF70" stroke-width="1.5"/>
<path d="M314.781 78.5029C320.127 85.3877 322.544 91.5034 322.032 96.8501C321.519 102.636 319.102 106.408 314.781 108.166C309.288 110.51 303.904 109.741 298.631 105.859C297.752 105.2 296.91 104.504 296.104 103.771C295.372 103.039 294.712 102.197 294.126 101.245C293.541 100.292 293.028 99.4868 292.588 98.8276C292.149 98.1685 291.71 97.2163 291.27 95.9712C290.904 94.7261 290.611 93.8472 290.391 93.3345C290.171 92.7485 289.915 91.6865 289.622 90.1484C289.402 88.6104 289.256 87.6582 289.183 87.292C289.109 86.9258 288.926 85.8638 288.633 84.106C288.414 82.3481 288.304 81.3594 288.304 81.1396C287.132 72.7168 285.411 66.7842 283.14 63.3418C281.163 60.1924 278.526 59.0205 275.23 59.8262C274.058 60.1191 273.179 60.6318 272.593 61.3643C272.081 62.0967 271.824 62.939 271.824 63.8911C271.824 64.77 271.861 65.7222 271.934 66.7476C272.154 69.5308 272.996 73.6323 274.461 79.0522C275.999 84.4722 276.878 88.6104 277.098 91.4668C277.464 96.0078 277.391 99.9629 276.878 103.332C276.439 106.701 275.193 109.851 273.143 112.78C271.458 115.271 269.334 116.992 266.771 117.944C264.28 118.896 261.68 119.006 258.97 118.273C254.502 117.102 251.792 113.33 250.84 106.958C250.621 105.346 250.474 103.735 250.401 102.124C250.328 100.512 250.364 98.7544 250.511 96.8501C250.73 94.8726 250.877 93.3345 250.95 92.2358C251.097 91.1372 251.353 89.3794 251.719 86.9624C252.085 84.4722 252.305 82.8608 252.378 82.1284C254.283 67.5532 252.305 51.5132 246.446 34.0083C242.71 22.9487 244.505 13.7202 251.829 6.32275C252.781 5.29736 253.917 4.52832 255.235 4.01562C256.626 3.42969 257.725 3.06348 258.531 2.91699C259.41 2.77051 260.691 2.66064 262.376 2.5874C264.134 2.51416 265.159 2.47754 265.452 2.47754C272.996 2.55078 279.368 3.13672 284.568 4.23535C289.842 5.26074 294.676 7.45801 299.07 10.8271C303.172 13.9033 306.248 18.2246 308.299 23.791C310.35 29.2842 310.752 34.2646 309.507 38.7324C308.628 42.0283 306.175 44.9946 302.147 47.6313C299.803 49.1694 298.375 50.7808 297.862 52.4653C297.422 54.0767 297.972 56.0542 299.51 58.3979C301.341 61.1079 304.197 64.9897 308.079 70.0435C312.034 75.0239 314.268 77.8438 314.781 78.5029ZM274.131 38.7324C276.548 39.5381 278.27 38.6592 279.295 36.0957C280.32 33.5322 279.148 30.6025 275.779 27.3066C272.483 24.0107 269.151 22.3994 265.782 22.4727C264.756 22.4727 263.987 22.729 263.475 23.2417C262.962 23.6812 262.742 24.377 262.815 25.3291C262.815 28.1855 263.914 30.8955 266.111 33.459C268.309 36.0225 270.982 37.7803 274.131 38.7324Z" stroke="#DAFF70" stroke-width="1.5"/>
<path d="M188.877 18.2979C188.365 21.1543 187.376 24.1938 185.911 27.4165C184.52 30.5659 183.274 33.0195 182.176 34.7773C181.077 36.4619 179.356 39.062 177.012 42.5776C162.657 63.8911 155.479 84.9482 155.479 105.749C155.479 109.411 154.234 111.682 151.744 112.561C149.107 113.513 146.324 112.67 143.394 110.034C142.002 108.789 140.904 107.287 140.098 105.529C139.292 103.698 138.78 102.16 138.56 100.915C138.414 99.5967 138.267 97.7656 138.121 95.4219C137.974 93.0049 137.828 91.3203 137.681 90.3682C137.022 85.3877 135.667 81.4692 133.616 78.6128C131.346 75.5366 128.929 75.4634 126.365 78.3931C125.267 79.6382 124.461 81.0664 123.948 82.6777C123.509 84.2891 123.252 85.5708 123.179 86.5229C123.179 87.4019 123.289 89.0498 123.509 91.4668C123.729 93.8105 123.838 95.2021 123.838 95.6416C124.058 101.501 124.131 104.797 124.058 105.529C123.765 109.484 122.483 112.158 120.213 113.549C117.942 114.941 114.866 115.014 110.984 113.769C109.739 113.403 108.531 112.927 107.359 112.341C106.26 111.755 105.235 111.206 104.283 110.693C103.404 110.18 102.452 109.448 101.426 108.496C100.401 107.543 99.5586 106.811 98.8994 106.298C98.3135 105.786 97.5078 104.907 96.4824 103.662C95.5303 102.343 94.8345 101.464 94.395 101.025C94.0288 100.512 93.3696 99.4868 92.4175 97.9487C91.4653 96.4106 90.8428 95.4585 90.5498 95.0923C90.3301 94.7261 89.7075 93.7007 88.6821 92.0161C87.6567 90.2583 87.0708 89.2695 86.9243 89.0498C83.9946 84.1426 81.9438 79.0522 80.772 73.7788C79.6733 68.5054 79.0874 61.6206 79.0142 53.1245C78.6479 44.2622 80.5889 35.7661 84.8369 27.6362C86.0088 25.3657 87.4736 23.4248 89.2314 21.8135C91.1357 19.9824 93.0767 18.9204 95.0542 18.6274C97.105 18.3345 98.936 18.8105 100.547 20.0557C102.159 21.2275 103.367 23.0586 104.173 25.5488C106.59 33.3125 105.564 42.6875 101.097 53.6738C98.7529 59.3867 97.4712 63.5249 97.2515 66.0884C97.105 67.8462 97.2148 69.5674 97.581 71.252C97.8008 72.4238 97.9839 73.3394 98.1304 73.9985C98.3501 74.5845 98.7529 75.2437 99.3389 75.9761C99.9248 76.6353 100.694 77.0747 101.646 77.2944C102.012 77.5874 102.452 77.624 102.964 77.4043C103.477 77.1113 103.843 76.9648 104.063 76.9648C104.283 76.9648 104.576 76.7451 104.942 76.3057C105.308 75.793 105.528 75.4634 105.601 75.3169C105.748 75.1704 105.967 74.8408 106.26 74.3281C106.626 73.7422 106.846 73.376 106.919 73.2295C108.238 71.1055 109.19 69.604 109.776 68.7251C110.362 67.7729 111.277 66.5278 112.522 64.9897C113.841 63.4517 115.196 62.2432 116.587 61.3643C117.979 60.4854 119.554 59.7896 121.312 59.2769C125.413 58.105 129.002 58.3247 132.078 59.936C135.154 61.6206 137.754 60.8882 139.878 57.7388C147.789 45.8735 153.318 35.876 156.468 27.7461C160.643 16.833 167.051 9.91162 175.694 6.98194C179.869 5.51709 183.274 5.95654 185.911 8.30029C188.621 10.5708 189.61 13.9033 188.877 18.2979ZM238.755 73.0098C242.93 80.5537 244.432 89.0132 243.26 98.3882C242.894 101.391 241.502 104.028 239.085 106.298C236.741 108.569 234.141 109.851 231.285 110.144C228.355 110.437 225.682 109.741 223.265 108.056C220.921 106.372 219.236 103.991 218.211 100.915C216.087 94.6895 215.171 86.8892 215.464 77.5142C215.391 75.5366 215.354 73.7788 215.354 72.2407C215.428 70.7026 215.391 69.0913 215.245 67.4067C215.171 65.6489 214.952 64.0742 214.585 62.6826C213.267 57.2627 210.118 54.1499 205.137 53.3442C200.962 52.6851 197.74 54.5527 195.469 58.9473C193.199 63.415 193.748 67.6631 197.117 71.6914C197.703 72.4238 198.655 73.5225 199.974 74.9873C201.292 76.3789 202.427 77.6606 203.379 78.8325C204.332 80.0044 205.174 81.1396 205.906 82.2383C210.081 88.2441 210.337 94.5796 206.675 101.245C203.16 107.69 198.106 110.766 191.514 110.473C184.703 110.107 179.722 106.225 176.573 98.8276C171.373 86.9624 173.24 74.2183 182.176 60.5952C191.038 47.1919 197.227 32.7632 200.743 17.3091C202.647 9.03272 207.371 4.41846 214.915 3.46631C218.724 2.95361 222.459 4.38184 226.121 7.75098C229.783 11.0469 232.31 15.2583 233.702 20.3853C234.141 21.9233 234.471 23.498 234.69 25.1094C234.91 26.6475 235.02 28.3687 235.02 30.273C235.02 32.104 234.983 33.6055 234.91 34.7773C234.91 35.876 234.837 37.5972 234.69 39.9409C234.544 42.2847 234.434 43.8594 234.361 44.665C233.995 50.5977 234.068 55.7979 234.581 60.2656C235.093 64.6602 236.485 68.9082 238.755 73.0098ZM212.498 34.9971C215.281 34.8506 217.881 33.3491 220.298 30.4927C222.789 27.6362 223.997 24.7798 223.924 21.9233C223.924 18.8472 222.605 16.7598 219.969 15.6611C217.991 14.7822 215.977 15.5147 213.926 17.8584C210.557 21.5205 208.946 25.6221 209.092 30.1631C209.092 30.3096 209.129 30.749 209.202 31.4814C209.349 32.2139 209.458 32.7998 209.532 33.2393C209.678 33.6787 210.008 34.1182 210.521 34.5576C211.033 34.9238 211.692 35.0703 212.498 34.9971Z" stroke="#DAFF70" stroke-width="1.5"/>
<path d="M77.6963 86.9624C78.2823 91.6499 77.5865 95.605 75.6089 98.8276C73.7046 102.05 70.8482 104.028 67.0396 104.76C64.1099 105.346 61.2901 104.833 58.5801 103.222C55.9434 101.538 54.149 99.1938 53.1968 96.1909C52.4644 94.0669 51.9151 91.3936 51.5489 88.1709C51.4756 87.585 51.439 84.8384 51.439 79.9312C51.3658 77.5142 51.4756 74.2183 51.7686 70.0435C52.1348 65.8687 52.3545 62.5728 52.4278 60.1558C52.501 57.7388 52.2813 54.4429 51.7686 50.2681C50.8164 45.2144 48.5459 42.0649 44.9571 40.8198C41.295 39.5747 38.9878 40.6367 38.0357 44.0059C37.6695 45.1777 37.23 46.9355 36.7173 49.2793C36.2779 51.5498 35.875 53.4175 35.5088 54.8823C35.1426 56.2739 34.5201 57.8853 33.6412 59.7163C32.7622 61.4741 31.7369 63.0488 30.565 64.4404C28.6607 66.5645 26.9029 69.2744 25.2915 72.5703C24.4859 74.1816 24.083 75.8662 24.083 77.624C24.083 79.3818 24.2662 80.8467 24.6324 82.0186C25.0718 83.1172 25.731 84.6553 26.6099 86.6328C27.4888 88.5371 28.0747 89.9287 28.3677 90.8076C30.6382 97.2529 30.0523 102.124 26.6099 105.419C22.3619 109.448 17.418 110.327 11.7784 108.056C6.06547 105.786 2.9893 101.318 2.54985 94.6528C2.11039 87.2554 4.27104 80.6636 9.03178 74.8774C14.9644 67.6997 19.3589 59.7529 22.2154 51.0371C25.1451 42.248 27.2325 32.3237 28.4776 21.2642C28.6241 19.5796 29.2832 17.2725 30.4551 14.3428C32.6524 8.4834 36.2046 5.29736 41.1119 4.78467C46.605 4.27197 50.9263 6.83545 54.0757 12.4751C57.6646 18.9204 61.8394 29.5405 66.6001 44.3354C72.7525 62.8657 76.4512 77.0747 77.6963 86.9624ZM41.4414 24.1206C41.6612 22.729 41.8443 19.6895 41.9908 15.002C41.1851 15.1484 40.5259 15.4414 40.0132 15.8809C39.5005 16.3203 39.1709 16.6865 39.0245 16.9795C38.878 17.2725 38.6949 17.8218 38.4751 18.6274C38.2554 19.4331 38.1089 19.9092 38.0357 20.0557C38.0357 20.1289 37.9624 20.3486 37.816 20.7148C37.7427 21.0078 37.6695 21.2275 37.5962 21.374C37.523 21.5205 37.4497 21.7402 37.3765 22.0332C37.3033 22.3262 37.2666 22.5459 37.2666 22.6924C37.2666 22.8389 37.2666 23.0586 37.2666 23.3516C37.3399 23.5713 37.4131 23.7544 37.4864 23.9009C37.6329 24.0474 37.7793 24.2305 37.9258 24.4502C38.1455 24.6699 38.3653 24.853 38.585 24.9995C39.0977 25.439 39.6836 25.5854 40.3428 25.439C41.002 25.2925 41.3682 24.853 41.4414 24.1206Z" stroke="#DAFF70" stroke-width="1.5"/>
</svg>
