<svg width="338" height="547" viewBox="0 0 338 547" fill="none" xmlns="http://www.w3.org/2000/svg">
<path d="M260.521 395.708C261.473 399.443 261.949 404.24 261.949 410.1C261.803 414.201 261.62 417.46 261.4 419.877C261.254 422.294 260.778 425.261 259.972 428.776C259.24 432.219 258.214 435.295 256.896 438.005C254.479 442.912 251.256 445.183 247.228 444.816C245.836 444.67 244.664 444.121 243.712 443.168C242.76 442.216 242.101 441.337 241.735 440.532C241.442 439.653 241.039 438.371 240.526 436.687C240.453 436.54 240.306 436.101 240.087 435.368C239.867 434.562 239.684 433.977 239.537 433.61C239.464 433.537 239.354 433.354 239.208 433.061C239.061 432.695 238.951 432.475 238.878 432.402C238.878 432.255 238.805 432.036 238.658 431.743C238.512 431.45 238.365 431.267 238.219 431.193C238.146 431.047 237.999 430.864 237.78 430.644C237.633 430.424 237.45 430.278 237.23 430.205C237.084 430.131 236.901 430.058 236.681 429.985C236.461 429.838 236.205 429.765 235.912 429.765C235.253 429.692 234.63 429.838 234.044 430.205C233.531 430.498 233.129 430.827 232.836 431.193C232.616 431.486 232.286 431.999 231.847 432.731C228.478 437.712 224.193 440.312 218.993 440.532C213.866 440.751 209.398 438.481 205.59 433.72C204.491 432.329 202.806 430.241 200.536 427.458C198.265 424.602 196.544 422.478 195.372 421.086C193.615 418.889 191.82 418.083 189.989 418.669C188.524 419.182 187.792 420.866 187.792 423.723C187.792 424.455 187.865 426.396 188.011 429.545C188.158 432.622 188.231 434.819 188.231 436.137C188.231 437.456 188.085 439.287 187.792 441.63C187.499 443.974 187.059 446.062 186.473 447.893C185.302 451.408 183.763 454.082 181.859 455.913C180.028 457.67 178.16 458.183 176.256 457.451C171.349 455.62 169.738 451.372 171.422 444.707C176.11 425.883 176.183 403.837 171.642 378.569C170.836 374.028 171.459 370.073 173.51 366.704C175.56 363.334 178.856 360.734 183.397 358.903C186.986 357.438 190.758 357.438 194.713 358.903C198.668 360.295 202.147 362.968 205.15 366.923C210.204 373.588 213.756 380.07 215.807 386.369C216.32 387.688 216.942 389.189 217.675 390.874C219.066 393.95 220.751 395.671 222.728 396.037C224.779 396.33 226.94 395.231 229.21 392.741C229.576 392.375 230.052 391.826 230.638 391.093C231.298 390.288 231.884 389.592 232.396 389.006C232.982 388.42 233.568 387.907 234.154 387.468C239.208 383 244.445 381.645 249.865 383.403C255.284 385.087 258.837 389.189 260.521 395.708Z" fill="white" fill-opacity="0.15"/>
<path d="M164.171 373.405C166.442 377.36 167.907 381.535 168.566 385.93C169.225 390.324 169.628 396.037 169.774 403.068C169.921 422.478 162.67 437.968 148.021 449.541C141.723 454.594 134.472 457.231 126.268 457.451C118.065 457.67 110.778 455.51 104.406 450.969C98.8392 447.087 96.349 441.044 96.9349 432.841C97.4476 425.517 97.3011 415.153 96.4955 401.75C95.6898 388.274 95.3236 378.752 95.3969 373.186C95.5433 364.104 99.2054 357.768 106.383 354.179C111.071 351.836 115.429 352.019 119.457 354.729C123.485 357.365 125.756 361.613 126.268 367.473C126.561 368.645 126.561 370.293 126.268 372.417C126.049 374.541 125.866 376.189 125.719 377.36C125.646 378.459 125.316 380.034 124.73 382.085C124.218 384.135 123.778 385.71 123.412 386.809C123.119 387.834 122.643 389.372 121.984 391.423C121.325 393.4 120.812 394.939 120.446 396.037C120.226 396.843 119.054 400.432 116.93 406.804C114.879 413.103 113.488 417.937 112.755 421.306C110.778 430.241 113.231 436.284 120.116 439.433C123.119 440.752 126.305 440.861 129.674 439.763C133.117 438.664 136.303 436.54 139.232 433.391C141.283 431.193 142.711 428.667 143.517 425.81C144.323 422.88 144.689 420.317 144.616 418.12C144.542 415.922 144.249 413.103 143.737 409.66C141.759 395.598 140.917 385.271 141.21 378.679C141.576 371.135 143.993 366.777 148.461 365.605C151.244 364.873 154.137 365.275 157.14 366.814C160.143 368.278 162.487 370.476 164.171 373.405Z" fill="white" fill-opacity="0.15"/>
<path d="M87.8164 361.65C95.2139 384.428 96.3857 406.108 91.332 426.689C90.2334 431.303 87.9263 434.929 84.4106 437.566C80.895 440.202 76.9033 441.557 72.4355 441.631C69.3594 441.631 65.9902 440.056 62.3281 436.906C58.7393 433.757 56.3223 430.278 55.0771 426.469C54.2715 424.052 53.0996 420.464 51.5615 415.703C50.0234 410.942 48.8516 407.39 48.0459 405.046C46.9473 401.823 45.2627 399.809 42.9922 399.004C39.8428 397.832 37.3892 397.942 35.6313 399.333C33.9468 400.652 33.4707 402.959 34.2031 406.255C34.7891 409.111 35.7412 413.176 37.0596 418.449C38.4512 423.65 39.4033 427.385 39.916 429.655C42.04 438.884 39.7329 446.648 32.9946 452.946C30.2847 455.437 27.4282 456.389 24.4253 455.803C21.4224 455.217 19.1152 453.239 17.5039 449.87C15.9658 446.574 15.0503 443.315 14.7573 440.092C14.4644 434.087 14.4277 429.509 14.6475 426.36C14.8672 423.21 15.3066 418.669 15.9658 412.737C16.6982 406.731 17.1377 402.153 17.2842 399.004C17.7969 390.068 16.918 380.473 14.6475 370.219C13.6221 365.678 13.2559 361.65 13.5488 358.134C13.7686 354.399 15.4165 351.946 18.4927 350.774C22.0815 349.309 25.3042 349.748 28.1606 352.092C32.3354 355.388 34.4229 360.259 34.4229 366.704C34.4229 370.366 35.6313 372.453 38.0483 372.966C41.7837 373.772 44.7134 372.929 46.8374 370.439C48.5952 368.315 49.9502 365.642 50.9023 362.419C52.2207 358.244 54.6743 354.729 58.2632 351.872C61.8521 349.016 65.6606 347.551 69.689 347.478C73.937 347.405 77.6357 348.613 80.7852 351.103C84.0078 353.593 86.3516 357.109 87.8164 361.65Z" fill="#DAFF70" fill-opacity="0.15"/>
<path d="M166.766 473.369C171.307 478.862 173.395 486.553 173.028 496.44C172.735 506.328 170.135 514.128 165.228 519.841C161.419 524.236 157.684 526.872 154.022 527.751C150.36 528.63 145.819 527.934 140.399 525.664C135.565 523.613 130.951 520.207 126.556 515.447C120.624 508.855 114.398 500.102 107.879 489.189C106.927 487.578 105.792 486.26 104.474 485.234C104.4 485.161 104.217 485.051 103.924 484.905C103.705 484.685 103.521 484.538 103.375 484.465C103.229 484.319 103.009 484.172 102.716 484.026C102.496 483.806 102.313 483.66 102.167 483.586C102.02 483.513 101.8 483.44 101.507 483.367C101.288 483.22 101.104 483.147 100.958 483.147C100.812 483.074 100.592 483.037 100.299 483.037C100.079 482.964 99.8594 482.964 99.6396 483.037C99.4932 483.037 99.3101 483.11 99.0903 483.257C98.8706 483.33 98.6509 483.44 98.4312 483.586C96.6733 484.905 96.4536 487.065 97.772 490.068C103.045 502.446 106.524 511.638 108.209 517.644C110.919 527.312 110.699 535.222 107.55 541.374C105.719 545.256 103.155 546.868 99.8594 546.208C96.0508 545.476 93.8901 542.986 93.3774 538.738V530.937C93.4507 528.74 93.3774 526.433 93.1577 524.016C92.938 521.526 92.7183 519.438 92.4985 517.754C92.2788 516.069 91.8394 513.762 91.1802 510.832C90.521 507.903 90.0449 505.889 89.752 504.79C89.459 503.691 88.8364 501.421 87.8843 497.978C86.9321 494.463 86.3462 492.375 86.1265 491.716C83.3433 481.389 81.6221 471.172 80.9629 461.064C80.6699 456.45 81.2925 452.532 82.8306 449.309C84.4419 446.086 86.6025 443.779 89.3125 442.388C92.0225 440.996 95.0986 440.41 98.541 440.63C102.057 440.776 105.609 441.802 109.198 443.706C119.085 448.979 125.604 455.022 128.753 461.833C131.976 468.572 132.635 477.69 130.731 489.189C129.486 497.173 131.683 501.567 137.323 502.373C140.033 502.739 142.303 501.714 144.134 499.297C146.771 495.781 149.298 490.215 151.715 482.598C152.96 478.789 154.498 475.749 156.329 473.479C159.698 469.158 163.177 469.121 166.766 473.369ZM75.4697 479.192C75.1035 484.758 75.1401 489.629 75.5796 493.804C76.0923 497.978 77.4106 501.97 79.5347 505.779C83.3433 512.81 84.7349 520.72 83.7095 529.509C83.4165 532.292 82.1714 534.783 79.9741 536.98C77.7769 539.104 75.3232 540.312 72.6133 540.605C69.9033 540.898 67.4131 540.276 65.1426 538.738C62.8721 537.126 61.2607 534.856 60.3086 531.926C58.3311 525.994 57.4888 518.706 57.7817 510.063C57.7817 509.258 57.7817 508.049 57.7817 506.438C57.7817 504.827 57.7451 503.581 57.6719 502.703C57.6719 501.824 57.5986 500.762 57.4521 499.516C57.3789 498.271 57.1958 497.136 56.9028 496.111C55.5845 490.911 52.6548 487.981 48.1138 487.322C44.2319 486.662 41.229 488.42 39.105 492.595C36.981 496.77 37.457 500.762 40.5332 504.57C40.9727 505.083 42.2178 506.511 44.2686 508.855C46.3926 511.125 47.9307 512.956 48.8828 514.348C52.6914 519.988 52.8745 525.957 49.4321 532.256C45.9897 538.335 41.3022 541.228 35.3696 540.935C29.0708 540.642 24.3833 536.98 21.3071 529.949C16.4731 518.669 18.231 506.731 26.5806 494.133C34.8569 481.755 40.6431 468.242 43.939 453.594C45.6968 445.903 50.1279 441.582 57.2324 440.63C60.8213 440.19 64.3003 441.509 67.6694 444.585C71.1118 447.661 73.4922 451.616 74.8105 456.45C75.1768 457.915 75.4697 459.38 75.6895 460.845C75.9092 462.236 76.019 463.884 76.019 465.788C76.019 467.62 76.019 469.011 76.019 469.963C76.019 470.842 75.9092 472.49 75.6895 474.907C75.543 477.251 75.4697 478.679 75.4697 479.192ZM54.9253 470.183C57.562 470.036 60.0156 468.645 62.2861 466.008C64.5566 463.298 65.6553 460.625 65.582 457.988C65.582 455.058 64.3735 453.081 61.9565 452.056C60.1255 451.25 58.2578 451.946 56.3535 454.143C53.1309 457.659 51.5928 461.504 51.7393 465.679C51.8125 465.825 51.8491 466.265 51.8491 466.997C51.9224 467.656 51.9956 468.205 52.0688 468.645C52.2153 469.011 52.5083 469.377 52.9478 469.744C53.4604 470.11 54.1196 470.256 54.9253 470.183Z" fill="#DAFF70" fill-opacity="0.15"/>
<path d="M171.16 324.945C174.749 331.244 175.811 338.019 174.346 345.27C172.954 352.448 169.402 358.087 163.689 362.189C158.929 365.558 153.472 366.547 147.32 365.155C144.097 364.423 141.936 362.628 140.838 359.772C139.812 356.842 140.215 354.022 142.046 351.312C144.097 348.09 147.21 345.306 151.385 342.963C155.34 340.765 157.317 337.25 157.317 332.416C157.317 332.269 157.317 332.013 157.317 331.647C157.317 331.281 157.317 331.024 157.317 330.878C157.317 330.658 157.281 330.365 157.207 329.999C157.207 329.633 157.171 329.376 157.097 329.23C157.024 329.01 156.914 328.79 156.768 328.571C156.695 328.351 156.548 328.168 156.328 328.021C156.109 327.875 155.852 327.765 155.559 327.692C153.655 327.106 151.934 327.985 150.396 330.328C146.514 336.7 140.435 339.52 132.159 338.788C127.91 338.422 124.248 336.664 121.172 333.514C118.169 330.292 116.302 326.227 115.569 321.32C114.471 313.995 114.837 306.451 116.668 298.688C121.282 285.504 127.654 275.031 135.784 267.267C140.105 263.239 145.379 261.993 151.604 263.532C157.903 265.07 162.627 268.695 165.777 274.408C169.073 280.341 170.098 286.676 168.853 293.414C167.461 300.885 167.205 308.502 168.084 316.266C168.377 318.903 169.402 321.796 171.16 324.945ZM138.86 306.818C139.959 306.085 141.973 302.313 144.903 295.502C147.906 288.69 149.077 284.772 148.418 283.746C147.539 284.479 146.917 285.065 146.551 285.504C143.841 288.654 140.728 293.964 137.212 301.434C135.967 304.071 136.516 305.866 138.86 306.818Z" fill="white" fill-opacity="0.15"/>
<path d="M102.386 284.625C109.71 294.44 112.054 305.975 109.417 319.232C105.682 338.934 97.735 353.949 85.5768 364.276C80.7428 368.304 75.9088 369.952 71.0748 369.22C66.9733 368.634 63.8971 367.279 61.8463 365.155C59.7955 362.958 58.6237 359.808 58.3307 355.707C58.0377 351.898 58.0377 345.013 58.3307 335.052C58.6237 325.092 58.4039 318.207 57.6715 314.398C56.5729 306.268 53.8629 300.592 49.5416 297.369C48.8824 297.662 48.3331 298.065 47.8937 298.578C47.4542 299.017 47.1246 299.42 46.9049 299.786C46.7584 300.079 46.6119 300.592 46.4655 301.324C46.3922 302.057 46.3556 302.533 46.3556 302.753C46.3556 302.899 46.3556 303.412 46.3556 304.291C46.4288 308.612 47.1613 314.801 48.5529 322.858C50.0177 330.841 50.8234 335.419 50.9698 336.591C51.4093 340.619 51.2994 344.281 50.6403 347.577C49.8346 351.312 48.1866 354.352 45.6964 356.696C43.2794 359.039 40.4962 360.175 37.3468 360.101C33.3917 359.955 30.0958 358.746 27.4591 356.476C24.8956 354.205 23.6505 351.129 23.7238 347.247C24.0167 338.605 24.0533 330.768 23.8336 323.737C23.6871 316.632 23.8336 308.759 24.2731 300.116C24.7858 291.473 25.7745 283.673 27.2394 276.715C28.4113 271.002 30.5353 266.681 33.6115 263.751C36.6876 260.822 40.4596 259.393 44.9274 259.467C49.3951 259.54 53.1671 260.895 56.2433 263.531C59.3195 266.095 62.1027 269.647 64.5929 274.188C71.6974 287.225 74.7736 300.995 73.8214 315.497C73.5284 319.598 74.5905 323.224 77.0074 326.373C77.3737 318.829 77.5568 314.984 77.5568 314.838C77.5568 313.446 77.5568 311.432 77.5568 308.795C77.5568 306.085 77.5568 303.888 77.5568 302.203C77.5568 300.519 77.63 298.541 77.7765 296.271C77.923 293.927 78.1793 291.803 78.5455 289.899C79.5709 283.966 82.5372 280.487 87.4445 279.462C93.7433 278.07 98.7238 279.791 102.386 284.625Z" fill="white" fill-opacity="0.15"/>
<path d="M305.367 216.927C302.437 227.035 303.096 239.632 307.344 254.72C308.736 259.554 308.186 263.546 305.696 266.695C303.279 269.771 299.654 271.163 294.82 270.87C290.645 270.65 287.862 268.343 286.47 263.949C285.738 261.605 285.188 259.225 284.822 256.808C284.529 254.317 284.273 251.278 284.053 247.689C283.833 244.1 283.65 241.683 283.504 240.438C283.138 236.41 282.369 233.15 281.197 230.66C279.073 225.68 276.18 223.519 272.517 224.178C271.346 224.398 270.43 224.874 269.771 225.606C269.185 226.266 268.819 226.925 268.672 227.584C268.599 228.17 268.526 229.122 268.453 230.44C268.453 231.686 268.416 232.528 268.343 232.967C268.562 236.043 268.892 240.511 269.331 246.371C269.844 252.23 270.21 256.551 270.43 259.334C270.943 266 269.844 271.749 267.134 276.583C264.864 280.758 261.275 283.211 256.368 283.944C251.534 284.75 247.542 283.541 244.392 280.318C241.609 277.462 240.95 273.653 242.415 268.893C246.15 255.855 247.615 244.576 246.809 235.055C246.37 229.781 245.418 221.944 243.953 211.544C243.294 206.637 243.697 201.766 245.161 196.932C246.114 193.636 247.835 191.512 250.325 190.56C252.889 189.608 255.818 189.938 259.114 191.549C260.725 192.354 262.3 193.38 263.838 194.625C265.45 195.87 266.731 197.005 267.683 198.031C268.636 198.983 269.917 200.411 271.529 202.315C273.14 204.146 274.312 205.428 275.044 206.161C278.853 210.189 281.16 212.569 281.966 213.302C284.676 215.938 287.203 215.389 289.546 211.654C289.912 211.068 290.205 210.372 290.425 209.566C290.645 208.761 290.791 208.102 290.865 207.589C291.011 207.003 291.121 206.234 291.194 205.282C291.341 204.33 291.451 203.634 291.524 203.194C291.67 201.949 291.78 201.07 291.853 200.558C292 199.972 292.256 199.239 292.622 198.36C292.989 197.481 293.538 196.859 294.27 196.493C295.003 196.053 295.918 195.833 297.017 195.833C301.265 195.76 304.048 197.994 305.367 202.535C306.685 207.442 306.685 212.24 305.367 216.927ZM334.59 242.635C337.154 247.25 337.74 251.864 336.348 256.478C335.469 259.554 333.821 261.422 331.404 262.081C328.987 262.74 326.827 261.825 324.922 259.334C315.84 247.103 311.958 235.531 313.277 224.618C315.035 210.116 316.06 202.132 316.353 200.667C317.671 192.977 321.333 189.645 327.339 190.67C329.463 191.036 331.075 192.354 332.173 194.625C334.004 198.36 334.81 202.206 334.59 206.161C334.663 210.042 334.004 214.62 332.613 219.894C330.342 228.463 331.001 236.043 334.59 242.635ZM319.209 185.836C317.964 185.47 317.268 184.701 317.122 183.529C316.975 182.357 317.305 181.295 318.111 180.343C321.407 176.388 325.398 174.081 330.086 173.421C332.942 173.275 334.663 174.447 335.249 176.937C336.348 180.819 335.103 183.712 331.514 185.616C328.584 187.228 324.483 187.301 319.209 185.836Z" fill="white" fill-opacity="0.15"/>
<path d="M232.527 192.428C239.851 202.242 242.195 213.815 239.558 227.145C235.823 246.92 227.876 261.971 215.718 272.298C210.811 276.4 205.94 278.085 201.106 277.352C197.004 276.766 193.928 275.411 191.877 273.287C189.827 271.09 188.655 267.904 188.362 263.729C188.069 259.847 188.069 252.963 188.362 243.075C188.655 233.114 188.435 226.193 187.703 222.311C186.604 214.181 183.857 208.468 179.463 205.172C178.804 205.465 178.254 205.868 177.815 206.381C177.376 206.82 177.046 207.223 176.826 207.589C176.68 207.882 176.533 208.395 176.387 209.127C176.314 209.86 176.277 210.336 176.277 210.555C176.277 210.702 176.277 211.214 176.277 212.093C176.35 216.415 177.083 222.604 178.474 230.66C179.939 238.717 180.745 243.368 180.891 244.613C181.331 248.568 181.221 252.23 180.562 255.599C179.756 259.408 178.108 262.484 175.618 264.828C173.201 267.098 170.418 268.197 167.268 268.124C163.24 267.977 159.907 266.769 157.271 264.498C154.707 262.228 153.462 259.152 153.535 255.27C153.828 246.627 153.865 238.754 153.645 231.649C153.499 224.471 153.645 216.561 154.085 207.919C154.597 199.276 155.586 191.439 157.051 184.408C158.223 178.695 160.347 174.374 163.423 171.444C166.572 168.441 170.381 166.976 174.849 167.049C182.759 167.123 189.351 172.067 194.624 181.881C201.802 194.845 204.878 208.688 203.853 223.409C203.56 227.364 204.658 230.99 207.148 234.286C207.441 228.133 207.588 224.288 207.588 222.75C207.588 220.773 207.588 218.685 207.588 216.488C207.588 214.291 207.588 212.203 207.588 210.226C207.661 208.248 207.771 206.161 207.918 203.964C208.064 201.766 208.32 199.679 208.687 197.701C209.712 191.695 212.678 188.18 217.585 187.154C223.958 185.763 228.938 187.521 232.527 192.428ZM148.701 183.749C148.774 183.749 148.774 186.092 148.701 190.78V197.811C150.02 220.663 148.811 239.23 145.076 253.512C145.076 253.658 144.893 254.318 144.526 255.489C144.233 256.661 144.05 257.357 143.977 257.577C143.904 257.797 143.684 258.419 143.318 259.444C143.025 260.47 142.769 261.129 142.549 261.422C142.329 261.715 141.963 262.228 141.45 262.96C141.011 263.693 140.571 264.242 140.132 264.608C139.692 264.974 139.106 265.377 138.374 265.817C137.715 266.183 136.982 266.512 136.177 266.805C133.32 267.757 130.793 267.574 128.596 266.256C126.472 264.864 125.337 262.704 125.19 259.774C124.897 254.354 125.447 248.129 126.838 241.097C128.816 230.843 127.534 219.161 122.993 206.051C122.847 205.685 122.554 204.879 122.114 203.634C121.675 202.389 121.382 201.547 121.235 201.107C121.089 200.594 120.796 199.789 120.356 198.69C119.99 197.518 119.734 196.639 119.587 196.053C119.441 195.394 119.221 194.552 118.928 193.527C118.709 192.501 118.562 191.622 118.489 190.89C118.416 190.084 118.306 189.205 118.159 188.253C118.086 187.301 118.049 186.385 118.049 185.506C118.123 184.628 118.232 183.749 118.379 182.87C118.892 179.281 120.979 176.095 124.641 173.312C128.376 170.455 132.222 169.137 136.177 169.357C144.16 169.796 148.335 174.593 148.701 183.749ZM132.332 168.038C129.988 168.99 126.472 170.345 121.785 172.103C119.587 173.202 117.317 173.641 114.973 173.422C112.703 173.129 110.908 171.774 109.59 169.357C108.418 167.233 108.381 164.596 109.48 161.446C110.579 158.224 112.3 155.99 114.644 154.745C118.525 152.621 122.151 151.669 125.52 151.888C128.23 151.742 130.684 152.255 132.881 153.426C134.932 154.452 136.506 155.55 137.605 156.722C138.704 157.821 139.216 159.322 139.143 161.227C139.143 162.545 138.74 163.68 137.935 164.632C137.129 165.585 136.36 166.244 135.627 166.61C134.895 166.976 133.796 167.452 132.332 168.038Z" fill="#DAFF70" fill-opacity="0.15"/>
<path d="M104.426 187.704C106.111 196.2 107.173 203.854 107.612 210.665C108.052 217.477 107.502 224.801 105.964 232.638C104.426 240.402 101.68 247.616 97.7246 254.281C94.9414 258.968 91.0962 262.521 86.189 264.938C82.2339 266.915 78.4619 267.281 74.873 266.036C71.2842 264.718 68.6108 262.045 66.853 258.016C66.1206 256.405 65.2051 254.098 64.1064 251.095C63.0078 248.019 62.2388 245.931 61.7993 244.833C61.7261 244.613 61.543 244.21 61.25 243.624C61.0303 242.965 60.8472 242.526 60.7007 242.306C60.6274 242.013 60.4443 241.61 60.1514 241.097C59.9316 240.511 59.6753 240.109 59.3823 239.889C59.1626 239.669 58.8696 239.413 58.5034 239.12C58.1372 238.754 57.7344 238.497 57.2949 238.351C56.8555 238.204 56.3794 238.094 55.8667 238.021C51.9849 237.728 48.8721 239.559 46.5283 243.514C45.5029 245.199 44.7705 247.982 44.3311 251.864C43.5986 258.529 40.6323 264.095 35.4321 268.563C31.3306 272.152 27.1558 273.287 22.9077 271.969C18.6597 270.577 15.6934 267.208 14.0088 261.861C12.1777 256.222 11.8848 250.985 13.1299 246.151C14.1553 242.049 14.7412 237.911 14.8877 233.736C15.0342 229.562 14.668 225.204 13.7891 220.663C12.9102 216.049 12.0312 212.203 11.1523 209.127C10.3467 205.978 9.13818 201.803 7.52686 196.603C5.62256 190.743 5.03662 186.202 5.76904 182.98C6.57471 179.757 9.13818 176.608 13.4595 173.531C19.2456 169.357 24.812 168.734 30.1587 171.664C32.7222 173.129 34.4067 175.033 35.2124 177.377C36.0913 179.72 36.5674 182.687 36.6406 186.276C36.7139 189.059 36.311 194.186 35.4321 201.656C34.6265 209.127 34.5166 214.913 35.1025 219.015C35.3955 221.139 36.4209 223.043 38.1787 224.728C39.0576 223.263 39.79 222.091 40.376 221.212C40.9619 220.333 41.731 219.308 42.6831 218.136C43.6353 216.891 44.5508 215.975 45.4297 215.389C46.3818 214.803 47.4438 214.291 48.6157 213.851C49.7876 213.339 51.0693 213.155 52.4609 213.302C53.8525 213.375 55.354 213.705 56.9653 214.291C59.5288 215.243 61.543 216.781 63.0078 218.905C64.5459 221.029 65.9375 223.592 67.1826 226.595C68.501 229.598 69.7461 231.832 70.918 233.297C71.2842 233.004 71.6138 232.711 71.9067 232.418C72.1997 232.052 72.4561 231.686 72.6758 231.32C72.8955 230.88 73.0786 230.514 73.2251 230.221C73.3716 229.928 73.4814 229.525 73.5547 229.012C73.7012 228.5 73.7744 228.133 73.7744 227.914C73.8477 227.694 73.9209 227.291 73.9941 226.705C74.1406 226.046 74.2139 225.643 74.2139 225.497C74.4336 224.252 74.873 221.066 75.5322 215.939C76.2646 210.738 76.814 207.04 77.1802 204.842C77.6196 202.645 78.4253 199.679 79.5972 195.944C80.769 192.208 82.1973 188.912 83.8818 186.056C86.7383 181.002 90.2539 178.658 94.4287 179.025C97.0654 179.244 99.2627 180.16 101.021 181.771C102.778 183.309 103.914 185.287 104.426 187.704Z" fill="white" fill-opacity="0.15"/>
<path d="M176.215 125.775C178.632 127.093 180.573 128.998 182.038 131.488C183.502 133.905 184.088 136.322 183.795 138.739C183.576 140.423 182.916 141.852 181.818 143.023C180.792 144.122 179.73 144.928 178.632 145.44C177.606 145.88 176.178 146.356 174.347 146.869C169 148.407 164.936 148.993 162.152 148.626C151.972 148.114 144.208 147.125 138.861 145.66C136.518 145.001 133.991 144.635 131.281 144.562C128.571 144.415 126.19 144.452 124.14 144.671C122.162 144.891 119.635 145.221 116.559 145.66C113.483 146.026 111.103 146.283 109.418 146.429C101.508 147.088 96.8203 145.184 95.3555 140.716C94.1103 136.981 94.3667 133.795 96.1245 131.158C97.8823 128.521 100.885 126.8 105.133 125.995C106.452 125.775 107.843 125.665 109.308 125.665C110.773 125.665 112.421 125.738 114.252 125.885C116.083 125.958 117.475 125.995 118.427 125.995C132.855 125.995 146.369 125.226 158.966 123.688C166.144 122.735 171.894 123.431 176.215 125.775Z" fill="white" fill-opacity="0.15"/>
<path d="M79.4252 114.789C88.8002 121.6 93.4877 131.305 93.4877 143.903C92.9017 156.427 85.6508 168.512 71.7348 180.157C63.8978 186.749 55.8046 191.107 47.455 193.231C38.5194 195.428 31.4516 194.257 26.2514 189.716C21.0512 185.174 18.8173 178.29 19.5497 169.061C19.7694 166.571 20.6117 160.931 22.0766 152.142C23.6146 143.28 24.2006 136.359 23.8344 131.378C23.5414 126.91 22.1864 116.144 19.7694 99.0783C19.1835 95.05 19.4398 92.0837 20.5385 90.1794C21.7103 88.2018 24.0907 85.9313 27.6796 83.3678C31.8544 80.4382 36.725 81.2072 42.2914 85.675C60.9682 100.69 73.3461 110.394 79.4252 114.789ZM56.1342 154.999C58.0385 152.875 58.3314 150.531 57.0131 147.967C56.5736 147.162 55.4384 145.111 53.6073 141.815C51.8495 138.446 50.4945 135.699 49.5424 133.575C48.5902 131.378 47.7846 129.108 47.1254 126.764C47.7846 128.888 47.8578 132.88 47.3451 138.739C46.8324 144.525 46.6493 148.444 46.7958 150.494C47.0155 153.424 48.4071 155.292 50.9706 156.097C53.1679 156.83 54.8891 156.464 56.1342 154.999Z" fill="#DAFF70" fill-opacity="0.15"/>
<path d="M312.78 76.5029C318.127 83.3877 320.544 89.5034 320.031 94.8501C319.518 100.636 317.101 104.408 312.78 106.166C307.287 108.51 301.904 107.741 296.63 103.859C295.751 103.2 294.909 102.504 294.103 101.771C293.371 101.039 292.712 100.197 292.126 99.2446C291.54 98.2925 291.027 97.4868 290.588 96.8276C290.148 96.1685 289.709 95.2163 289.269 93.9712C288.903 92.7261 288.61 91.8472 288.39 91.3345C288.171 90.7485 287.914 89.6865 287.621 88.1484C287.402 86.6104 287.255 85.6582 287.182 85.292C287.109 84.9258 286.926 83.8638 286.633 82.106C286.413 80.3481 286.303 79.3594 286.303 79.1396C285.131 70.7168 283.41 64.7842 281.139 61.3418C279.162 58.1924 276.525 57.0205 273.229 57.8262C272.057 58.1191 271.179 58.6318 270.593 59.3643C270.08 60.0967 269.824 60.939 269.824 61.8911C269.824 62.77 269.86 63.7222 269.933 64.7476C270.153 67.5308 270.995 71.6323 272.46 77.0522C273.998 82.4722 274.877 86.6104 275.097 89.4668C275.463 94.0078 275.39 97.9629 274.877 101.332C274.438 104.701 273.193 107.851 271.142 110.78C269.457 113.271 267.333 114.992 264.77 115.944C262.28 116.896 259.68 117.006 256.97 116.273C252.502 115.102 249.792 111.33 248.84 104.958C248.62 103.346 248.473 101.735 248.4 100.124C248.327 98.5122 248.364 96.7544 248.51 94.8501C248.73 92.8726 248.876 91.3345 248.95 90.2358C249.096 89.1372 249.352 87.3794 249.719 84.9624C250.085 82.4722 250.305 80.8608 250.378 80.1284C252.282 65.5532 250.305 49.5132 244.445 32.0083C240.71 20.9487 242.504 11.7202 249.828 4.32275C250.781 3.29736 251.916 2.52832 253.234 2.01562C254.626 1.42969 255.724 1.06348 256.53 0.916992C257.409 0.770508 258.691 0.660645 260.375 0.587402C262.133 0.51416 263.159 0.477539 263.451 0.477539C270.995 0.550781 277.368 1.13672 282.568 2.23535C287.841 3.26074 292.675 5.45801 297.07 8.82715C301.171 11.9033 304.247 16.2246 306.298 21.791C308.349 27.2842 308.752 32.2646 307.507 36.7324C306.628 40.0283 304.174 42.9946 300.146 45.6313C297.802 47.1694 296.374 48.7808 295.861 50.4653C295.422 52.0767 295.971 54.0542 297.509 56.3979C299.34 59.1079 302.197 62.9897 306.078 68.0435C310.034 73.0239 312.267 75.8438 312.78 76.5029ZM272.131 36.7324C274.548 37.5381 276.269 36.6592 277.294 34.0957C278.32 31.5322 277.148 28.6025 273.779 25.3066C270.483 22.0107 267.15 20.3994 263.781 20.4727C262.756 20.4727 261.987 20.729 261.474 21.2417C260.961 21.6812 260.742 22.377 260.815 23.3291C260.815 26.1855 261.913 28.8955 264.111 31.459C266.308 34.0225 268.981 35.7803 272.131 36.7324Z" fill="white" fill-opacity="0.15"/>
<path d="M186.877 16.2979C186.364 19.1543 185.375 22.1939 183.91 25.4165C182.519 28.5659 181.274 31.0195 180.175 32.7774C179.076 34.4619 177.355 37.062 175.011 40.5776C160.656 61.8911 153.478 82.9482 153.478 103.749C153.478 107.411 152.233 109.682 149.743 110.561C147.106 111.513 144.323 110.67 141.393 108.034C140.002 106.789 138.903 105.287 138.097 103.529C137.292 101.698 136.779 100.16 136.559 98.915C136.413 97.5967 136.266 95.7656 136.12 93.4219C135.973 91.0049 135.827 89.3203 135.68 88.3682C135.021 83.3877 133.666 79.4692 131.615 76.6128C129.345 73.5366 126.928 73.4634 124.364 76.3931C123.266 77.6382 122.46 79.0664 121.947 80.6777C121.508 82.2891 121.252 83.5708 121.178 84.523C121.178 85.4019 121.288 87.0498 121.508 89.4668C121.728 91.8106 121.838 93.2022 121.838 93.6416C122.057 99.501 122.131 102.797 122.057 103.529C121.764 107.484 120.483 110.158 118.212 111.549C115.942 112.941 112.865 113.014 108.984 111.769C107.738 111.403 106.53 110.927 105.358 110.341C104.259 109.755 103.234 109.206 102.282 108.693C101.403 108.18 100.451 107.448 99.4254 106.496C98.4 105.543 97.5578 104.811 96.8986 104.298C96.3126 103.786 95.507 102.907 94.4816 101.662C93.5294 100.343 92.8336 99.4644 92.3942 99.0249C92.028 98.5122 91.3688 97.4868 90.4166 95.9487C89.4645 94.4107 88.8419 93.4585 88.549 93.0923C88.3292 92.7261 87.7067 91.7007 86.6813 90.0161C85.6559 88.2583 85.07 87.2695 84.9235 87.0498C81.9938 82.1426 79.943 77.0523 78.7711 71.7788C77.6725 66.5054 77.0866 59.6206 77.0133 51.1245C76.6471 42.2622 78.588 33.7661 82.8361 25.6362C84.008 23.3657 85.4728 21.4248 87.2306 19.8135C89.1349 17.9824 91.0758 16.9204 93.0534 16.6275C95.1041 16.3345 96.9352 16.8106 98.5465 18.0557C100.158 19.2275 101.366 21.0586 102.172 23.5488C104.589 31.3125 103.564 40.6875 99.0958 51.6738C96.7521 57.3867 95.4704 61.5249 95.2506 64.0884C95.1041 65.8462 95.214 67.5674 95.5802 69.252C95.7999 70.4238 95.983 71.3394 96.1295 71.9985C96.3493 72.5845 96.7521 73.2437 97.338 73.9761C97.924 74.6353 98.693 75.0747 99.6452 75.2944C100.011 75.5874 100.451 75.624 100.964 75.4043C101.476 75.1113 101.842 74.9649 102.062 74.9649C102.282 74.9649 102.575 74.7451 102.941 74.3057C103.307 73.793 103.527 73.4634 103.6 73.3169C103.747 73.1704 103.966 72.8408 104.259 72.3281C104.626 71.7422 104.845 71.376 104.919 71.2295C106.237 69.1055 107.189 67.604 107.775 66.7251C108.361 65.773 109.277 64.5278 110.522 62.9898C111.84 61.4517 113.195 60.2432 114.587 59.3643C115.978 58.4854 117.553 57.7896 119.311 57.2769C123.412 56.105 127.001 56.3247 130.077 57.936C133.153 59.6206 135.754 58.8882 137.878 55.7388C145.788 43.8735 151.318 33.876 154.467 25.7461C158.642 14.833 165.05 7.91163 173.693 4.98194C177.868 3.5171 181.274 3.95655 183.91 6.3003C186.62 8.57081 187.609 11.9033 186.877 16.2979ZM236.755 71.0098C240.929 78.5537 242.431 87.0132 241.259 96.3882C240.893 99.3911 239.501 102.028 237.084 104.298C234.74 106.569 232.14 107.851 229.284 108.144C226.354 108.437 223.681 107.741 221.264 106.056C218.92 104.372 217.235 101.991 216.21 98.915C214.086 92.6895 213.171 84.8892 213.464 75.5142C213.39 73.5366 213.354 71.7788 213.354 70.2407C213.427 68.7026 213.39 67.0913 213.244 65.4067C213.171 63.6489 212.951 62.0742 212.585 60.6826C211.266 55.2627 208.117 52.1499 203.136 51.3442C198.962 50.6851 195.739 52.5527 193.468 56.9473C191.198 61.415 191.747 65.6631 195.116 69.6914C195.702 70.4238 196.654 71.5225 197.973 72.9873C199.291 74.3789 200.426 75.6607 201.379 76.8325C202.331 78.0044 203.173 79.1397 203.905 80.2383C208.08 86.2441 208.337 92.5796 204.674 99.2446C201.159 105.69 196.105 108.766 189.513 108.473C182.702 108.107 177.721 104.225 174.572 96.8276C169.372 84.9624 171.239 72.2183 180.175 58.5952C189.037 45.1919 195.226 30.7632 198.742 15.3091C200.646 7.03272 205.37 2.41847 212.914 1.46632C216.723 0.953622 220.458 2.38184 224.12 5.75099C227.782 9.04688 230.309 13.2583 231.701 18.3853C232.14 19.9233 232.47 21.4981 232.69 23.1094C232.909 24.6475 233.019 26.3687 233.019 28.273C233.019 30.104 232.983 31.6055 232.909 32.7774C232.909 33.876 232.836 35.5972 232.69 37.9409C232.543 40.2847 232.433 41.8594 232.36 42.665C231.994 48.5977 232.067 53.7979 232.58 58.2656C233.092 62.6602 234.484 66.9082 236.755 71.0098ZM210.497 32.9971C213.28 32.8506 215.881 31.3491 218.298 28.4927C220.788 25.6362 221.996 22.7798 221.923 19.9233C221.923 16.8472 220.605 14.7598 217.968 13.6611C215.99 12.7822 213.976 13.5147 211.925 15.8584C208.556 19.5205 206.945 23.6221 207.091 28.1631C207.091 28.3096 207.128 28.749 207.201 29.4815C207.348 30.2139 207.458 30.7998 207.531 31.2393C207.677 31.6787 208.007 32.1182 208.52 32.5576C209.032 32.9238 209.692 33.0703 210.497 32.9971Z" fill="#DAFF70" fill-opacity="0.15"/>
<path d="M75.6954 84.9625C76.2813 89.65 75.5855 93.6051 73.6079 96.8278C71.7037 100.05 68.8472 102.028 65.0386 102.76C62.1089 103.346 59.2891 102.834 56.5791 101.222C53.9424 99.5377 52.148 97.194 51.1958 94.191C50.4634 92.067 49.9141 89.3937 49.5479 86.171C49.4747 85.5851 49.438 82.8385 49.438 77.9313C49.3648 75.5143 49.4747 72.2184 49.7676 68.0436C50.1338 63.8688 50.3536 60.5729 50.4268 58.1559C50.5 55.7389 50.2803 52.443 49.7676 48.2682C48.8155 43.2145 46.545 40.0651 42.9561 38.8199C39.294 37.5748 36.9869 38.6368 36.0347 42.006C35.6685 43.1779 35.229 44.9357 34.7164 47.2794C34.2769 49.5499 33.8741 51.4176 33.5079 52.8824C33.1416 54.274 32.5191 55.8854 31.6402 57.7164C30.7613 59.4742 29.7359 61.049 28.564 62.4406C26.6597 64.5646 24.9019 67.2745 23.2906 70.5704C22.4849 72.1818 22.0821 73.8663 22.0821 75.6241C22.0821 77.382 22.2652 78.8468 22.6314 80.0187C23.0708 81.1173 23.73 82.6554 24.6089 84.6329C25.4878 86.5372 26.0738 87.9288 26.3667 88.8077C28.6372 95.2531 28.0513 100.124 24.6089 103.42C20.3609 107.448 15.417 108.327 9.77738 106.056C4.06449 103.786 0.988323 99.318 0.548869 92.653C0.109416 85.2555 2.27006 78.6637 7.0308 72.8776C12.9634 65.6998 17.358 57.7531 20.2144 49.0372C23.1441 40.2482 25.2315 30.3239 26.4766 19.2643C26.6231 17.5797 27.2823 15.2726 28.4541 12.3429C30.6514 6.48352 34.2037 3.29749 39.1109 2.78479C44.604 2.27209 48.9253 4.83557 52.0747 10.4752C55.6636 16.9205 59.8384 27.5406 64.5992 42.3356C70.7515 60.8658 74.4502 75.0748 75.6954 84.9625ZM39.4405 22.1207C39.6602 20.7291 39.8433 17.6896 39.9898 13.0021C39.1841 13.1486 38.5249 13.4415 38.0122 13.881C37.4996 14.3204 37.17 14.6866 37.0235 14.9796C36.877 15.2726 36.6939 15.8219 36.4742 16.6276C36.2544 17.4332 36.108 17.9093 36.0347 18.0558C36.0347 18.129 35.9615 18.3488 35.815 18.715C35.7417 19.0079 35.6685 19.2277 35.5953 19.3741C35.522 19.5206 35.4488 19.7404 35.3755 20.0333C35.3023 20.3263 35.2657 20.546 35.2657 20.6925C35.2657 20.839 35.2657 21.0587 35.2657 21.3517C35.3389 21.5714 35.4122 21.7545 35.4854 21.901C35.6319 22.0475 35.7784 22.2306 35.9248 22.4503C36.1446 22.67 36.3643 22.8531 36.584 22.9996C37.0967 23.4391 37.6827 23.5856 38.3418 23.4391C39.001 23.2926 39.3672 22.8531 39.4405 22.1207Z" fill="white" fill-opacity="0.15"/>
</svg>
