<?xml version="1.0" encoding="iso-8859-1"?>
<!-- Generator: Adobe Illustrator 17.0.0, SVG Export Plug-In . SVG Version: 6.00 Build 0)  -->
<!DOCTYPE svg PUBLIC "-//W3C//DTD SVG 1.1//EN" "http://www.w3.org/Graphics/SVG/1.1/DTD/svg11.dtd">
<svg version="1.1" xmlns="http://www.w3.org/2000/svg" xmlns:xlink="http://www.w3.org/1999/xlink" x="0px" y="0px" width="100%"
	 height="100%" viewBox="0 0 800 800" xml:space="preserve">
<g id="Layer_3">
	<path style="fill:none;stroke:#000000;stroke-width:2.5;stroke-miterlimit:10;" d="M134.675,622.34"/>
	<path style="fill:none;stroke:#000000;stroke-width:2.5;stroke-miterlimit:10;" d="M312,261"/>
	<path style="fill:none;stroke:#000000;stroke-width:2.5;stroke-miterlimit:10;" d="M667.244,618.363"/>
	<g>
		<g>
			<path style="fill:#FFFFFF;" d="M665.966,618.363c-2.556-1.704-11.501-10.649-11.501-10.649s-14.535-18.812-14.534-18.811
				c-3.333-2.833-13.975-16.585-13.975-16.585c-27.333-26-75.309-97.912-75.309-97.912s-12.667-12.333-11.333-20
				c-2.667-8-39.107-77.912-39.107-77.912l-1.104-40.595"/>
			<path style="fill:#FFFFFF;" d="M499.103,335.9c0,0,4.797,51.152-5.603,86.6c-0.885,3.018-6.76,7.813-9,14.5
				c-5.722,17.083-17.765,34.539-11.5,47.333c0.724,1.479,5.654,13.039,6,14.667c4.667,14.667,15.333,11.333,16.123,43.829
				l-0.404-4.486c0,0,102.795,4.706,157.577,59.737c36.704,33.481-6.446,73.908-27.333,83.996
				c-29,14.005-86.741,20.715-268.515,9.801c-24.247,1.394-77.851,21.733-167.893,23.232s-78.706-27.987-73.45-49.498
				c9.799-40.1,77.057-80.561,77.057-80.561s71.953-41.05,94.838-46.718c0,0,6.07-7.333,9.14-17.333s9.728-7.704,16.292-21.161
				c6.564-13.457,3.591-64.836,3.591-64.836s-8.431-21.709-9.892-26.67c-2.874-9.752-9.99-56.667-9.99-56.667v-6.911
				c0,0-12.14,104.309-21.14,128.123c-15.073,21.83-44.409,75.095-95.934,120.802l1.324-0.919c0,0-10.436,13.176-14.723,17.945
				c-5.103,5.675-14.505,15.834-26.879,17.128c-9.408,0.984-19.116-0.839-20.321-1.627l-2.274-2.676c0,0-9.728-0.958-9.9-3.619
				c-0.034-0.534-0.189-1.476-0.416-2.657l0.231,1.276c0,0-6.463,1.897-7.067-2.283c-0.094-0.653-0.189-1.57-0.283-2.652
				l0.283,2.652c0,0-5.582,1.486-6.613-4.125c-1.031-5.612-1.139-17.63-1.139-17.63l6.012-5.182l2.955-0.191l-1.195,1.743
				c0.608-1.188,1.503-2.299,2.818-3.066c4.507-2.629,8.245-6.032,8.245-6.032s0.836,2.834,0.905,2.77l-1.26,1.231
				c1.404-1.443,2.792-2.664,3.785-3.065c2.95-1.193,6.545-2.427,6.674-0.431s0.72,5.735-1.846,6.756l1.36-1.163
				c0,0,16.756-3.219,24.627-1.591c14.454,2.991,20.334-8.405,20.334-8.405c7.461-12.275,17.78-24.67,17.78-24.67
				c35.082-77.423,51.707-89.461,51.707-89.461c-0.034-16.031,9.896-102.242,9.252-112.221c-0.645-9.979-7.202-16.636,3.922-55.434
				c7.081-22.437,43.312-27.784,43.312-27.784c13.584-6.89,36.843-6.388,49.3-15.21S356.447,205,356.447,205s26.057-37.598,67.848,0
				c0,0-1.333,33.333,4,36.667c5.333,3.333,41.333,16.667,46,19.333c4.667,2.667,37.222,0,45.371,24.667
				C533,313,528.729,333.98,528.729,333.98s32.101,65.651,44.768,102.317c0,0,16.132,12.036,26.132,33.37
				c10,21.333,34.945,95.406,47.121,96.809c10.988-1.606,13.159,0.393,13.159,0.393s17.082,5.668,18.786,7.798
				c1.704,2.13,17.514,21.904,17.514,21.904s5.324,9.439,5.324,12.208c0,2.769-7.482,4.524-7.482,4.524
				c-0.014,1.835-0.067,3.342-0.185,3.995c-0.426,2.343-1.491,3.195-4.473,3.834c-2.982,0.639-6.602-3.834-6.602-3.834v-1.065
				c-1.491,5.111-10.649,2.13-10.649,2.13s-3.621,1.704-6.176,0"/>
		</g>
	</g>
	<path style="fill:none;stroke:#000000;stroke-width:2.5;stroke-miterlimit:10;" d="M150.25,630.557"/>
	<path style="fill:none;stroke:#000000;stroke-width:2.5;stroke-miterlimit:10;" d="M137.25,660.557"/>
	<path style="fill:none;stroke:#000000;stroke-width:2.5;stroke-miterlimit:10;" d="M102.333,667.333"/>
</g>
<g id="Layer_4">
	<path d="M291.27,531.991c0,0,104.975,74.667,203.853,10.838l-0.404-4.486c0,0,53.321,4.097,98.301,22.127
		c0,0,9.824,52.899,0.152,58.964c0,0-20.825-7.076-38.172-6.131s-50.458,3.819-93.229,18.258c0,0-7.746-2.35-15.325-5.967
		s-14.942-7.985-20.113-5.227c-5.171,2.758-17.494,9.064-17.914,26.598c0,0-38.596,1.734-63.46-5.269
		c-24.864-7.003-91.468-26.082-106.079-22.262c0,0-13.893-22.017-14.877-51.907c0,0,57.76-29.73,63.384-29.185L291.27,531.991z"/>
	<path style="fill:none;stroke:#000000;stroke-width:2.5;stroke-miterlimit:10;" d="M535.449,647.991c0,0-1.765-5.658,1.227-5.658
		c2.991,0,7.658,2.829,7.658,2.829"/>
</g>
<g id="Layer_6">
	<path style="fill:none;stroke:#000000;stroke-width:2.5;stroke-miterlimit:10;" d="M138.081,613.018c-5.216-1.652-15.881-0.462-15.881-0.462
		c-0.387-5.987-4.024-12.929-4.024-12.929c5.401-6.882-0.916-11.602-0.916-11.602s-3.683,5.032-6.136,9.199
		c-2.453,4.167,1.703,15.255,1.174,18.172s3.379,8.991,6.169,10.815c1.205,0.788,10.913,2.611,20.321,1.627
		c12.374-1.294,21.776-11.453,26.879-17.128c4.288-4.769,14.723-17.945,14.723-17.945"/>
	<path style="fill:none;stroke:#000000;stroke-width:2.5;stroke-miterlimit:10;" d="M116.193,623.534c0,0-9.728-0.958-9.9-3.619
		c-0.034-0.534-0.189-1.476-0.416-2.657c-0.904-4.711-2.948-13.227-3.051-14.823c-0.129-1.996,1.35-10.123,1.35-10.123
		s6.429-8.417,9.379-9.61c2.95-1.193,6.545-2.427,6.674-0.431s0.72,5.735-1.846,6.756"/>
	<path style="fill:none;stroke:#000000;stroke-width:2.5;stroke-miterlimit:10;" d="M106.108,618.534c0,0-6.463,1.897-7.067-2.283
		c-0.604-4.18-1.238-19.17-1.238-19.17s-0.43-6.653,4.077-9.282s8.245-6.032,8.245-6.032s0.836,2.834,0.905,2.77"/>
	<path style="fill:none;stroke:#000000;stroke-width:2.5;stroke-miterlimit:10;" d="M99.042,616.251c0,0-5.582,1.486-6.613-4.125
		c-1.031-5.612-1.139-17.63-1.139-17.63l6.012-5.182l2.955-0.191"/>
	<path style="fill:none;" d="M120.231,595.421"/>
</g>
<g id="Layer_5">
	<path style="fill:none;stroke:#000000;stroke-width:2.5;stroke-miterlimit:10;" d="M500.207,376.495c0,0,36.44,69.912,39.107,77.912
		c-1.333,7.667,11.333,20,11.333,20s47.976,71.912,75.309,97.912c0,0,10.641,13.752,13.975,16.585"/>
	<path style="fill:none;stroke:#000000;stroke-width:2.5;stroke-miterlimit:10;" d="M119.743,587.864
		c0,0,16.756-3.219,24.627-1.591c14.454,2.991,20.334-8.405,20.334-8.405c7.461-12.275,17.78-24.67,17.78-24.67
		c35.082-77.423,51.707-89.461,51.707-89.461c-0.034-16.031,9.896-102.242,9.252-112.221c-0.645-9.979-7.202-16.636,3.922-55.434
		c7.081-22.437,43.312-27.784,43.312-27.784c13.584-6.89,36.843-6.388,49.3-15.21S356.447,205,356.447,205"/>
	<path style="fill:none;stroke:#000000;stroke-width:2.5;stroke-miterlimit:10;" d="M134.675,622.34"/>
	<path style="fill:none;stroke:#000000;stroke-width:2.5;stroke-miterlimit:10;" d="M296.14,344.756c0,0-12.14,104.309-21.14,128.123
		c-15.073,21.83-44.409,75.095-95.934,120.802"/>
	<path style="fill:none;stroke:#000000;stroke-width:2.5;stroke-miterlimit:10;" d="M238.881,619.435c0,0-12.584-19.422-14.877-47.116"/>
	<path style="fill:none;stroke:#000000;stroke-width:2.5;stroke-miterlimit:10;" d="M665.966,618.363c9.714,28.659-23.788,55.399-41.004,63.714
		c-29,14.005-86.741,20.715-268.515,9.801"/>
	<path style="fill:none;stroke:#000000;stroke-width:2.5;stroke-miterlimit:10;" d="M494.719,538.343c0,0,83.263,3.812,139.852,44.691"/>
	<path style="fill:none;stroke:#000000;stroke-width:2.5;stroke-miterlimit:10;" d="M611.58,630.606c0,0-32.998-39.029-149.809,0.955"/>
	<path style="fill:none;stroke:#000000;stroke-width:2.5;stroke-miterlimit:10;" d="M593.02,561.667c0,0,9.029,47.604,0.152,57.768"/>
	<path style="fill:none;stroke:#000000;stroke-width:2.5;stroke-miterlimit:10;" d="M421,525.667c0.871-0.023,1.708-0.049,2.55,0.082
		c1.354,3.383,4.949,11.985-1.217,12.585"/>
	<path style="fill:none;stroke:#000000;stroke-width:2.5;stroke-miterlimit:10;" d="M138.663,627.719c-11.076,11.729-20.366,24.83-23.558,37.894
		c-5.256,21.51-16.591,50.997,73.45,49.498s175.531-27.349,199.778-28.743c58-3.333,101.35-19.255,116.551-29.755
		c15.2-10.5,28.116-9.579,36.783-7.579c8.667,2,8.667-2.667,8.667-6c0-3.333-10-14-18.667-12.667c0,0-15.565-8.667-26.783-5.333
		c-11.217,3.333-36.551,10.667-49.884,4.667s-21.333-12-28.667-9.333c-7.333,2.667-17.323,11.932-17.914,26.598
		c0,0-29.925,0.667-54.591-3.333c-24.667-4-95.333-33.333-140.667-21.333c0,0-13.667,2.667-21,5"/>
	<path style="fill:none;stroke:#000000;stroke-width:2.5;stroke-miterlimit:10;" d="M296.14,351.667c0,0,7.117,46.914,9.99,56.667
		c1.462,4.961,9.892,26.67,9.892,26.67s2.974,51.379-3.591,64.836C305.868,513.296,299.209,511,296.14,521S287,538.333,287,538.333
		c-22.885,5.668-94.838,46.718-94.838,46.718s-4.689,2.821-11.772,7.711"/>
	<path style="fill:none;stroke:#000000;stroke-width:2.5;stroke-miterlimit:10;" d="M499.103,335.9c0,0,4.797,51.152-5.603,86.6
		c-0.885,3.018-6.76,7.813-9,14.5c-5.722,17.083-17.765,34.539-11.5,47.333c0.724,1.479,5.654,13.039,6,14.667
		c4.667,14.667,15.333,11.333,16.123,43.829c-95.397,62.744-198.983-7.556-198.983-7.556"/>
	<path style="fill:none;stroke:#000000;stroke-width:2.5;stroke-miterlimit:10;" d="M366,552c0,0,4.765-37,7.382-39C376,511,388,494,388,486"/>
	<path style="fill:none;stroke:#000000;stroke-width:2.5;stroke-miterlimit:10;" d="M461.771,552c0,0,3.504-19-2.496-26s-12.829-28-12.829-28"/>
	<path style="fill:none;stroke:#000000;stroke-width:2.5;stroke-miterlimit:10;" d="M316.023,435.003c0,0,30.977,21.997,49.977,16.997
		c0,0,25-1.667,34-13.667l8.333-8.665"/>
	<path style="fill:none;stroke:#000000;stroke-width:2.5;stroke-miterlimit:10;" d="M487.123,431.718c0,0-7.806,18.295-24.335,17.308L451,443.871
		l-14-14.203"/>
	<path style="fill:none;stroke:#000000;stroke-width:2.5;stroke-miterlimit:10;" d="M350.333,435.003c0,0-16.667-0.003-26.667-10.67"/>
	<path style="fill:none;stroke:#000000;stroke-width:2.5;stroke-miterlimit:10;" d="M350.333,413.667c0,0-9.333,2.667-22-10.667"/>
	<path style="fill:none;stroke:#000000;stroke-width:2.5;stroke-miterlimit:10;" d="M465.667,424.333c0,0,11.333,1.333,18-6"/>
	<path style="fill:none;stroke:#000000;stroke-width:2.5;stroke-miterlimit:10;" d="M458.333,408.442c0,0,21.333-0.776,25.333-5.442"/>
	<path style="fill:none;stroke:#000000;stroke-width:2.5;stroke-miterlimit:10;" d="M339.667,341c-0.277,1.139-0.014,2.768,0.101,3.899
		c7.838,1.794,11.826-9.583,4.566-8.566"/>
	<path style="fill:none;stroke:#000000;stroke-width:2.5;stroke-miterlimit:10;" d="M468.333,343c-0.411,1.506-0.014,3.712,0.101,5.23
		c4.205,0.741,8.649,0.327,7.116-5.114c-1.564-0.303-1.527-1.416-2.55-2.116"/>
	<path style="fill:none;stroke:#000000;stroke-width:2.5;stroke-miterlimit:10;" d="M312,261"/>
	<path style="fill:none;stroke:#000000;stroke-width:2.5;stroke-miterlimit:10;" d="M409,234c-0.084,7.911-0.763,10.843-5,17"/>
	<path style="fill:none;stroke:#000000;stroke-width:2.5;stroke-miterlimit:10;" d="M667.244,618.363"/>
	<path style="fill:none;stroke:#000000;stroke-width:2.5;stroke-miterlimit:10;" d="M646.75,566.476c-12.176-1.403-37.121-75.476-47.121-96.809
		c-10-21.333-26.132-33.37-26.132-33.37c-12.667-36.667-44.768-102.317-44.768-102.317S533,313,519.667,285.667
		c-8.149-24.667-40.704-22-45.371-24.667c-4.667-2.667-40.667-16-46-19.333c-5.333-3.333-4-36.667-4-36.667"/>
	<path style="fill:none;stroke:#000000;stroke-width:2.5;stroke-miterlimit:10;" d="M664.263,581.305
		c4.904,7.599,12.435,4.536,12.435,4.536c0.426,2.343,5.21,6.288,8.511,4.71c-0.301,2.028,1.204,3.005,1.204,3.005
		c1.013,1.519,2.962,2.293,4.946,2.674c3.023,0.58,6.129,0.247,6.129,0.247s-17.088-19.68-18.792-21.809
		c-1.704-2.13-18.786-7.798-18.786-7.798s-2.171-1.999-13.159-0.393"/>
	<path style="fill:none;stroke:#000000;stroke-width:2.5;stroke-miterlimit:10;" d="M682.792,617.298
		c0,0,3.621,4.473,6.602,3.834c2.982-0.639,4.047-1.491,4.473-3.834c0.119-0.653,0.171-2.16,0.185-3.995
		c0.036-4.752-0.185-11.703-0.185-11.703s-1.089-4.535-5.443-2.406c-4.354,2.13-2.863,6.432-2.863,6.432v7.676"/>
	<path style="fill:none;stroke:#000000;stroke-width:2.5;stroke-miterlimit:10;" d="M694.052,613.303
		c0,0,7.482-1.756,7.482-4.524c0-2.769-5.324-12.208-5.324-12.208"/>
	<path style="fill:none;stroke:#000000;stroke-width:2.5;stroke-miterlimit:10;" d="M689.425,595.705
		c0,0-1.001,2.352-1.001,2.921"/>
	<path style="fill:none;stroke:#000000;stroke-width:2.5;stroke-miterlimit:10;" d="M672.143,618.363
		c0,0,9.158,2.982,10.649-2.13s3.408-15.76,1.917-16.186c-1.491-0.426-6.815-1.815-7.241,2.926"/>
	<path style="fill:none;stroke:#000000;stroke-width:2.5;stroke-miterlimit:10;" d="M663.837,604.937c0,0,3.408,5.12,5.111,1.712
		c1.704-3.408,8.519-3.676,9.747-2.556c1.228,1.121,0,3.621,0,3.621l-4.849,8.306c0,0-5.324,4.047-7.88,2.343
		s-11.501-10.649-11.501-10.649s-14.535-18.812-14.534-18.811"/>
	<path style="fill:none;stroke:#000000;stroke-width:2.5;stroke-miterlimit:10;" d="M660.667,586c0,0,2.376,8.587,0,13.526"/>
	<path style="fill:none;stroke:#000000;stroke-width:2.5;stroke-miterlimit:10;" d="M150.25,630.557"/>
	<path style="fill:none;stroke:#000000;stroke-width:2.5;stroke-miterlimit:10;" d="M137.25,660.557"/>
	<path style="fill:none;stroke:#000000;stroke-width:2.5;stroke-miterlimit:10;" d="M102.333,667.333"/>
	<path style="fill:none;stroke:#000000;stroke-width:2.5;stroke-miterlimit:10;" d="M151.357,595.359
		c-6.702,0.954-11.417,9.412-11.417,9.412s-13.154,3.972-14.897,5.421"/>
	<path style="fill:none;stroke:#000000;stroke-width:2.5;stroke-miterlimit:10;" d="M120.231,597.483
		c0,0,11.834-0.031,16.394-3.121"/>
</g>
</svg>
