<?xml version="1.0" encoding="iso-8859-1"?>
<!-- Generator: Adobe Illustrator 17.0.0, SVG Export Plug-In . SVG Version: 6.00 Build 0)  -->
<!DOCTYPE svg PUBLIC "-//W3C//DTD SVG 1.1//EN" "http://www.w3.org/Graphics/SVG/1.1/DTD/svg11.dtd">
<svg version="1.1" xmlns="http://www.w3.org/2000/svg" xmlns:xlink="http://www.w3.org/1999/xlink" x="0" y="0" width="400"
	 height="400" viewBox="0 0 400 400">

<g id="Layer_1">
	<g>
		<path style="fill:#D1D3D4;" d="M195.41,5.111c2.524-2.811,6.655-2.811,9.18,0c2.524,2.811,6.868,3.021,9.651,0.467
			s6.895-2.156,9.137,0.886s6.544,3.67,9.561,1.396c3.017-2.274,7.071-1.48,9.009,1.764s6.159,4.284,9.382,2.312
			c3.223-1.972,7.181-0.791,8.796,2.625s5.717,4.859,9.115,3.207c3.398-1.652,7.224-0.094,8.502,3.462s5.221,5.388,8.763,4.072
			c3.542-1.316,7.199,0.604,8.128,4.266c0.929,3.662,4.677,5.867,8.329,4.899c3.652-0.968,7.107,1.296,7.678,5.031
			c0.571,3.735,4.089,6.291,7.817,5.68c3.728-0.611,6.949,1.976,7.157,5.748c0.208,3.772,3.463,6.656,7.233,6.408
			c3.77-0.248,6.726,2.637,6.569,6.412c-0.157,3.775,2.804,6.959,6.58,7.076c3.776,0.117,6.44,3.274,5.919,7.016
			c-0.521,3.742,2.119,7.197,5.867,7.678c3.747,0.481,6.094,3.88,5.215,7.555c-0.879,3.674,1.415,7.368,5.098,8.208
			c3.684,0.84,5.691,4.45,4.461,8.023c-1.23,3.572,0.697,7.47,4.282,8.662c3.585,1.192,5.235,4.979,3.666,8.416
			s-0.027,7.503,3.426,9.035c3.454,1.532,4.73,5.461,2.837,8.73s-0.751,7.465,2.538,9.323c3.29,1.858,4.181,5.892,1.981,8.963
			s-1.468,7.358,1.627,9.525c3.095,2.167,3.593,6.268,1.106,9.113c-2.486,2.845-2.171,7.182,0.7,9.637
			c2.871,2.456,2.971,6.585,0.222,9.177c-2.749,2.592-2.854,6.938-0.233,9.66c2.621,2.721,2.322,6.841-0.665,9.155
			c-2.986,2.314-3.511,6.631-1.165,9.592c2.346,2.962,1.65,7.033-1.545,9.049s-4.134,6.261-2.085,9.435s0.964,7.16-2.412,8.857
			s-4.719,5.833-2.986,9.19c1.733,3.357,0.268,7.219-3.255,8.583s-5.26,5.35-3.859,8.859s-0.43,7.212-4.068,8.229
			c-3.639,1.017-5.752,4.817-4.696,8.445c1.056,3.628-1.124,7.137-4.844,7.798c-3.72,0.661-6.19,4.24-5.489,7.952
			s-1.807,6.995-5.573,7.294c-3.766,0.299-6.57,3.622-6.231,7.385c0.339,3.763-2.474,6.788-6.251,6.722s-6.889,2.971-6.915,6.749
			c-0.025,3.778-3.117,6.517-6.871,6.087s-7.144,2.293-7.534,6.051c-0.39,3.758-3.732,6.186-7.426,5.396
			c-3.695-0.79-7.332,1.592-8.083,5.295c-0.751,3.703-4.311,5.797-7.912,4.654c-3.601-1.143-7.451,0.877-8.556,4.49
			c-1.105,3.613-4.851,5.354-8.325,3.868c-3.474-1.485-7.501,0.154-8.949,3.644s-5.345,4.861-8.659,3.047s-7.481-0.57-9.259,2.763
			s-5.789,4.322-8.913,2.197c-3.124-2.125-7.391-1.29-9.483,1.856c-2.092,3.146-6.179,3.743-9.083,1.326
			c-2.904-2.417-7.232-1.997-9.618,0.933c-2.386,2.93-6.512,3.129-9.169,0.443c-2.657-2.686-7.005-2.686-9.663,0
			c-2.657,2.686-6.783,2.486-9.169-0.443c-2.386-2.93-6.714-3.349-9.618-0.933c-2.904,2.417-6.992,1.82-9.083-1.326
			c-2.092-3.146-6.359-3.982-9.483-1.856c-3.124,2.125-7.134,1.137-8.913-2.197s-5.945-4.577-9.259-2.763s-7.211,0.443-8.659-3.047
			s-5.475-5.129-8.949-3.644c-3.474,1.485-7.22-0.255-8.325-3.868c-1.105-3.613-4.955-5.634-8.556-4.49
			c-3.601,1.143-7.162-0.951-7.912-4.654c-0.751-3.703-4.388-6.086-8.083-5.295s-7.036-1.638-7.426-5.396
			c-0.39-3.758-3.78-6.481-7.534-6.051s-6.846-2.309-6.871-6.087s-3.137-6.815-6.915-6.749c-3.778,0.066-6.591-2.959-6.251-6.722
			c0.339-3.763-2.465-7.086-6.231-7.385c-3.766-0.299-6.274-3.581-5.573-7.294s-1.769-7.291-5.489-7.952
			c-3.72-0.661-5.899-4.17-4.843-7.798c1.056-3.628-1.057-7.428-4.696-8.445s-5.469-4.72-4.068-8.229
			c1.401-3.509-0.335-7.495-3.859-8.859s-4.988-5.226-3.255-8.583c1.733-3.357,0.39-7.493-2.986-9.19s-4.461-5.683-2.412-8.857
			s1.111-7.42-2.085-9.435s-3.891-6.087-1.545-9.049c2.346-2.962,1.822-7.278-1.165-9.592c-2.986-2.314-3.286-6.434-0.665-9.155
			s2.516-7.068-0.233-9.66s-2.649-6.721,0.222-9.177c2.871-2.456,3.186-6.792,0.7-9.637c-2.486-2.845-1.988-6.945,1.106-9.113
			c3.095-2.167,3.827-6.453,1.627-9.525s-1.309-7.105,1.981-8.963c3.29-1.858,4.432-6.054,2.538-9.323s-0.617-7.198,2.837-8.73
			c3.454-1.532,4.995-5.598,3.426-9.035s0.081-7.224,3.666-8.416c3.585-1.192,5.512-5.09,4.282-8.662
			c-1.23-3.572,0.778-7.183,4.461-8.023c3.684-0.84,5.978-4.534,5.098-8.208c-0.879-3.674,1.467-7.074,5.215-7.555
			c3.747-0.481,6.387-3.936,5.867-7.678c-0.521-3.742,2.143-6.899,5.919-7.016c3.776-0.117,6.738-3.301,6.58-7.076
			c-0.157-3.775,2.799-6.66,6.569-6.412c3.77,0.248,7.025-2.635,7.233-6.408c0.208-3.772,3.429-6.359,7.157-5.748
			c3.728,0.611,7.246-1.945,7.817-5.68c0.571-3.735,4.026-5.998,7.678-5.031c3.652,0.968,7.4-1.236,8.329-4.899
			c0.929-3.662,4.587-5.582,8.128-4.266c3.542,1.316,7.485-0.516,8.763-4.072s5.104-5.113,8.502-3.462
			c3.398,1.652,7.5,0.208,9.115-3.207s5.573-4.597,8.796-2.625c3.223,1.972,7.445,0.931,9.382-2.312s5.991-4.037,9.009-1.764
			s7.32,1.645,9.561-1.396s6.353-3.44,9.137-0.886S192.886,7.922,195.41,5.111z"/>
		<path style="fill:none;stroke:#000000;stroke-width:2;stroke-miterlimit:10;" d="M195.41,5.111c2.524-2.811,6.655-2.811,9.18,0
			c2.524,2.811,6.868,3.021,9.651,0.467s6.895-2.156,9.137,0.886s6.544,3.67,9.561,1.396c3.017-2.274,7.071-1.48,9.009,1.764
			s6.159,4.284,9.382,2.312c3.223-1.972,7.181-0.791,8.796,2.625s5.717,4.859,9.115,3.207c3.398-1.652,7.224-0.094,8.502,3.462
			s5.221,5.388,8.763,4.072c3.542-1.316,7.199,0.604,8.128,4.266c0.929,3.662,4.677,5.867,8.329,4.899
			c3.652-0.968,7.107,1.296,7.678,5.031c0.571,3.735,4.089,6.291,7.817,5.68c3.728-0.611,6.949,1.976,7.157,5.748
			c0.208,3.772,3.463,6.656,7.233,6.408c3.77-0.248,6.726,2.637,6.569,6.412c-0.157,3.775,2.804,6.959,6.58,7.076
			c3.776,0.117,6.44,3.274,5.919,7.016c-0.521,3.742,2.119,7.197,5.867,7.678c3.747,0.481,6.094,3.88,5.215,7.555
			c-0.879,3.674,1.415,7.368,5.098,8.208c3.684,0.84,5.691,4.45,4.461,8.023c-1.23,3.572,0.697,7.47,4.282,8.662
			c3.585,1.192,5.235,4.979,3.666,8.416s-0.027,7.503,3.426,9.035c3.454,1.532,4.73,5.461,2.837,8.73s-0.751,7.465,2.538,9.323
			c3.29,1.858,4.181,5.892,1.981,8.963s-1.468,7.358,1.627,9.525c3.095,2.167,3.593,6.268,1.106,9.113
			c-2.486,2.845-2.171,7.182,0.7,9.637c2.871,2.456,2.971,6.585,0.222,9.177c-2.749,2.592-2.854,6.938-0.233,9.66
			c2.621,2.721,2.322,6.841-0.665,9.155c-2.986,2.314-3.511,6.631-1.165,9.592c2.346,2.962,1.65,7.033-1.545,9.049
			s-4.134,6.261-2.085,9.435s0.964,7.16-2.412,8.857s-4.719,5.833-2.986,9.19c1.733,3.357,0.268,7.219-3.255,8.583
			s-5.26,5.35-3.859,8.859s-0.43,7.212-4.068,8.229c-3.639,1.017-5.752,4.817-4.696,8.445c1.056,3.628-1.124,7.137-4.844,7.798
			c-3.72,0.661-6.19,4.24-5.489,7.952s-1.807,6.995-5.573,7.294c-3.766,0.299-6.57,3.622-6.231,7.385
			c0.339,3.763-2.474,6.788-6.251,6.722s-6.889,2.971-6.915,6.749c-0.025,3.778-3.117,6.517-6.871,6.087s-7.144,2.293-7.534,6.051
			c-0.39,3.758-3.732,6.186-7.426,5.396c-3.695-0.79-7.332,1.592-8.083,5.295c-0.751,3.703-4.311,5.797-7.912,4.654
			c-3.601-1.143-7.451,0.877-8.556,4.49c-1.105,3.613-4.851,5.354-8.325,3.868c-3.474-1.485-7.501,0.154-8.949,3.644
			s-5.345,4.861-8.659,3.047s-7.481-0.57-9.259,2.763s-5.789,4.322-8.913,2.197c-3.124-2.125-7.391-1.29-9.483,1.856
			c-2.092,3.146-6.179,3.743-9.083,1.326c-2.904-2.417-7.232-1.997-9.618,0.933c-2.386,2.93-6.512,3.129-9.169,0.443
			c-2.657-2.686-7.005-2.686-9.663,0c-2.657,2.686-6.783,2.486-9.169-0.443c-2.386-2.93-6.714-3.349-9.618-0.933
			c-2.904,2.417-6.992,1.82-9.083-1.326c-2.092-3.146-6.359-3.982-9.483-1.856c-3.124,2.125-7.134,1.137-8.913-2.197
			s-5.945-4.577-9.259-2.763s-7.211,0.443-8.659-3.047s-5.475-5.129-8.949-3.644c-3.474,1.485-7.22-0.255-8.325-3.868
			c-1.105-3.613-4.955-5.634-8.556-4.49c-3.601,1.143-7.162-0.951-7.912-4.654c-0.751-3.703-4.388-6.086-8.083-5.295
			s-7.036-1.638-7.426-5.396c-0.39-3.758-3.78-6.481-7.534-6.051s-6.846-2.309-6.871-6.087s-3.137-6.815-6.915-6.749
			c-3.778,0.066-6.591-2.959-6.251-6.722c0.339-3.763-2.465-7.086-6.231-7.385c-3.766-0.299-6.274-3.581-5.573-7.294
			s-1.769-7.291-5.489-7.952c-3.72-0.661-5.899-4.17-4.843-7.798c1.056-3.628-1.057-7.428-4.696-8.445s-5.469-4.72-4.068-8.229
			c1.401-3.509-0.335-7.495-3.859-8.859s-4.988-5.226-3.255-8.583c1.733-3.357,0.39-7.493-2.986-9.19s-4.461-5.683-2.412-8.857
			s1.111-7.42-2.085-9.435s-3.891-6.087-1.545-9.049c2.346-2.962,1.822-7.278-1.165-9.592c-2.986-2.314-3.286-6.434-0.665-9.155
			s2.516-7.068-0.233-9.66s-2.649-6.721,0.222-9.177c2.871-2.456,3.186-6.792,0.7-9.637c-2.486-2.845-1.988-6.945,1.106-9.113
			c3.095-2.167,3.827-6.453,1.627-9.525s-1.309-7.105,1.981-8.963c3.29-1.858,4.432-6.054,2.538-9.323s-0.617-7.198,2.837-8.73
			c3.454-1.532,4.995-5.598,3.426-9.035s0.081-7.224,3.666-8.416c3.585-1.192,5.512-5.09,4.282-8.662
			c-1.23-3.572,0.778-7.183,4.461-8.023c3.684-0.84,5.978-4.534,5.098-8.208c-0.879-3.674,1.467-7.074,5.215-7.555
			c3.747-0.481,6.387-3.936,5.867-7.678c-0.521-3.742,2.143-6.899,5.919-7.016c3.776-0.117,6.738-3.301,6.58-7.076
			c-0.157-3.775,2.799-6.66,6.569-6.412c3.77,0.248,7.025-2.635,7.233-6.408c0.208-3.772,3.429-6.359,7.157-5.748
			c3.728,0.611,7.246-1.945,7.817-5.68c0.571-3.735,4.026-5.998,7.678-5.031c3.652,0.968,7.4-1.236,8.329-4.899
			c0.929-3.662,4.587-5.582,8.128-4.266c3.542,1.316,7.485-0.516,8.763-4.072s5.104-5.113,8.502-3.462
			c3.398,1.652,7.5,0.208,9.115-3.207s5.573-4.597,8.796-2.625c3.223,1.972,7.445,0.931,9.382-2.312s5.991-4.037,9.009-1.764
			s7.32,1.645,9.561-1.396s6.353-3.44,9.137-0.886S192.886,7.922,195.41,5.111z"/>
	</g>
	<g>
		<path style="fill:#939598;" d="M195.766,20.21c2.329-2.593,6.139-2.593,8.468,0s6.335,2.787,8.903,0.431
			c2.568-2.356,6.361-1.988,8.428,0.817s6.037,3.385,8.82,1.288s6.523-1.365,8.31,1.627s5.682,3.952,8.655,2.133
			s6.624-0.729,8.114,2.421c1.49,3.151,5.274,4.482,8.408,2.958c3.135-1.524,6.664-0.087,7.843,3.193
			c1.179,3.28,4.816,4.97,8.083,3.756c3.267-1.214,6.641,0.557,7.498,3.935s4.314,5.412,7.683,4.519
			c3.369-0.893,6.556,1.195,7.083,4.641c0.527,3.445,3.772,5.803,7.211,5.239c3.439-0.564,6.41,1.823,6.602,5.302
			c0.192,3.48,3.194,6.14,6.672,5.911c3.478-0.229,6.205,2.433,6.06,5.915c-0.145,3.482,2.587,6.419,6.07,6.527
			c3.484,0.108,5.941,3.02,5.46,6.472s1.955,6.639,5.412,7.083c3.457,0.443,5.622,3.579,4.81,6.969
			c-0.811,3.39,1.305,6.797,4.703,7.572c3.398,0.775,5.25,4.105,4.115,7.401s0.643,6.891,3.95,7.99
			c3.307,1.099,4.829,4.593,3.382,7.763c-1.447,3.171-0.025,6.921,3.161,8.334s4.363,5.037,2.617,8.053
			c-1.747,3.016-0.693,6.886,2.342,8.601c3.035,1.714,3.857,5.435,1.827,8.268c-2.03,2.833-1.354,6.787,1.501,8.786
			c2.855,1.999,3.314,5.782,1.021,8.406c-2.293,2.624-2.003,6.625,0.646,8.89s2.741,6.075,0.205,8.465
			c-2.536,2.391-2.633,6.401-0.215,8.911s2.142,6.311-0.613,8.446c-2.755,2.135-3.238,6.117-1.074,8.849s1.522,6.488-1.426,8.347
			c-2.948,1.859-3.814,5.775-1.923,8.704c1.89,2.928,0.889,6.605-2.225,8.17s-4.353,5.38-2.754,8.477
			c1.599,3.097,0.248,6.66-3.003,7.918c-3.25,1.258-4.852,4.935-3.56,8.172c1.292,3.237-0.396,6.653-3.753,7.591
			c-3.357,0.938-5.306,4.444-4.332,7.79c0.974,3.346-1.037,6.583-4.468,7.193s-5.71,3.911-5.064,7.336s-1.667,6.453-5.141,6.728
			s-6.061,3.342-5.748,6.813c0.313,3.471-2.282,6.262-5.767,6.201c-3.485-0.061-6.355,2.741-6.379,6.226s-2.876,6.012-6.338,5.615
			s-6.59,2.115-6.95,5.582c-0.36,3.467-3.443,5.706-6.851,4.977c-3.408-0.729-6.763,1.469-7.456,4.885
			c-0.693,3.416-3.977,5.348-7.299,4.293c-3.322-1.055-6.874,0.809-7.893,4.142c-1.019,3.333-4.475,4.939-7.679,3.568
			s-6.92,0.142-8.256,3.361c-1.336,3.219-4.931,4.484-7.988,2.811s-6.901-0.526-8.541,2.549s-5.34,3.987-8.222,2.027
			c-2.882-1.96-6.818-1.19-8.748,1.713c-1.93,2.902-5.7,3.453-8.379,1.224c-2.679-2.229-6.671-1.842-8.872,0.86
			c-2.201,2.703-6.007,2.887-8.458,0.409c-2.451-2.478-6.462-2.478-8.914,0c-2.451,2.478-6.257,2.293-8.458-0.409
			c-2.201-2.703-6.193-3.09-8.872-0.86c-2.679,2.229-6.449,1.679-8.379-1.224c-1.93-2.902-5.866-3.673-8.748-1.713
			c-2.882,1.96-6.581,1.049-8.222-2.027s-5.484-4.222-8.541-2.549s-6.652,0.408-7.988-2.811c-1.336-3.219-5.051-4.732-8.256-3.361
			c-3.205,1.37-6.66-0.235-7.679-3.568c-1.019-3.333-4.571-5.197-7.893-4.142c-3.322,1.055-6.606-0.877-7.299-4.293
			c-0.693-3.416-4.048-5.614-7.456-4.885c-3.408,0.729-6.491-1.511-6.851-4.977s-3.487-5.978-6.95-5.582s-6.315-2.13-6.338-5.615
			s-2.894-6.287-6.379-6.226c-3.485,0.061-6.08-2.73-5.767-6.201c0.313-3.471-2.274-6.537-5.748-6.813s-5.788-3.304-5.141-6.728
			s-1.632-6.726-5.064-7.336c-3.431-0.61-5.442-3.847-4.468-7.193c0.974-3.346-0.975-6.852-4.332-7.79
			c-3.357-0.938-5.045-4.354-3.753-7.591c1.292-3.237-0.309-6.914-3.56-8.172c-3.25-1.258-4.602-4.821-3.003-7.918
			c1.599-3.097,0.359-6.912-2.754-8.477s-4.115-5.242-2.225-8.17c1.89-2.928,1.025-6.845-1.923-8.704s-3.59-5.615-1.426-8.347
			s1.681-6.714-1.074-8.849c-2.755-2.135-3.031-5.935-0.613-8.446s2.321-6.52-0.215-8.911c-2.536-2.391-2.444-6.2,0.205-8.465
			s2.939-6.266,0.646-8.89s-1.834-6.407,1.021-8.406c2.855-1.999,3.53-5.953,1.501-8.786c-2.03-2.833-1.207-6.554,1.827-8.268
			c3.035-1.714,4.088-5.585,2.342-8.601c-1.747-3.016-0.569-6.64,2.617-8.053s4.608-5.164,3.161-8.334
			c-1.447-3.171,0.074-6.664,3.382-7.763c3.307-1.099,5.085-4.695,3.95-7.99s0.717-6.626,4.115-7.401
			c3.398-0.775,5.514-4.182,4.703-7.572c-0.811-3.39,1.353-6.526,4.81-6.969c3.457-0.443,5.892-3.631,5.412-7.083
			c-0.48-3.452,1.977-6.364,5.46-6.472c3.484-0.108,6.215-3.045,6.07-6.527c-0.145-3.482,2.582-6.144,6.06-5.915
			s6.48-2.431,6.672-5.911c0.192-3.48,3.163-5.866,6.602-5.302c3.439,0.564,6.684-1.794,7.211-5.239
			c0.527-3.445,3.714-5.533,7.083-4.641c3.369,0.893,6.826-1.141,7.683-4.519c0.857-3.378,4.231-5.149,7.498-3.935
			c3.267,1.214,6.905-0.476,8.084-3.756c1.179-3.28,4.708-4.717,7.843-3.193c3.135,1.524,6.918,0.192,8.408-2.958
			s5.141-4.24,8.114-2.421s6.867,0.859,8.655-2.133s5.527-3.724,8.31-1.627s6.753,1.518,8.82-1.288s5.86-3.174,8.428-0.817
			C189.431,22.997,193.437,22.803,195.766,20.21z"/>
		<path style="fill:none;stroke:#000000;stroke-width:1.845;stroke-miterlimit:10;" d="M195.766,20.21
			c2.329-2.593,6.139-2.593,8.468,0s6.335,2.787,8.903,0.431c2.568-2.356,6.361-1.988,8.428,0.817s6.037,3.385,8.82,1.288
			s6.523-1.365,8.31,1.627s5.682,3.952,8.655,2.133s6.624-0.729,8.114,2.421c1.49,3.151,5.274,4.482,8.408,2.958
			c3.135-1.524,6.664-0.087,7.843,3.193c1.179,3.28,4.816,4.97,8.083,3.756c3.267-1.214,6.641,0.557,7.498,3.935
			s4.314,5.412,7.683,4.519c3.369-0.893,6.556,1.195,7.083,4.641c0.527,3.445,3.772,5.803,7.211,5.239
			c3.439-0.564,6.41,1.823,6.602,5.302c0.192,3.48,3.194,6.14,6.672,5.911c3.478-0.229,6.205,2.433,6.06,5.915
			c-0.145,3.482,2.587,6.419,6.07,6.527c3.484,0.108,5.941,3.02,5.46,6.472s1.955,6.639,5.412,7.083
			c3.457,0.443,5.622,3.579,4.81,6.969c-0.811,3.39,1.305,6.797,4.703,7.572c3.398,0.775,5.25,4.105,4.115,7.401
			s0.643,6.891,3.95,7.99c3.307,1.099,4.829,4.593,3.382,7.763c-1.447,3.171-0.025,6.921,3.161,8.334s4.363,5.037,2.617,8.053
			c-1.747,3.016-0.693,6.886,2.342,8.601c3.035,1.714,3.857,5.435,1.827,8.268c-2.03,2.833-1.354,6.787,1.501,8.786
			c2.855,1.999,3.314,5.782,1.021,8.406c-2.293,2.624-2.003,6.625,0.646,8.89s2.741,6.075,0.205,8.465
			c-2.536,2.391-2.633,6.401-0.215,8.911s2.142,6.311-0.613,8.446c-2.755,2.135-3.238,6.117-1.074,8.849s1.522,6.488-1.426,8.347
			c-2.948,1.859-3.814,5.775-1.923,8.704c1.89,2.928,0.889,6.605-2.225,8.17s-4.353,5.38-2.754,8.477
			c1.599,3.097,0.248,6.66-3.003,7.918c-3.25,1.258-4.852,4.935-3.56,8.172c1.292,3.237-0.396,6.653-3.753,7.591
			c-3.357,0.938-5.306,4.444-4.332,7.79c0.974,3.346-1.037,6.583-4.468,7.193s-5.71,3.911-5.064,7.336s-1.667,6.453-5.141,6.728
			s-6.061,3.342-5.748,6.813c0.313,3.471-2.282,6.262-5.767,6.201c-3.485-0.061-6.355,2.741-6.379,6.226s-2.876,6.012-6.338,5.615
			s-6.59,2.115-6.95,5.582c-0.36,3.467-3.443,5.706-6.851,4.977c-3.408-0.729-6.763,1.469-7.456,4.885
			c-0.693,3.416-3.977,5.348-7.299,4.293c-3.322-1.055-6.874,0.809-7.893,4.142c-1.019,3.333-4.475,4.939-7.679,3.568
			s-6.92,0.142-8.256,3.361c-1.336,3.219-4.931,4.484-7.988,2.811s-6.901-0.526-8.541,2.549s-5.34,3.987-8.222,2.027
			c-2.882-1.96-6.818-1.19-8.748,1.713c-1.93,2.902-5.7,3.453-8.379,1.224c-2.679-2.229-6.671-1.842-8.872,0.86
			c-2.201,2.703-6.007,2.887-8.458,0.409c-2.451-2.478-6.462-2.478-8.914,0c-2.451,2.478-6.257,2.293-8.458-0.409
			c-2.201-2.703-6.193-3.09-8.872-0.86c-2.679,2.229-6.449,1.679-8.379-1.224c-1.93-2.902-5.866-3.673-8.748-1.713
			c-2.882,1.96-6.581,1.049-8.222-2.027s-5.484-4.222-8.541-2.549s-6.652,0.408-7.988-2.811c-1.336-3.219-5.051-4.732-8.256-3.361
			c-3.205,1.37-6.66-0.235-7.679-3.568c-1.019-3.333-4.571-5.197-7.893-4.142c-3.322,1.055-6.606-0.877-7.299-4.293
			c-0.693-3.416-4.048-5.614-7.456-4.885c-3.408,0.729-6.491-1.511-6.851-4.977s-3.487-5.978-6.95-5.582s-6.315-2.13-6.338-5.615
			s-2.894-6.287-6.379-6.226c-3.485,0.061-6.08-2.73-5.767-6.201c0.313-3.471-2.274-6.537-5.748-6.813s-5.788-3.304-5.141-6.728
			s-1.632-6.726-5.064-7.336c-3.431-0.61-5.442-3.847-4.468-7.193c0.974-3.346-0.975-6.852-4.332-7.79
			c-3.357-0.938-5.045-4.354-3.753-7.591c1.292-3.237-0.309-6.914-3.56-8.172c-3.25-1.258-4.602-4.821-3.003-7.918
			c1.599-3.097,0.359-6.912-2.754-8.477s-4.115-5.242-2.225-8.17c1.89-2.928,1.025-6.845-1.923-8.704s-3.59-5.615-1.426-8.347
			s1.681-6.714-1.074-8.849c-2.755-2.135-3.031-5.935-0.613-8.446s2.321-6.52-0.215-8.911c-2.536-2.391-2.444-6.2,0.205-8.465
			s2.939-6.266,0.646-8.89s-1.834-6.407,1.021-8.406c2.855-1.999,3.53-5.953,1.501-8.786c-2.03-2.833-1.207-6.554,1.827-8.268
			c3.035-1.714,4.088-5.585,2.342-8.601c-1.747-3.016-0.569-6.64,2.617-8.053s4.608-5.164,3.161-8.334
			c-1.447-3.171,0.074-6.664,3.382-7.763c3.307-1.099,5.085-4.695,3.95-7.99s0.717-6.626,4.115-7.401
			c3.398-0.775,5.514-4.182,4.703-7.572c-0.811-3.39,1.353-6.526,4.81-6.969c3.457-0.443,5.892-3.631,5.412-7.083
			c-0.48-3.452,1.977-6.364,5.46-6.472c3.484-0.108,6.215-3.045,6.07-6.527c-0.145-3.482,2.582-6.144,6.06-5.915
			s6.48-2.431,6.672-5.911c0.192-3.48,3.163-5.866,6.602-5.302c3.439,0.564,6.684-1.794,7.211-5.239
			c0.527-3.445,3.714-5.533,7.083-4.641c3.369,0.893,6.826-1.141,7.683-4.519c0.857-3.378,4.231-5.149,7.498-3.935
			c3.267,1.214,6.905-0.476,8.084-3.756c1.179-3.28,4.708-4.717,7.843-3.193c3.135,1.524,6.918,0.192,8.408-2.958
			s5.141-4.24,8.114-2.421s6.867,0.859,8.655-2.133s5.527-3.724,8.31-1.627s6.753,1.518,8.82-1.288s5.86-3.174,8.428-0.817
			C189.431,22.997,193.437,22.803,195.766,20.21z"/>
	</g>
	<path style="fill:none;stroke:#000000;stroke-width:1.845;stroke-linecap:round;stroke-linejoin:round;stroke-miterlimit:10;" d="
		M78,188c0.428,0.13-0.523,1.718,0.778,1.92c1.58-5.683-3.619-8.216-8.778-7.92"/>
	<path style="fill:none;stroke:#000000;stroke-width:1.845;stroke-linecap:round;stroke-linejoin:round;stroke-miterlimit:10;" d="
		M212,96c4.714-0.952,7.966,1.715,7,5"/>
	<path style="fill:none;stroke:#000000;stroke-width:1.845;stroke-linecap:round;stroke-linejoin:round;stroke-miterlimit:10;" d="
		M227,338c3.279-1.378,3.855-4.184,2-7"/>
	<g>
		<path style="fill:#6D6E71;stroke:#000000;stroke-width:1.845;stroke-miterlimit:10;" d="M194.493,202.098
			c-3.253-2.287-6.123-7.666-2.638-12.245c2.408-3.164,10.027-6.397,13.28-4.111l15.169,13.72c3.253,2.287,4.201,6.894,1.914,10.147
			c-3.911,5.563-8.438,6.047-11.691,3.76L194.493,202.098z"/>
		<path style="fill:#58595B;stroke:#000000;stroke-width:1.845;stroke-miterlimit:10;" d="M193.544,193.042
			c-1.448-1.057-3.156-4.161-1.703-4.939c1.387-0.742,3.775-0.942,5.223,0.115l25.624,18.702c1.448,1.057,1.295,3.312,0.862,4.326
			c-0.648,1.516-3.2,2.885-4.648,1.829L193.544,193.042z"/>
	</g>
	<path style="fill:none;stroke:#000000;stroke-width:1.845;stroke-linecap:round;stroke-linejoin:round;stroke-miterlimit:10;" d="
		M279,148c2.683,0.599,4.824,2.528,6,5"/>
	<path style="fill:none;stroke:#000000;stroke-width:1.845;stroke-linecap:round;stroke-linejoin:round;stroke-miterlimit:10;" d="
		M132,286c-0.07-1.305-0.067-2.584,0.151-3.849c7.619-2.249,10.723,3.311,12.849,9.849"/>
	<path style="fill:none;stroke:#000000;stroke-width:1.845;stroke-linecap:round;stroke-linejoin:round;stroke-miterlimit:10;" d="
		M288,89c1.308-5.471,7.841-5.567,13-5"/>
	<g>
		<path style="fill:#6D6E71;stroke:#000000;stroke-width:1.845;stroke-miterlimit:10;" d="M199.841,216.108
			c0.071,3.976-2.582,9.465-8.335,9.349c-3.976-0.08-11.079-4.328-11.149-8.303l2.139-20.341c-0.071-3.976,3.092-7.458,7.068-7.528
			c6.799-0.121,9.859,3.251,9.93,7.227L199.841,216.108z"/>
		<path style="fill:#58595B;stroke:#000000;stroke-width:1.845;stroke-miterlimit:10;" d="M193.086,222.213
			c0,1.793-1.5,5.003-2.986,4.287c-1.417-0.682-2.986-2.494-2.986-4.287V190.49c0-1.793,1.912-2.999,2.986-3.246
			c1.607-0.37,4.217,0.884,4.217,2.677L193.086,222.213z"/>
	</g>
	<g>
		<path style="fill:#6D6E71;stroke:#000000;stroke-width:1.845;stroke-miterlimit:10;" d="M207.608,183.59
			c2.41,3.163,3.52,9.158-1.185,12.469c-3.252,2.288-11.491,3.068-13.901-0.094l-10.314-17.662
			c-2.41-3.163-1.922-7.841,1.241-10.251c5.409-4.121,9.871-3.215,12.281-0.052L207.608,183.59z"/>
		<path style="fill:#58595B;stroke:#000000;stroke-width:1.845;stroke-miterlimit:10;" d="M205.776,192.509
			c1.061,1.445,1.752,4.92,0.13,5.223c-1.546,0.289-3.883-0.243-4.944-1.688l-18.775-25.571c-1.061-1.445-0.234-3.548,0.486-4.384
			c1.076-1.25,3.923-1.784,4.984-0.338L205.776,192.509z"/>
	</g>
	<path style="fill:none;stroke:#000000;stroke-width:1.845;stroke-linecap:round;stroke-linejoin:round;stroke-miterlimit:10;" d="
		M153,58c-0.472-5.965,5.951-8.139,9-3"/>
</g>
</svg>
